<?xml version="1.0" encoding="utf-8"?>
<!-- Generator: Adobe Illustrator 26.0.2, SVG Export Plug-In . SVG Version: 6.00 Build 0)  -->
<svg version="1.1" id="Layer_1" xmlns="http://www.w3.org/2000/svg" xmlns:xlink="http://www.w3.org/1999/xlink" x="0px" y="0px"
	 viewBox="0 0 398 398" style="enable-background:new 0 0 398 398;" xml:space="preserve">
<style type="text/css">
	.st0{fill:#36393C;}
	.st1{fill:#85C506;}
	.st2{fill:#C6D9D9;}
	.st3{fill:#FC8004;}
	.st4{fill:#83682C;}
</style>
<g>
	<path class="st0" d="M326.1,19.7c6.6,2.3,9.7,8.2,13.2,13.7c6.5-5.7,13.7-5.8,18.4-0.5c2.4,2.7,2.9,6.1,3.3,9.4
		c0.7,6.9,0.4,13.8-2.1,20.4c-1,2.5-0.1,3,2,3.6c5.9,1.6,9.2,5.3,9.6,10.4c0.6,8.3-6.4,14.5-14.6,12.4c-8-2.1-15.6-1.7-22.6,3
		c-0.8,0.5-1.6,1.1-2.3,1.7c-5.7,5-5.7,5.1,0.3,9.7c10,7.6,16,17.4,16.4,30.2c0.1,1.9,0.5,3.5,1.3,5.2c6.2,12.2,10.8,25.1,14,38.4
		c0.6,2.4,1.3,4.7-0.9,6.8c-1.2,1.1-0.3,2.3,0.1,3.3c6.2,17.9,9,36.4,8.3,55.3c-1,26.1-7.9,50.5-21.4,73
		c-20,33.3-48.2,56.7-85.2,68.6c-43.8,14.1-86.1,9.7-125.8-13.9c-36.2-21.5-59.9-52.9-71-93.6c-7-25.9-6.8-52-0.2-77.9
		c0.9-3.4,1.2-6.6,0.9-10c-2.8-40.5,22.6-77.1,61-89.8c8.3-2.8,17-4.1,25.7-4.2c3.3,0,3.3-1.4,2.7-3.9c-3-13.2-5.9-26.4-8.8-39.7
		c-1-4.5,0.1-6.2,4.7-7.1c48-9.7,92.5-1.1,133.8,25.1c1.5,1,3,2,4.5,3c1.1-3,0-4.6-2.5-5.5c-1.4-0.5-2.6-1.2-4-1.8
		c-6.1-2.9-8.8-9-6.6-15c2.2-5.9,8.8-9.3,14.9-6.7c4.1,1.7,6,0.9,8.1-2.6c2.2-3.7,5.3-6.9,9.1-9.3c0.6-0.4,1.4-0.7,1.5-1.5
		c0.6-5.2,4.4-7.8,8.3-10.2C322.2,19.7,324.2,19.7,326.1,19.7z M311.1,238c0-3.9,0-7.8,0-11.7c-0.5-0.1-1-0.1-1.5-0.2
		c-1.8,3.9-3.7,7.7-5.5,11.6c-0.7,0.8-1.4,1.7-0.4,2.8c2.2,2.6,4.4,5.2,6.6,7.8c0.3,0,0.6-0.1,0.8-0.1
		C311.1,244.8,311.1,241.4,311.1,238z M263.5,102.6c-3.7-2.9-7.9-5.1-12.1-7.1c-14-6.8-28.6-11.3-44.1-13.4
		c-12.7-1.7-25.3-1.3-37.8,0.3c-5.5,0.7-5.7,1.3-3.9,6.4c1.3,6.5,1.3,6.3,6.7,7.5c36.1,8.3,59.4,30.1,69.5,65.9
		c0.9,3.3,1.5,6.8,2.3,10.7c2.8-11.9,5.2-23.2,8.1-34.4c3-11.5,4.6-23.6,12.3-33.4C265.6,103.6,264.5,103.1,263.5,102.6z
		 M216.3,383.3c1,0,1.9,0.1,2.9,0.1c28.6-0.5,54.8-9,78.4-25c21.6-14.6,38.2-33.8,49.6-57.3c8.4-17.4,13.3-35.8,14.4-55.1
		c1.1-19.1-1.7-37.6-8-55.7c-0.9-2.6-1.8-3.6-4.8-2.8c-7.1,1.9-14.3,3.3-21.5,4.8c-1.6,0.3-2.1,1.5-2.6,2.7
		c-2.2,4.8-4.5,9.7-6.8,14.4c-0.9,1.7-1,3.3-0.5,5.2c2.9,12.3,3.7,24.7,1.6,37.1c-1,5.9-0.7,11.3,2.1,16.7c2.2,4.3,3.2,9.1,4.2,13.9
		c2.3,11.7,2.5,23.4-1,34.9c-5.3,17.2-18.2,26.2-34.6,31.2c-14.3,4.4-29,5.5-43.8,5.9c-9.8,0.3-19.6,0.5-29.4,0.7
		c-11.4-0.3-22.8-0.4-34.1-0.9c-16.3-0.7-32.4-2.2-47.6-8.7c-14.5-6.3-24.4-16.7-27.5-32.7c-3.3-16.7-1.1-32.7,5.9-48.2
		c1.1-2.5,0.8-3.7-1.6-5.1c-16.9-10-29.2-24.1-37-42.1c-0.3-0.7-0.1-2.1-2-1.8c-0.5,4.4-1.1,8.8-1.3,13.2
		c-0.4,7.9-0.4,15.7,0.5,23.6c3.2,30.2,14.7,57,34.4,80.1c17.8,20.9,39.8,35.5,65.8,44C186.1,381.2,200.9,384,216.3,383.3z
		 M317.4,304.8c2.3-24.8-6.7-45.3-24-62.4c-16.7-16.6-37.3-25.8-60.5-28.9c-32.4-4.3-62.3,2.3-87.9,23.3
		c-21.1,17.2-32.3,39.4-30.4,67.3c0.3,5.9,1.8,11.4,4.6,16.6c5.4,10.1,14.4,15.3,24.8,18.7c14.7,4.8,29.9,5.6,45.2,6.1
		c22.9,0.7,45.8,0.8,68.6-0.7c12.7-0.9,25.3-2.6,37-7.9C308.6,330.5,316.4,320.1,317.4,304.8z M103.6,183.4
		c0.5,21.2,11.8,38.6,30.5,47.4c2.2,1,3.5,0.9,5.4-0.7c18-15,38.9-23.3,62-25.8c2.2-0.2,2.9-1.5,3.4-3.1c2.5-7.8,3.9-15.6,2.8-23.9
		c-3.9-29.6-29.9-49.7-59.7-45.8C123,134.9,103,158.2,103.6,183.4z M253.6,171.7c-1,4.4-1.8,8.5-2.8,12.6c-0.4,1.7-0.4,3.1,0.9,4.7
		c2,2.4,1.3,5.4-1.5,6.6c-1.7,0.7-2.1,1.8-2.4,3.2c-0.4,1.9-0.5,3.9-1,5.7c-0.6,2.1,0.2,2.6,2,3.1c13.2,3.6,25.6,9,36.7,16.9
		c3.2,2.3,6.8,3.5,10.5,4.8c1.6,0.6,2.4,0.3,3.1-1.2c1.7-3.5,3.3-7,5.2-10.4c1-1.8,0.5-2.5-1.3-3.1c-3.9-1.2-7.8-2.5-11.7-3.8
		c-3.5-1.2-4.8-3.2-3.9-5.8c1.2-3.4,3.8-3.3,6.5-2.5c4.3,1.4,8.5,2.7,12.7,4.2c1.6,0.6,2.6,0.6,3.4-1.2c1.6-3.5,3.2-7,5-10.5
		c0.7-1.4,0.5-2-1.2-2.5c-4.2-1.3-8.3-2.7-12.4-4.1c-2.6-0.9-4.4-2.5-3.4-5.4s3-3.9,6-2.8c4.2,1.5,8.5,2.8,12.7,4.3
		c2,0.7,3.1,0.4,3.9-1.6c1.3-3.3,2.8-6.4,4.3-9.6c0.7-1.6,0.6-2.6-1.4-3.2c-4.3-1.3-8.5-2.8-12.7-4.2c-3.4-1.2-4.8-3.3-3.7-5.9
		c1.2-2.9,3.5-3.3,6.3-2.3c4.3,1.5,8.8,2.8,13.1,4.4c2.4,0.9,3.5,0.3,4.3-2c1-2.9,2.1-5.7,3.4-8.4c1.1-2.4,0.9-3.5-1.9-4.3
		c-4.8-1.3-9.4-3-14.1-4.7c-2.7-0.9-4.1-2.8-3.2-5.6c0.9-2.8,3-3.6,5.8-2.6c4,1.4,8,2.6,12.1,4c5.8,1.9,6.1,1.7,6-4.6
		c-0.3-11.4-6.7-19-15.6-25.2c-1.3-0.9-2.1-0.1-3.1,0.7c-7.8,6.4-17.5,3-19.6-6.9c-0.3-1.2-0.4-2-1.9-2.1
		c-13.1-0.8-26.2,3-31.7,18.2c-5.5,15.1-8.4,30.9-12.2,46.7c3.3-0.2,6.5-1.1,8.2,2.5c0.9,2,0.6,4-1.1,5.3
		C259.1,175.1,256.5,173.3,253.6,171.7z M155.9,122.1c24.5,0.7,42.9,11.9,54.4,33.5c7.6,14.3,8.8,29.5,3.9,45
		c-0.8,2.4-0.4,3.1,2.2,3.1c4.6,0,9.2-0.5,13.7,0.6c1.7,0.4,2.5-0.3,3-2.1c2.8-11.7,3.2-23.4,0.8-35.1
		c-3.6-17.6-12.2-32.3-25.9-44.2c-13.4-11.6-28.9-18.3-46.3-19.4c-26.2-1.7-48.4,7.3-65.8,27.3c-13.7,15.7-20.2,33.9-19.4,54.9
		c0.4,12.5,3.5,24.1,9.4,35c7.2,13.5,17.6,23.8,30.8,31.5c1.5,0.9,2.4,0.8,3.3-0.6c2.4-3.9,5.4-7.4,8.4-10.9
		c1.4-1.6,1.6-2.5-0.7-3.7c-6.6-3.5-12.3-8.1-17.2-13.7c-12.9-14.8-17.9-31.9-14.5-51.1C101.1,143.1,127.2,121.6,155.9,122.1z
		 M296.9,91.4c-1.2-2.6-1.7-4.8-3.8-6.2c-4.2-2.8-8.2-6-12.5-8.7C243.4,53.3,203.3,45,160,52.5c-1.9,0.3-2.4,0.7-1.9,2.7
		c1.3,5.3,2.7,10.5,3.6,15.9c0.5,2.8,1.5,3.2,4.1,2.8c17-3,34-2.7,50.9,0.5c19.4,3.7,37.5,11,54,22c0.9,0.6,1.7,1.4,2.9,0.6
		C280.7,92.8,288.4,91.2,296.9,91.4z M347.2,73c-16.1-0.1-31.4,10.2-37,25.2c-0.7,1.9-1.6,3.8,1,4.9c2.5,1,3.8-0.5,4.7-2.6
		c0.4-0.9,0.8-1.8,1.2-2.6c3.8-7.9,9.8-13.3,18-16.5c7.3-2.8,14.6-2.8,22-0.9c1.8,0.5,3.9,0.6,4.5-1.7c0.7-2.4-1-3.4-3.1-4
		C355,73.7,351.3,73.4,347.2,73z M344.3,150.8c-4.2,9.8-8.3,19.2-12.3,28.5c-0.7,1.7-0.9,3.4,1.7,2.9c6-1.2,12-2.6,18-3.9
		c1-0.2,2-0.2,1.6-1.7C351,167.9,348.3,159.3,344.3,150.8z M310.5,81.3c1.1-2.6,5.3-3.2,3.5-7.3c-4.6-10.2-11.7-17.6-22.1-21.7
		c-2.1-0.8-4.2-1.4-5.3,1.1c-1.1,2.7,1.1,3.6,3,4.4c7.1,2.8,12.4,7.6,16.5,14.1C308,74.7,308.7,78,310.5,81.3z M335.8,55.5
		c-0.7-10.4-3.7-18.2-9.5-25c-1.2-1.4-2.5-2-4.1-1c-1.7,1.1-1.6,2.8-0.7,4.5c0.2,0.4,0.5,0.8,0.8,1.2c6.4,8.3,8.8,17.6,6.7,27.9
		c-0.1,0.6-0.9,1.4,0,1.9s1.6-0.2,2.2-0.8C333.8,61.3,336.3,58.2,335.8,55.5z M341.5,64.5c2.2-0.1,3.7-0.3,5.3-0.3
		c1.2,0,2.1-0.4,2.6-1.6c2.9-7.2,3.9-14.7,2.2-22.4c-0.4-1.7-1.2-3.4-3.4-3c-2.1,0.4-2.4,2-2.4,3.9c0,2.8,0.9,5.4,0.5,8.3
		C345.6,54.7,344.4,59.7,341.5,64.5z M310.5,53c0.1-0.1,0.6-0.1,0.7-0.3c1.7-3,4.4-5.1,6.3-7.9c1.1-1.6-1-3-2-4.2
		c-1.2-1.6-2.1,0.1-2.9,0.8c-2,1.8-3.7,3.8-5.1,6.1C306.3,49.5,307.8,52.7,310.5,53z"/>
	<path class="st0" d="M15.5,116c3.1-0.7,5.8-1.3,8.6-1c2.3,0.3,2.8-0.7,2.8-2.9c-0.1-8.8-0.1-17.7,0-26.5c0-1.3,0-2.7,0.3-4
		c0.5-1.9,1.9-3,4-3.1c1.9,0,3.3,0.9,3.9,2.7c0.4,1.3,0.5,2.9,0.5,4.3c0,8.6,0.2,17.2-0.1,25.8c-0.1,3.1,0.9,4.1,3.8,3.7
		c2.4-0.3,4.8,0.5,7.5,0.9c0-9.3,0-18.5,0-27.7c0-1.2-0.1-2.4,0.1-3.6c0.4-2.6,1.9-4.4,4.6-4.2c2.6,0.2,4.1,1.9,4.1,4.7
		c0,0.1,0,0.2,0,0.4c-1,22,1.6,44,1.5,66c0,12-4.6,17.5-16.5,19.4c-1.7,0.3-2.2,0.8-2.2,2.5c0.1,9.8,0.1,19.6,0,29.5
		c0,1.7,0.7,2.5,2.1,3.3c7.1,3.9,10.7,10,10.7,18.1c0,47.2,0.1,94.3,0,141.5c0,11.8-8.9,20.5-20.1,20.4c-11.2-0.1-20-8.9-20-20.6
		c-0.1-47-0.1-94.1,0-141.1c0-8.2,3.6-14.4,10.9-18.3c1.5-0.8,2-1.7,2-3.4c-0.1-9.7-0.1-19.4,0-29.1c0-1.8-0.4-2.4-2.3-2.7
		c-11.5-1.6-16.4-7.4-16.4-19.1c0-6.2-0.7-12.5,0.1-18.5c2.2-15.9,0.9-31.9,1.3-47.8c0.1-2.9,1.4-4.9,4.2-4.9c3-0.1,4.5,2,4.5,5
		c0,8.8,0,17.7,0,26.5C15.5,113.2,15.5,114.5,15.5,116z M19.9,294.6c0,23.5,0,47,0,70.5c0,8,5.7,12.7,13.2,11.4
		c5.4-0.9,9-5.5,9-11.5c0-24.6,0-49.2,0-73.8c0-22.3,0-44.6,0-66.9c0-5.3-2.5-9.2-6.8-11c-8-3.2-15.5,2-15.5,11
		C19.9,247.8,19.9,271.2,19.9,294.6z"/>
	<path class="st1" d="M103.6,183.4c-0.6-25.2,19.4-48.5,44.4-51.8c29.8-3.9,55.8,16.2,59.7,45.8c1.1,8.3-0.3,16.1-2.8,23.9
		c-0.5,1.7-1.2,2.9-3.4,3.1c-23.2,2.6-44,10.9-62,25.8c-1.9,1.6-3.2,1.7-5.4,0.7C115.4,222,104.1,204.6,103.6,183.4z"/>
	<path class="st2" d="M216.3,355c9.8-0.2,19.6-0.5,29.4-0.7c14.8-0.4,29.5-1.6,43.8-5.9c16.3-5,29.3-14,34.6-31.2
		c3.5-11.4,3.3-23.2,1-34.9c-0.9-4.8-1.9-9.6-4.2-13.9c-2.8-5.4-3.1-10.8-2.1-16.7c2.1-12.4,1.3-24.9-1.6-37.1
		c-0.4-1.9-0.3-3.4,0.5-5.2c2.4-4.8,4.6-9.6,6.8-14.4c0.6-1.2,1.1-2.4,2.6-2.7c7.2-1.5,14.4-2.9,21.5-4.8c3.1-0.8,4,0.2,4.8,2.8
		c6.2,18.1,9.1,36.6,8,55.7c-1.1,19.3-6,37.7-14.4,55.1c-11.4,23.5-28,42.7-49.6,57.3c-23.6,16-49.8,24.5-78.4,25
		c-1,0-1.9-0.1-2.9-0.1C216.3,373.9,216.3,364.4,216.3,355z"/>
	<path class="st3" d="M253.6,171.7c2.9,1.6,5.5,3.4,8.4,1.2c1.7-1.3,2-3.3,1.1-5.3c-1.7-3.6-4.9-2.7-8.2-2.5
		c3.8-15.8,6.7-31.6,12.2-46.7c5.5-15.2,18.6-19,31.7-18.2c1.4,0.1,1.6,0.9,1.9,2.1c2.1,9.9,11.8,13.3,19.6,6.9
		c1-0.8,1.8-1.6,3.1-0.7c8.9,6.1,15.3,13.8,15.6,25.2c0.2,6.3-0.2,6.5-6,4.6c-4-1.3-8.1-2.6-12.1-4c-2.8-1-4.9-0.2-5.8,2.6
		c-0.9,2.8,0.5,4.7,3.2,5.6c4.7,1.6,9.4,3.3,14.1,4.7c2.8,0.8,3,1.9,1.9,4.3c-1.3,2.7-2.4,5.6-3.4,8.4c-0.8,2.3-1.9,2.9-4.3,2
		c-4.3-1.6-8.7-2.9-13.1-4.4c-2.8-1-5.1-0.6-6.3,2.3c-1.1,2.6,0.3,4.7,3.7,5.9c4.2,1.5,8.4,3,12.7,4.2c2,0.6,2.1,1.5,1.4,3.2
		c-1.5,3.2-2.9,6.4-4.3,9.6c-0.8,2-2,2.4-3.9,1.6c-4.2-1.5-8.5-2.8-12.7-4.3c-3-1.1-5.1-0.1-6,2.8c-1,3,0.8,4.5,3.4,5.4
		c4.1,1.4,8.2,2.9,12.4,4.1c1.6,0.5,1.9,1.1,1.2,2.5c-1.7,3.5-3.4,7-5,10.5c-0.8,1.8-1.8,1.8-3.4,1.2c-4.2-1.5-8.5-2.9-12.7-4.2
		c-2.8-0.9-5.4-0.9-6.5,2.5c-0.9,2.7,0.3,4.6,3.9,5.8c3.9,1.3,7.8,2.6,11.7,3.8c1.8,0.6,2.2,1.3,1.3,3.1c-1.9,3.4-3.5,6.9-5.2,10.4
		c-0.7,1.5-1.5,1.8-3.1,1.2c-3.6-1.3-7.2-2.5-10.5-4.8c-11.2-7.9-23.6-13.3-36.7-16.9c-1.9-0.5-2.7-1-2-3.1c0.6-1.8,0.7-3.8,1-5.7
		c0.3-1.4,0.7-2.5,2.4-3.2c2.8-1.2,3.5-4.2,1.5-6.6c-1.3-1.6-1.3-2.9-0.9-4.7C251.7,180.3,252.6,176.1,253.6,171.7z M273.4,195.8
		c-2.1,0.3-3.9,1.5-4,4.3c-0.1,2.9,4.4,6.1,8.1,5.7c2.5-0.2,3.9-1.9,4-4.4C281.7,198.4,277.8,195.6,273.4,195.8z M293.7,150.8
		c-2.2,0.4-4.1,1.4-4.1,4.3s4.1,5.9,7.7,5.6c2.5-0.2,3.9-1.8,4-4.3C301.4,153.5,297.8,150.7,293.7,150.8z M297.6,131.1
		c-0.1,3.4,3.1,6.1,7.1,6.3c2.7,0.1,4.3-1.5,4.5-4.1c0.3-2.9-3.2-5.7-7.1-5.8C299.5,127.4,297.9,128.9,297.6,131.1z M285.2,173.7
		c-2.6,0-4.6,1.7-4.7,4c-0.1,2.8,3.8,5.8,7.7,5.8c2.7,0,4-1.6,4.3-4C292.7,176.5,289.1,173.8,285.2,173.7z M275.2,118.7
		c-2.7-0.1-4.9,1.8-4.9,4.2c0,2.6,2.5,4.8,5.8,4.8c2.7,0,4.3-1.4,4.3-4.2C280.3,120.7,278.3,118.8,275.2,118.7z M266.6,142
		c-2,0.1-3.9,1.2-4.2,4c-0.3,2.7,2.4,5.2,5.8,5.2c2.7,0,4.2-1.5,4.2-4.3C272.4,144,270.3,142.1,266.6,142z M265.1,196.8
		c0.1-3.4-1.9-5.4-5.1-5.4c-2.8-0.1-4.7,1.3-4.9,4.1c-0.2,2.7,2.3,4.8,5.6,4.9C263.4,200.4,264.9,198.9,265.1,196.8z M279.8,146.2
		c-3,0-4.7,1.4-4.7,4.2c0,2.9,2.1,4.7,5.6,4.7c2.9,0,4.2-1.7,4.4-4.2C285.3,148.1,283.1,146.3,279.8,146.2z M275.9,174.6
		c0.1-3.3-1.9-5.2-5.1-5.4c-2.6-0.1-4.9,1.8-5,4.1c0,2.6,2.6,4.9,5.7,4.9C274.3,178.2,275.6,176.7,275.9,174.6z M289,132.1
		c2.5-0.4,3.9-1.9,3.8-4.6s-2.5-4.7-5.5-4.4c-2.6,0.2-4.3,1.6-4.3,4.4C283,130.2,285.6,132.2,289,132.1z"/>
	<path class="st4" d="M155.9,122.1c-28.8-0.5-54.9,21-60,50.2c-3.4,19.2,1.6,36.4,14.5,51.1c4.9,5.6,10.6,10.2,17.2,13.7
		c2.3,1.2,2.1,2.1,0.7,3.7c-3,3.4-6,6.9-8.4,10.9c-0.8,1.4-1.7,1.5-3.3,0.6c-13.2-7.7-23.6-18-30.8-31.5c-5.8-10.9-8.9-22.5-9.4-35
		c-0.7-20.9,5.8-39.2,19.4-54.9c17.4-19.9,39.6-29,65.8-27.3c17.4,1.1,32.9,7.8,46.3,19.4c13.7,11.9,22.3,26.5,25.9,44.2
		c2.4,11.7,2,23.4-0.8,35.1c-0.5,1.9-1.3,2.6-3,2.1c-4.5-1.1-9.2-0.6-13.7-0.6c-2.6,0-3-0.7-2.2-3.1c4.9-15.5,3.6-30.7-3.9-45
		C198.8,134,180.5,122.8,155.9,122.1z"/>
	<path class="st2" d="M265,305.5c0.2,3.5-1.8,6.4-2.8,10.3c7.2-2.5,13.9-4.8,20.5-7.2c7.8-2.8,15.7-5.7,24-6.6
		c3.8-0.4,7.4,0.8,10.7,2.8c-0.9,15.3-8.8,25.7-22.5,32c-11.8,5.4-24.4,7.1-37,7.9c-22.9,1.5-45.8,1.5-68.6,0.7
		c-15.2-0.5-30.5-1.3-45.2-6.1c-10.4-3.4-19.5-8.6-24.8-18.7c-2.8-5.2-4.3-10.7-4.6-16.6c3.1-0.3,5.8-2.2,9-2.2
		c4.5,0,8.8,1.2,13.1,2.4c9.5,2.7,18.6,6.5,28,9.6c1.3,0.4,2.6,1.2,4.5,0.9c0-3-2.3-5.5-1.6-8.6c4.1,3.9,8.2,7.8,13.4,10.3
		c14.8,7.1,30.4,8.2,46.5,6.5C242,321.6,255.1,316.9,265,305.5z"/>
	<path class="st2" d="M296.9,91.4c-8.6-0.2-16.3,1.4-23.3,5.6c-1.3,0.7-2.1,0-2.9-0.6c-16.5-11-34.6-18.3-54-22
		c-16.9-3.2-33.9-3.5-50.9-0.5c-2.6,0.5-3.6,0-4.1-2.8c-0.9-5.3-2.2-10.6-3.6-15.9c-0.5-2,0-2.4,1.9-2.7c43.3-7.5,83.4,0.9,120.6,24
		c4.3,2.7,8.3,5.9,12.5,8.7C295.3,86.6,295.8,88.8,296.9,91.4z"/>
	<path class="st3" d="M263.5,102.6c1,0.5,2.1,1.1,1.1,2.4c-7.7,9.8-9.3,21.9-12.3,33.4c-3,11.2-5.4,22.5-8.1,34.4
		c-0.8-3.9-1.3-7.3-2.3-10.7c-10.1-35.8-33.4-57.6-69.5-65.9c-5.4-1.2-5.4-1.1-6.7-7.5c2.1,0.4,4-0.7,6.1-0.7
		c11.3,0.1,22.7-0.5,33.9,1.4c16.1,2.7,31.3,8,45.5,15.8C258.8,109.5,258.7,109.8,263.5,102.6z"/>
	<path class="st4" d="M263.5,102.6c-4.8,7.3-4.6,6.9-12.4,2.7c-14.3-7.8-29.5-13.1-45.5-15.8c-11.3-1.9-22.6-1.4-33.9-1.4
		c-2.1,0-4,1.1-6.1,0.7c-1.9-5.1-1.6-5.7,3.9-6.4c12.6-1.6,25.1-2.1,37.8-0.3c15.5,2.1,30.1,6.6,44.1,13.4
		C255.6,97.5,259.8,99.7,263.5,102.6z"/>
	<path class="st1" d="M347.2,73c4,0.4,7.8,0.7,11.4,1.9c2.1,0.7,3.7,1.6,3.1,4c-0.6,2.3-2.7,2.2-4.5,1.7c-7.4-2-14.8-2-22,0.9
		c-8.2,3.2-14.2,8.6-18,16.5c-0.4,0.9-0.9,1.7-1.2,2.6c-0.9,2.1-2.2,3.7-4.7,2.6c-2.6-1.1-1.7-3.1-1-4.9
		C315.9,83.2,331.1,72.9,347.2,73z"/>
	<path class="st2" d="M344.3,150.8c4,8.5,6.6,17.1,9,25.7c0.4,1.5-0.6,1.5-1.6,1.7c-6,1.3-12,2.7-18,3.9c-2.6,0.5-2.5-1.2-1.7-2.9
		C336.1,170,340.1,160.6,344.3,150.8z"/>
	<path class="st1" d="M310.5,81.3c-1.8-3.2-2.5-6.6-4.4-9.5c-4.1-6.4-9.4-11.2-16.5-14.1c-1.9-0.8-4.2-1.7-3-4.4
		c1.1-2.5,3.2-1.9,5.3-1.1c10.4,4.1,17.5,11.6,22.1,21.7C315.8,78.1,311.6,78.6,310.5,81.3z"/>
	<path class="st1" d="M335.8,55.5c0.5,2.8-2,5.8-4.6,8.7c-0.5,0.6-1.3,1.3-2.2,0.8c-0.9-0.5-0.2-1.3,0-1.9
		c2.1-10.4-0.3-19.6-6.7-27.9c-0.3-0.4-0.6-0.8-0.8-1.2c-0.9-1.7-1.1-3.3,0.7-4.5c1.6-1,2.9-0.4,4.1,1
		C332.1,37.2,335.1,45.1,335.8,55.5z"/>
	<path class="st1" d="M341.5,64.5c2.8-4.9,4-9.9,4.7-15.1c0.4-2.9-0.5-5.5-0.5-8.3c0-1.9,0.4-3.5,2.4-3.9c2.2-0.4,3,1.3,3.4,3
		c1.7,7.7,0.8,15.1-2.2,22.4c-0.5,1.2-1.4,1.6-2.6,1.6C345.3,64.3,343.7,64.4,341.5,64.5z"/>
	<path class="st1" d="M310.5,53c-2.7-0.3-4.2-3.5-2.9-5.6c1.4-2.3,3.2-4.3,5.1-6.1c0.8-0.7,1.6-2.4,2.9-0.8c1,1.2,3.1,2.6,2,4.2
		c-1.9,2.8-4.6,4.9-6.3,7.9C311.1,52.9,310.6,53,310.5,53z"/>
	<path class="st2" d="M311.1,238c-2.3-0.1-4.7-0.1-7-0.2c1.8-3.9,3.7-7.7,5.5-11.6c0.5,0.1,1,0.1,1.5,0.2
		C311.1,230.2,311.1,234.1,311.1,238z"/>
	<path class="st2" d="M19.9,294.6c0-23.4,0-46.8,0-70.2c0-9,7.5-14.3,15.5-11c4.4,1.8,6.8,5.6,6.8,11c0,22.3,0,44.6,0,66.9
		c0,24.6,0,49.2,0,73.8c0,6-3.7,10.6-9,11.5c-7.6,1.3-13.2-3.5-13.2-11.4C19.9,341.7,19.9,318.1,19.9,294.6z M36.1,355.7
		c0-4.2-2.2-6.9-5.1-6.3c-3.1,0.6-4.7,3.4-4.2,7.7c0.3,3.1,2.5,5.3,5,5.2C34.3,362.1,36.1,359.5,36.1,355.7z"/>
	<path class="st0" d="M265,305.5c-9.9,11.4-23,16-37.5,17.5c-16,1.7-31.7,0.6-46.5-6.5c-5.2-2.5-9.3-6.4-13.4-10.3
		c-14.8-20-6.3-48.9,16.9-63c23-14,54.7-10.5,73.9,8.3c13.1,12.9,17.4,32.7,10.2,47.7C267.6,301.5,266.2,303.5,265,305.5z
		 M216.5,315c8.1-0.2,16.7-1.4,25.2-4.2c19.1-6.3,26.7-23.3,18.3-41.6c-4-8.7-10.5-15-18.8-19.6c-10.6-5.9-22.4-7.9-33.9-6.7
		c-15.4,1.5-27,10.4-34.3,24.4c-9.3,18-2.2,36.7,16.3,43.1C197.9,313.5,206.7,314.9,216.5,315z"/>
	<path class="st0" d="M273.4,195.8c4.4-0.1,8.3,2.7,8.2,5.7c-0.1,2.5-1.5,4.1-4,4.4c-3.7,0.4-8.2-2.8-8.1-5.7
		C269.5,197.3,271.3,196,273.4,195.8z"/>
	<path class="st0" d="M293.7,150.8c4-0.1,7.7,2.7,7.6,5.6c0,2.6-1.4,4.1-4,4.3c-3.7,0.3-7.7-2.7-7.7-5.6
		C289.7,152.2,291.6,151.2,293.7,150.8z"/>
	<path class="st0" d="M297.6,131.1c0.3-2.2,1.9-3.6,4.6-3.6c3.9,0,7.4,2.8,7.1,5.8c-0.2,2.7-1.8,4.2-4.5,4.1
		C300.7,137.2,297.5,134.5,297.6,131.1z"/>
	<path class="st0" d="M285.2,173.7c3.9,0.1,7.5,2.8,7.2,5.7c-0.3,2.4-1.6,4-4.3,4c-3.9,0-7.8-2.9-7.7-5.8
		C280.6,175.4,282.6,173.7,285.2,173.7z"/>
	<path class="st0" d="M275.2,118.7c3.2,0.1,5.1,2,5.1,4.8c0,2.9-1.6,4.2-4.3,4.2c-3.2,0-5.8-2.3-5.8-4.8
		C270.3,120.5,272.5,118.6,275.2,118.7z"/>
	<path class="st0" d="M266.6,142c3.7,0.1,5.8,2,5.8,4.8s-1.5,4.3-4.2,4.3c-3.4,0-6.1-2.5-5.8-5.2C262.7,143.2,264.6,142.1,266.6,142
		z"/>
	<path class="st0" d="M265.1,196.8c-0.2,2.1-1.7,3.6-4.4,3.6c-3.3,0-5.8-2.2-5.6-4.9c0.3-2.9,2.1-4.2,4.9-4.1
		C263.2,191.5,265.2,193.4,265.1,196.8z"/>
	<path class="st0" d="M279.8,146.2c3.2,0.1,5.5,1.9,5.3,4.7c-0.2,2.6-1.5,4.2-4.4,4.2c-3.5,0-5.6-1.8-5.6-4.7
		C275.1,147.6,276.8,146.2,279.8,146.2z"/>
	<path class="st0" d="M275.9,174.6c-0.3,2.1-1.7,3.7-4.4,3.7c-3.1,0-5.7-2.3-5.7-4.9c0-2.3,2.4-4.3,5-4.1
		C274,169.4,276.1,171.3,275.9,174.6z"/>
	<path class="st0" d="M289,132.1c-3.4,0.1-6-1.9-6-4.7c0-2.8,1.6-4.2,4.3-4.4c3-0.2,5.4,1.7,5.5,4.4
		C292.9,130.3,291.5,131.8,289,132.1z"/>
	<path class="st0" d="M36.1,355.7c0,3.8-1.7,6.4-4.3,6.6c-2.5,0.1-4.7-2.1-5-5.2c-0.5-4.3,1.1-7.1,4.2-7.7
		C33.9,348.8,36.1,351.5,36.1,355.7z"/>
	<path class="st3" d="M216.5,315c-9.8-0.1-18.6-1.5-27.1-4.5c-18.5-6.4-25.6-25.1-16.3-43.1c7.2-14.1,18.8-22.9,34.3-24.4
		c11.5-1.1,23.4,0.8,33.9,6.7c8.2,4.6,14.8,10.9,18.8,19.6c8.4,18.3,0.8,35.3-18.3,41.6C233.3,313.7,224.6,314.8,216.5,315z"/>
</g>
</svg>
