<svg id="Layer_1" data-name="Layer 1" xmlns="http://www.w3.org/2000/svg" viewBox="0 0 384 384"><defs><style>.cls-1{fill:#130f0c;}.cls-2{fill:#e6e6e6;}.cls-3{fill:#db8d33;}.cls-4{fill:#8c6239;}.cls-5{fill:#2fa6dc;}.cls-6{fill:#c9c8c8;}.cls-7{fill:#a57b51;}.cls-8{fill:#c49a6c;}.cls-9{fill:#1d6db0;}</style></defs><path class="cls-1" d="M15.05,327.4c20-67.88-1.75-149.49,8.89-221.21,9.93-20.92,19.31-41.29,16.14-65,8.27-18.27,88.84-2.58,112.45-7.54,16,1.73,3,27.19,8.84,37.68,29.92,54.74,12.4,119.54,16.64,179.55,0,3.31.49,4.61,4.22,4.43,15.22,2,4.33-40.79,7.44-52,22.89-21.23,131.47-1.78,171.87-8.15,6.13,0,8.1,2,8.1,8,.17,25.35,5.13,61.53-27,68.75-3.32.78-3.19,2.63-3.63,5.07a60.68,60.68,0,0,1-23,38c16.87,2.42,41-4.81,53.68,2.75,4.07,15.69-14.12,8-23.47,9.48-10.44,2.7-7.29,24.27-20.37,23.9Q245,351,164.14,351C132.87,343.37,8.67,372.07,15.05,327.4Zm19.33-18.95c32-19.38,19.31-32.61,62.23-39.82,8.19-8.65,16.13-16.27,29.8-13.28,10.43-37.58.06-91.46,3.69-134.29-23.92-9.9-63.25-.18-92.12-3.6C27.5,174.41,38,246.53,34.38,308.45Zm230.34-101c-19.3,2.76-47.88-5.51-62.81,3.14-2.36,43.53-5,111.63,57.41,104.37,72.76,10.12,71-51.48,68.34-104.82C311.6,202.65,284.38,209.87,264.72,207.44ZM212.73,315c-51.43-62.11,14.66-46.13-93.54-47.77-20.15,3,1.92,52.71-.44,68.72,20.29,8.91,52.68.27,76.87,3.25,5-.26-2.09-7.14-2.29-9.81-4-4.53-12.48-.92-18.07-2-9.59,0-9.52,0-9.29-9.71C176.81,310.49,198.36,317.18,212.73,315ZM166,186.29c0-21.92,0-43.85.06-65.77-1.75-6.8-14.86-1.09-20.68-3-2.7-.09-3.45.65-3.43,3.4.11,23,.06,45.93.06,68.89,0,20.77.05,41.55-.06,62.32,1.58,7.2,15,1.24,20.94,3.27C171.59,238.35,163.2,207.69,166,186.29ZM85,105.5c32.89-2.63,47.8,12.56,58.61-26.73,1-2.3,1.27-3.27-2-3.26-30,2.53-65-4.67-92.63,2.69C26.33,121.59,47.86,100.94,85,105.5Zm15.19-42c14.54-2.33,37.18,4.67,47.9-2.72,3.31-21.93-9-13.92-24.69-15.24-22.27,2.55-52.7-5-71.11,2.76,1.58,4.32-3.09,14.73,2.92,15.25C70.2,63.49,85.19,63.53,100.19,63.53ZM92.09,339.1c4.36-1.27,15.64,3.4,14.38-4q-3.59-25.8-7-51.63c-.94-5.56-36.17,4.41-30.36,13C75.53,312.16,68.05,345,92.09,339.1ZM268,327.19c-13.22,3.78-69.56-9.49-57.79,8.95,30.8,8.48,70.28-.08,103.86,3.25,7.68.11,12.07-1.83,14.49-9.1C325.07,322.15,280.54,329.66,268,327.19ZM339.83,260c21.91-4.58,20.78-38.45,15.63-52.51-4.46,1.23-13.88-2.62-15.67,2C339.86,226.32,339.83,243.14,339.83,260ZM58.55,306c-34.31,21.7-48.45,36.71,4.52,33.09C67.42,331.67,58.83,316.34,58.55,306ZM154,84.84c-6.27,14.65-13.77,23.72,7.09,20.66C163.79,101,155.49,91.54,154,84.84Z"/><path class="cls-1" d="M285.42,153.4c16-3.21,43.55,7.61,53.78-6.52,1.57-6.22-2.6-11.32-9.37-11.33-27.3-5.42-76,14.09-91-14.66a21.1,21.1,0,0,1,19.87-27.48c15.54-1.48,41,6.37,44.67-15.22.61-4.93,16.14-4.54,12.09,2.6-4.65,27.27-34.21,25.76-55.77,24.9-12.75-.4-12.79,17.94-.1,17.56,27.14,5.54,78.82-14.78,91.57,16.29,4.13,45.83-77.26,19.1-105.55,25.86-19.24-1.83-14.5,17.36-25,18-7.83-.18-7.83-.06-5.72-7.75C223.5,144.1,261.29,155.45,285.42,153.4Z"/><path class="cls-2" d="M34.38,308.45c3.57-61.88-6.89-134.09,3.59-191,28.84,3.39,68.24-6.29,92.12,3.59-3.62,42.79,6.75,96.76-3.68,134.3-13.72-3-21.58,4.66-29.8,13.28C53.73,275.82,66.37,289.11,34.38,308.45ZM82.19,195.28c31.12.5,31.06-48.09.13-47.92C51.15,146.93,50.82,195.69,82.19,195.28Zm0,35.89c-9.41,1.78-27.45-6-24.18,9.17,7.16,7.76,27.57.66,39,3,9.36,0,9.28,0,9.2-9.39C103.12,227.37,89.1,232.93,82.24,231.17Zm-.18-11.81c8.92-1.92,28,6.42,24.19-8.83.33-2.64-.69-3.29-3.26-3.26-11.87.14-23.74.06-35.62.06-9.61,0-9.54,0-9.32,9.58C61.73,222.86,75.13,217.71,82.06,219.36Z"/><path class="cls-3" d="M264.72,207.44c19.65,2.41,46.9-4.79,62.95,2.69,2.66,53.34,4.41,115-68.36,104.82-62.45,7.21-59.76-60.81-57.39-104.36C216.86,201.93,245.41,210.22,264.72,207.44Zm-3.06,89.73c.91-13-36.51,1-35.87-39.05.76-4.45-11.41-3.88-12-1C206.05,284.32,256.41,318.7,261.66,297.17ZM213.81,237c0,6.41,0,6.41,6.17,6.41,5.75,0,5.75,0,5.75-5.85,0-6.35,0-6.35-6.22-6.35C213.81,231.16,213.81,231.16,213.81,237Z"/><path class="cls-4" d="M212.73,315c-14.35,2.23-35.94-4.46-46.76,2.64-.23,9.72-.3,9.72,9.28,9.72,5.61,1.12,14.12-2.51,18.08,2,.26,2.72,7.25,9.49,2.3,9.8-24.18-3-56.61,5.67-76.88-3.23,2.3-16.11-19.64-65.55.43-68.73C226.53,268.88,161.55,252.6,212.73,315Z"/><path class="cls-5" d="M166,186.29c-2.82,21.38,5.56,52.08-3.11,69.07-5.9-1.93-19.35,3.83-20.94-3.27.11-20.77.06-41.55.06-62.32,3-20.91-5.91-56.89,3.37-72.29,5.82,1.85,18.92-3.66,20.68,3C166,142.44,166,164.37,166,186.29Z"/><path class="cls-6" d="M85,105.5c-37.51-4.54-58.56,16-36-27.29,27.6-7.37,62.63-.17,92.62-2.7,3.23,0,3,1,2,3.26C132.78,118.08,117.9,102.86,85,105.5Z"/><path class="cls-5" d="M100.19,63.53C85.66,61.18,63,68.23,52.3,60.79c1.52-4.33-3.21-15.41,3.28-15.25q33.92.08,67.82,0c15.61,1.32,28-6.69,24.68,15.24C137.37,68.2,114.73,61.19,100.19,63.53Z"/><path class="cls-7" d="M92.09,339.1c-24,5.88-16.57-27-23-42.63-5.74-8.74,29.33-18.43,30.37-13q3.44,25.83,7,51.64C107.75,342.53,96.44,337.79,92.09,339.1Z"/><path class="cls-3" d="M268,327.19c12.93,2.5,56.58-5.08,60.57,3.09-2.43,7.28-6.82,9.22-14.5,9.1-33.56-3.32-73.08,5.24-103.86-3.23C198.29,317.71,254.85,331,268,327.19Z"/><path class="cls-8" d="M58.55,306c.28,10.29,8.87,25.65,4.52,33.09C10,342.75,24.35,327.67,58.55,306Z"/><path class="cls-9" d="M154,84.84c1.45,6.68,9.75,16.18,7.1,20.66C140.27,108.57,147.77,99.47,154,84.84Z"/><path class="cls-1" d="M82.19,195.28c-31.37.41-31-48.35.14-47.92C113.25,147.19,113.31,195.78,82.19,195.28ZM94,171.42c.38-15.49-24.06-15.56-23.69,0C70,187,94.26,186.88,94,171.42Z"/><path class="cls-1" d="M82.24,231.17c6.88,1.75,20.86-3.79,24,2.77,3.11,18.13-33.45,6.08-45.1,9.44-2.36,0-3.36-.54-3.12-3C54.79,225.13,72.83,233,82.24,231.17Z"/><path class="cls-1" d="M82.06,219.36c-7-1.65-20.31,3.5-24-2.45-.22-9.58-.29-9.58,9.32-9.58,11.88,0,23.75.08,35.62-.06,2.57,0,3.59.62,3.26,3.26C110.06,225.78,91,217.44,82.06,219.36Z"/><path class="cls-1" d="M261.66,297.17c-5.25,21.53-55.61-12.86-47.87-40.08.49-2.95,12.84-3.32,12,1C225.28,298.34,262.34,284.05,261.66,297.17Z"/><path class="cls-1" d="M213.81,237c0-5.79,0-5.79,5.7-5.79,6.22,0,6.22,0,6.22,6.35,0,5.85,0,5.85-5.75,5.85C213.81,243.36,213.81,243.36,213.81,237Z"/><path class="cls-5" d="M94,171.42c.22,15.46-24,15.53-23.69,0C70,155.86,94.42,155.93,94,171.42Z"/></svg>