<svg id="Layer_1" data-name="Layer 1" xmlns="http://www.w3.org/2000/svg" viewBox="0 0 384 384"><defs><style>.cls-1{fill:#141210;}.cls-2{fill:#efeff2;}.cls-3{fill:#ecc585;}.cls-4{fill:#e0dde1;}.cls-5{fill:#e8b76b;}.cls-6{fill:#a6c78b;}.cls-7{fill:#f1d3a4;}.cls-8{fill:#d47a86;}.cls-9{fill:#8eba75;}.cls-10{fill:#c8c1c9;}.cls-11{fill:#e4aa4e;}</style></defs><path class="cls-1" d="M367.74,260.15C359.06,289.3,341,277.59,332,295.66c-19.46,29.86-205.24,6.86-253.79,13.74-23,.77-22.45-17.86-36.6-24.2-13.75-2.85-24.49-16-24.76-29.44-1-18.9,18.8-16.27,32.14-16.14-5.47-10.21-4.5-19.41,3.2-27.8-9-11.64-9-21.65,0-31.43-19.92-32.26,7.63-27.45,15.87-45.33,5.82-5.31,7-11.09,6-18.58,9.1-14.14,14.85-30.91,34.11-36.25,6.9-1.91,12.92-8.15,20.81-5.63,6.8,2.85,13.28,2,20.27,1.85,10.61-1,13.31,12.83,24.83,12.18,11-.61,17.29,7.88,19.72,18.42a86.8,86.8,0,0,1,1.28,9.6c19.83,0,39.85.15,59.86-.08,21.57-3.32,53.91-3.72,45.43,27.74,24.18-6,51.52,8.18,31.92,36,9,10.17,9,20.85-.12,31.51,7.76,8.8,8.71,16.1,3.56,27.54C349.63,239.19,371.62,237.77,367.74,260.15Zm-61-73.94-8.47.48C317.25,236.9,352.16,177.85,306.75,186.21Zm-190.51,53.3h20.27c-3.85-6.29-4.43-12.49-2.33-19.67-22.79.55-44.51-1.88-67.11-3-6.79-.36-10.52,3.82-11,10.12C56.31,247.93,101.75,237,116.24,239.51Zm1.35-30.15,20.78.92c-5.46-6.72-6.31-13.57-4.59-21.31C127,189,77.53,191.18,99,177.8c12.88.19,25.88.26,38.71.21-4.4-5.42-5.75-12-4.19-19.48-21.3-1.44-42.06-2.84-63.24-4.74-7.8-.73-13.53,1.63-14.17,9.78S61,174.76,68.7,175.49c4.26.39,10.6-1.74,11.56,5.81-1.93,7.93-7.93,4.54-12.5,4.21-7-.5-10.75,2.93-11.63,9.24C52.49,214.94,104.17,205.59,117.59,209.36Zm3.28-124c-5.05,4.88-13.81,3.87-17.68,8.1-6.41,7-15.72,15-17.1,22.6-1.83,10.14-1.7,19.66-10.26,26.81,4.83,3.22,15,1.2,21.8,2.58-10.64-52,60.26-20,86.71-28.53.17-7.54-.61-17.13-9.05-17.28C150,95.38,155.32,82.53,120.87,85.36ZM280,239.49c5.91-.25,13.8,2.87,17.31-1.14,6.09-6.94,9.72-17.1,5.88-26-3.15-7.34-12.1-2.49-18.4-3.45-23.39-.05-46.79.41-70.15-.35-11.36-.38-14.63,4.06-11.94,14.18,1.62,6.1,1.61,16,8.2,16.37C233.87,240.42,257,239.53,280,239.49Zm-9.64-93.23c6.87-1.36,16.86,2.3,20.12-5.81,5.86-15.36-13.1-17-23.07-14-49.29,3-98.76,3.78-148-1.21-7.46-.73-12.55,2.52-13.19,10-2.3,16.05,31.87,15.35,41.33,9.2C187.85,143.19,229.53,149.7,270.37,146.26Zm37.05,140c-7.6-1.86-22.43,4.66-24.77-5.59.7-3.43,2.76-4.89,6.3-4.88,13.46.05,26.93-.06,40.4-.11,11.09,1,20.48-1.71,25.88-12.37,10.16-17.25-11.06-12.66-21.41-13.37-101.3.49-202.9-1-304,.53-9.87,8.65,9,27.66,20.91,25.35,265.36-5.66,306.14,15.07,8.43,10.33,8.57,26.64,159.62,6.95,194.56,12.65,20.22-3.38,62.92,9.48,71.64-12.54Zm-.68-131.62a926.83,926.83,0,0,1-152.15-1.08c-12.92-2.33-15.8,20.46-2.73,21.1,33.41-1.15,78.07,13.64,107.44-4.08C274.67,161,289,182,305.38,175.72c8.6-1.46,22.79,1.73,23.11-10.54C329.87,152.21,315.64,153.34,306.74,154.67Zm-101.45,34c-13.73,2.09-61-13.07-61.83,6.32-.54,6.37,2.71,10.89,9.07,11.57,13.18.68,27.39,3.58,40.27,2.18C197.08,202,204.28,197.21,205.29,188.68Zm-8.36,51.56c-7.47-31.73-7.08-17.08-41.68-23-14.06-2.93-16.34,20.53-2.58,20.84C167.3,239.21,182,239.56,196.93,240.24Zm95.28-41.85c-4.6-15.14-19.6-24.15-30.51-17.38-15.44,13.65-45,4.53-49.08,17.38Zm17.13,40.85c33.79,1.57,14.82-32.7,5.26-19.44A70,70,0,0,1,309.34,239.24Z"/><path class="cls-2" d="M30.56,250.15c101.09-.49,202.18,0,303.26-.18,12.63.92.38,20.29-4.47,25.74-89.27,2.6-183.28-1.12-278.67.15-12.43,0-21.51-7.43-23.32-19.13C26.74,254,26.85,251.06,30.56,250.15Z"/><path class="cls-3" d="M305.38,175.72c-12.23,4.71-21.36-5-32.15-6.92-20.71-2-20.54,15-57.16,9.51-14.08-3.69-76.49,5-72.65-14.51.45-6.69,4.36-10.81,11.17-10.21a897.33,897.33,0,0,0,116.28,3C287.55,156.46,323.23,147.22,305.38,175.72Z"/><path class="cls-4" d="M269.11,280.71h13.54c2.37,10.26,17.12,3.73,24.77,5.59-7.79,21.72-35.29,9.43-53.75,12.54-35.27-5.7-185.89,14-194.56-12.65q101.22,0,202.42,0C265.62,286.23,268.45,285.12,269.11,280.71Z"/><path class="cls-5" d="M270.37,146.26c-40.83,3.44-82.52-3.07-122.77-1.88-9.67,6.16-43.42,6.91-41.33-9.18.64-7.49,5.73-10.74,13.19-10a826,826,0,0,0,102.18,3.32C238.55,130.7,282.9,114.83,270.37,146.26Z"/><path class="cls-4" d="M280,239.49c-23,0-46.14.93-69.1-.39-6.59-.38-6.58-10.27-8.2-16.37-2.69-10.12.58-14.56,11.94-14.18,23.36.76,46.76.3,70.15.35C287.18,219.72,284.17,229.69,280,239.49Z"/><path class="cls-6" d="M165.52,117.62c-25.13.84-78.78-15.81-67.89,27.83-6.78-1.37-17,.64-21.8-2.57,8.56-7.16,8.43-16.68,10.26-26.82,1.38-7.61,10.69-15.59,17.1-22.6,3.87-4.23,12.63-3.22,17.68-8.1,9.59-.46,12.56,11.17,21.78,11C157,95.74,164.8,103,165.52,117.62Z"/><path class="cls-5" d="M112.53,178c-5.87.94-17.23-3.75-18.44,4.73-19.87.57-10.18-8.5-25.39-7.26-7.71-.72-13.19-3.7-12.55-11.91.71-19.59,47.41-4,61.47-6.1-4.06,6.59-5.15,13.29-.17,20.3Z"/><path class="cls-7" d="M80.26,181.3c18.13-.42,10.65,5.75,21.38,6.9,5.34.15,10.66.5,16,.77-4,6.79-5.11,13.58,0,20.39-13.41-3.77-65.07,5.57-61.46-14.61.88-6.31,4.66-9.74,11.63-9.24C72.33,185.84,78.33,189.23,80.26,181.3Z"/><path class="cls-5" d="M116.24,239.51C101.76,237,56.34,247.93,56.09,227c.46-6.31,4.19-10.49,11-10.13,16.82,1.54,34.06.75,50.57,4.06C113.2,226.93,113.28,233.14,116.24,239.51Z"/><path class="cls-5" d="M205.29,188.68c-1,8.53-8.21,13.36-12.49,20.07-12.89,1.4-27.09-1.5-40.27-2.18-6.36-.68-9.61-5.2-9.07-11.57C144.22,175.63,191.6,190.76,205.29,188.68Z"/><path class="cls-3" d="M196.93,240.24c-14.94-.68-29.63-1-44.26-2.14-13.76-.31-11.48-23.77,2.58-20.84C189.72,223.17,189.47,208.47,196.93,240.24Z"/><path class="cls-8" d="M292.21,198.39H212.62c3.75-12.72,33.91-3.86,49.08-17.38C272.61,174.24,287.61,183.25,292.21,198.39Z"/><path class="cls-9" d="M165.52,117.62C164.8,103,157,95.74,142.65,96.41c-9.22.13-12.19-11.52-21.78-11,34.32-2.84,29.15,10,54.42,14.28,8.44.15,9.22,9.74,9.05,17.28C179.59,120.21,171.39,116.94,165.52,117.62Z"/><path class="cls-10" d="M280,239.49c4.16-9.8,7.17-19.77,4.79-30.59,6.3,1,15.25-3.89,18.4,3.45,3.84,8.9.21,19.06-5.88,26C293.81,242.36,285.92,239.24,280,239.49Z"/><path class="cls-4" d="M329.35,275.71c5.91-7.51,11.55-15.11,8.91-25.6C375.32,244.21,352,280.58,329.35,275.71Z"/><path class="cls-11" d="M112.53,178l4.92-.24c-9.22-15.46.66-23.33,16.11-19.24-1.56,7.51-.21,14.06,4.19,19.48Z"/><path class="cls-3" d="M117.59,209.36c-9.47-15.12.64-23.4,16.19-20.39-1.72,7.74-.87,14.59,4.59,21.31Z"/><path class="cls-5" d="M305.38,175.72C311,169,311,162,306.74,154.67c8.87-1.33,23.17-2.46,21.75,10.51C328.18,177.45,314,174.26,305.38,175.72Z"/><path class="cls-11" d="M270.37,146.26c3.29-7.25,3.41-14-2.95-19.86,9.92-2.93,29-1.31,23.07,14C287.24,148.56,277.23,144.89,270.37,146.26Z"/><path class="cls-11" d="M306.75,186.21c36.55-9.56,20.22,36.42,2,15.79C310.28,196.46,309.88,191.16,306.75,186.21Z"/><path class="cls-11" d="M116.24,239.51c-3-6.37-3-12.58,1.4-18.56l-3.43-1.11h20c-2.1,7.18-1.52,13.38,2.33,19.67Z"/><path class="cls-5" d="M309.34,239.24a70,70,0,0,0,5.26-19.44C324.18,206.54,343.1,240.82,309.34,239.24Z"/><path class="cls-10" d="M299.9,298.56c4.69-12.77,12.88-13.44,25.41-12.27C320.16,297.7,310.91,300,299.9,298.56Z"/><path class="cls-5" d="M306.75,186.21c3.13,4.95,3.53,10.25,2,15.79-7.58-2-6.37-9.92-10.46-15.31Z"/></svg>