<svg id="Layer_2" data-name="Layer 2" xmlns="http://www.w3.org/2000/svg" viewBox="0 0 384 384"><path d="M367.74,260.15C359.06,289.3,341,277.59,332,295.66c-19.46,29.86-205.24,6.86-253.79,13.74-23,.77-22.45-17.86-36.6-24.2-13.75-2.85-24.49-16-24.76-29.44-1-18.9,18.8-16.27,32.14-16.14-5.47-10.21-4.5-19.41,3.2-27.8-9-11.64-9-21.65,0-31.43-19.92-32.26,7.63-27.45,15.87-45.33,5.82-5.31,7-11.09,6-18.58,9.1-14.14,14.85-30.91,34.11-36.25,6.9-1.91,12.92-8.15,20.81-5.63,6.8,2.85,13.28,2,20.27,1.85,10.61-1,13.31,12.83,24.83,12.18,11-.61,17.29,7.88,19.72,18.42a86.8,86.8,0,0,1,1.28,9.6c19.83,0,39.85.15,59.86-.08,21.57-3.32,53.91-3.72,45.43,27.74,24.18-6,51.52,8.18,31.92,36,9,10.17,9,20.85-.12,31.51,7.76,8.8,8.71,16.1,3.56,27.54C349.63,239.19,371.62,237.77,367.74,260.15Zm-61-73.94-8.47.48C317.25,236.9,352.16,177.85,306.75,186.21Zm-190.51,53.3h20.27c-3.85-6.29-4.43-12.49-2.33-19.67-22.79.55-44.51-1.88-67.11-3-6.79-.36-10.52,3.82-11,10.12C56.31,247.93,101.75,237,116.24,239.51Zm1.35-30.15,20.78.92c-5.46-6.72-6.31-13.57-4.59-21.31C127,189,77.53,191.18,99,177.8c12.88.19,25.88.26,38.71.21-4.4-5.42-5.75-12-4.19-19.48-21.3-1.44-42.06-2.84-63.24-4.74-7.8-.73-13.53,1.63-14.17,9.78S61,174.76,68.7,175.49c4.26.39,10.6-1.74,11.56,5.81-1.93,7.93-7.93,4.54-12.5,4.21-7-.5-10.75,2.93-11.63,9.24C52.49,214.94,104.17,205.59,117.59,209.36Zm3.28-124c-5.05,4.88-13.81,3.87-17.68,8.1-6.41,7-15.72,15-17.1,22.6-1.83,10.14-1.7,19.66-10.26,26.81,4.83,3.22,15,1.2,21.8,2.58-10.64-52,60.26-20,86.71-28.53.17-7.54-.61-17.13-9.05-17.28C150,95.38,155.32,82.53,120.87,85.36ZM280,239.49c5.91-.25,13.8,2.87,17.31-1.14,6.09-6.94,9.72-17.1,5.88-26-3.15-7.34-12.1-2.49-18.4-3.45-23.39-.05-46.79.41-70.15-.35-11.36-.38-14.63,4.06-11.94,14.18,1.62,6.1,1.61,16,8.2,16.37C233.87,240.42,257,239.53,280,239.49Zm-9.64-93.23c6.87-1.36,16.86,2.3,20.12-5.81,5.86-15.36-13.1-17-23.07-14-49.29,3-98.76,3.78-148-1.21-7.46-.73-12.55,2.52-13.19,10-2.3,16.05,31.87,15.35,41.33,9.2C187.85,143.19,229.53,149.7,270.37,146.26Zm37.05,140c-7.6-1.86-22.43,4.66-24.77-5.59.7-3.43,2.76-4.89,6.3-4.88,13.46.05,26.93-.06,40.4-.11,11.09,1,20.48-1.71,25.88-12.37,10.16-17.25-11.06-12.66-21.41-13.37-101.3.49-202.9-1-304,.53-9.87,8.65,9,27.66,20.91,25.35,265.36-5.66,306.14,15.07,8.43,10.33,8.57,26.64,159.62,6.95,194.56,12.65,20.22-3.38,62.92,9.48,71.64-12.54Zm-.68-131.62a926.83,926.83,0,0,1-152.15-1.08c-12.92-2.33-15.8,20.46-2.73,21.1,33.41-1.15,78.07,13.64,107.44-4.08C274.67,161,289,182,305.38,175.72c8.6-1.46,22.79,1.73,23.11-10.54C329.87,152.21,315.64,153.34,306.74,154.67Zm-101.45,34c-13.73,2.09-61-13.07-61.83,6.32-.54,6.37,2.71,10.89,9.07,11.57,13.18.68,27.39,3.58,40.27,2.18C197.08,202,204.28,197.21,205.29,188.68Zm-8.36,51.56c-7.47-31.73-7.08-17.08-41.68-23-14.06-2.93-16.34,20.53-2.58,20.84C167.3,239.21,182,239.56,196.93,240.24Zm95.28-41.85c-4.6-15.14-19.6-24.15-30.51-17.38-15.44,13.65-45,4.53-49.08,17.38Zm17.13,40.85c33.79,1.57,14.82-32.7,5.26-19.44A70,70,0,0,1,309.34,239.24Z"/></svg>