<svg id="Layer_1" data-name="Layer 1" xmlns="http://www.w3.org/2000/svg" viewBox="0 0 384 384"><defs><style>.cls-1{fill:#130d0d;}.cls-2{fill:#ebd3b7;}.cls-3{fill:#e1aaac;}.cls-4{fill:#e6b6b9;}.cls-5{fill:#cc554b;}</style></defs><path class="cls-1" d="M353.18,171.89c.32,248.51,36,167.92-319.13,181.28-2.67-2.09-3.22-4.86-3.21-8.17q.12-83.37,0-166.75c0-4,1.38-6.3,4.74-8.31,59.63-35.69,119.28-71.33,178.67-107.4,18-12.79,38.41,7.2,55.76-7.59,1.72-1.54,4.93-2,7.44-2,18.21-1.46,17.42-22.32,49-22.17,3,20.93-12.56,3.19-28.65,24.34,11.13,4.85,21.29,13.25,21.15,24.5-.47,20.09,11.77,32.72,20.41,48.18C346.76,141.65,350.5,156.6,353.18,171.89ZM42.24,310.07c85.69,0,171.39.2,257.08.05,17.63,0,8.88-28.44,11-40,0-2.53-.93-2.88-3.1-2.86q-132.48.29-265,.24C41.48,281.71,41.59,295.88,42.24,310.07ZM226,213.58l-183.78,0c-.72,14.21-.68,28.4,0,42.61,88.16-2.34,183.06,4.46,268-2.14-1.88-11.57,6.59-40.64-11-40.5C274.84,213.37,250.43,213.55,226,213.58ZM41.7,202.74q128.09,0,256.11,0c14.07,0,23.2,9.12,23.22,23.2q0,35.4,0,70.8c0,15.52-8.82,24.31-24.38,24.31L41.78,321v21.43c347.87-12.37,297.88,61.27,300.67-160.94H41.7ZM250.36,71.47c-8.93-1-18.65-5.83-27.11-1.26-56,33.19-111.31,66.54-167.09,100.15H341.62a117.3,117.3,0,0,0-26.78-59.59C286.08,149.16,229.6,115.43,250.36,71.47ZM280,63.9c-29.32,1.83-31.47,47.77-1.3,52.56,32.3,5.61,43.84-41.66,13.15-51.54-4.13,5.1,1.11,19.5-14.18,13.6C278.43,73.87,279.23,68.88,280,63.9Z"/><path class="cls-2" d="M41.7,202.74V181.52H342.45c-2.73,222.23,47,148.57-300.67,160.94V321l254.88,0c15.56,0,24.37-8.79,24.38-24.31q0-35.4,0-70.8c0-14.08-9.15-23.2-23.22-23.2Q169.74,202.72,41.7,202.74Z"/><path class="cls-3" d="M250.36,71.47c-20.76,44,35.73,77.68,64.48,39.3a117.3,117.3,0,0,1,26.78,59.59H56.16c55.77-33.61,111.14-67,167.09-100.15C231.72,65.63,241.41,70.46,250.36,71.47ZM178,141.67l15.91,16,6.71-6.48-15.94-16Zm-14.46-5.13,15.93-16-7.22-7.17-15.83,15.68ZM244,157.93l16-15.77-7-7.2-16,15.77Zm68.14-22.75-15.53,15,6.58,7.63c5.41-5.34,10.69-10.53,16-15.8Zm-96.69-47.1,15.64,15.69,7.36-6.6-15.84-16Zm-89.81,69.7L141.68,142l-6.89-7.24c-5.45,5.43-10.81,10.78-16,15.9Zm79-28.45c2.43,2.4,4.88,4.82,7.28,7.21l15.83-15.93-7.2-7.31Z"/><path class="cls-3" d="M163.08,267.5q72.06-.15,144.12-.22c2.17,0,3.14.33,3.1,2.86-.16,9.34,0,18.67-.08,28-.07,7.16-3.58,12-10.9,12-61.15.12-122.3,0-183.46,0C131.3,295.55,148.91,283.2,163.08,267.5Z"/><path class="cls-4" d="M178.81,256.21H42.24V213.6l183.78,0C210.63,228.2,193.54,241,178.81,256.21Z"/><path class="cls-3" d="M178.81,256.21c14.73-15.24,31.82-28,47.21-42.63,24.41,0,48.82-.21,73.23,0,17.6-.15,9.13,28.94,11,40.49,0,1.43-.1,2.34-2,2.34Q243.55,256.25,178.81,256.21Z"/><path class="cls-4" d="M163.08,267.5c-14.17,15.7-31.78,28.05-47.22,42.58H42.24V267.52Z"/><path class="cls-5" d="M280,63.9c-.79,5-1.59,10-2.33,14.62,15.29,5.9,10.05-8.5,14.18-13.6,30.69,9.88,19.15,57.15-13.15,51.54C248.55,111.67,250.7,65.73,280,63.9Z"/><path class="cls-3" d="M42.24,213.6v42.61C41.56,242,41.52,227.81,42.24,213.6Z"/><path class="cls-3" d="M42.24,267.52v42.55C41.59,295.88,41.48,281.71,42.24,267.52Z"/><path class="cls-1" d="M178,141.67l6.68-6.51,15.94,16-6.71,6.48Z"/><path class="cls-1" d="M163.56,136.54l-7.12-7.46,15.83-15.68,7.22,7.17Z"/><path class="cls-1" d="M244,157.93l-7-7.2,16-15.77,7,7.2Z"/><path class="cls-1" d="M312.1,135.18l7.09,6.84c-5.35,5.27-10.63,10.46-16,15.8l-6.58-7.63Z"/><path class="cls-1" d="M215.41,88.08l7.16-6.9,15.84,16-7.36,6.6Z"/><path class="cls-1" d="M125.6,157.78l-6.77-7.09c5.15-5.12,10.51-10.47,16-15.9l6.89,7.24Z"/><path class="cls-1" d="M204.58,129.33l15.91-16,7.2,7.31-15.83,15.93C209.46,134.15,207,131.73,204.58,129.33Z"/></svg>