<svg id="Layer_2" data-name="Layer 2" xmlns="http://www.w3.org/2000/svg" viewBox="0 0 384 384"><path d="M192,72.28c-2-13.08,42.71-29.06,54.49-26.18,69.85,6.75,103.92,93.85,100.1,155.74-8.38,117.5-165.47,186.7-251.44,99.75C63.4,273.75,62.25,239.15,61.47,200.08c-8.58-19-17-38.14-21.95-58.52-2.29-8.81-4.74-25.1,7.93-26.2,2.35-.29,1.85-1.55,1.94-2.86-.27-18.34,8.91-46.32,29.89-26.19C84.15,91,84.15,91,89.93,87.89c50.68-21.69,24.58,78.2,19.39,101.22-.73,14.38,26.72,35.41,39.65,40.5,30,11.93,70-11.83,59.35-44.51-6.63-35.9-54.53-60.25-32-99.08,1.69-3,3.75-5,7.46-4.3,11.5,6.83-16.11,21.44,6.32,50.3,1.42,2,3,2.21,5.13,1.93,23.68-2.42,47.68-7.18,67.14-21.86,8.38-6.33,15.46-13.81,19.21-23.91,1.86-4.19,7.11-13.19,2.71-16.52-14.13-10.81-32.1-17.95-50-13.93C222,59,211.37,66,201.68,73.17,197.3,76.48,195.6,76.31,192,72.28ZM85.66,246.42c6.79-1.89,37.18-19.51,30-27.53a75.54,75.54,0,0,1-13.45-16.49c-2.13-3.57-4.75-4.51-8.44-3.85-6.34,1.42-18.74,3.86-20.58,11.09a110.42,110.42,0,0,0,.89,31.49C75.88,251.51,76.37,251.79,85.66,246.42Zm4,10.25c-3.32,2.26-11.87,2-8.23,7.7a104.59,104.59,0,0,0,22.3,31.07c7.83,7.47,7.8,7.5,14.23-1a151.39,151.39,0,0,0,21.25-36.2c8.39-23.87,5.87-16.1-11.41-28.61-1.41-1.1-2.19-1-3.26.61C116.22,242.68,102.38,249.72,89.62,256.67ZM194,315.75c4.23-25.23-4-49.58-15.53-71.65-.88-1.67-1.86-2-3.73-1.69a49.71,49.71,0,0,1-18.28,0c-1.88-.36-2.32.07-2.66,2-4.21,22.92-17,43.36-31.3,61.25-2.36,2.2-1.91,3.28.74,4.88a132.86,132.86,0,0,0,58.28,18.89c9.75.81,7.84,2.53,11.09-7.84C193.16,319.65,193.5,317.68,194,315.75Zm-117.1-123c5.88-2.1,11.73-4.54,18.08-4.45,3.19,0,4.29-.94,5-4,4.42-19.54,8.34-39.16,9.93-59.16.21-8.84,2.6-35.21-12.52-29.16-6.57,1.41-12.69,13.63-18.7,5.49C75.07,97.72,66.27,83.54,62.93,94c-4.46,10.37-1.06,22-4.31,32.3-4.17,3.95-10.67-4-10.33,2.47,2,21.55,12,41.42,20.05,61.21C71,196,71,196,76.86,192.71Zm207.36,86.18c-28.46-9.77-51.91-29.89-72-51.73-2-2.16-3.1-2.35-5.31-.23A50,50,0,0,1,191.24,237c-3.16,1.31-3.68,2.45-2,5.68,14,26.73,21.61,57.47,11.94,87.12,39.61-2.42,71.63-19,98.12-47.93Zm9.1-8.9c6.55.84,14.11,3.25,18.49-3.63,13.72-19.88,22.4-41.6,24.47-65.72.62-7.23.15-14.56.1-21.84,0-2.76-.45-4.65-3.82-2.16-32.22,19-71.31,20.51-107.72,22.59-3.13.12-5.29,0-5.23,4.28.82,5.07-6,10.63-1.47,15C239.23,240.14,262.54,263.85,293.32,270ZM288.6,98.16c-18.28,30.54-54.5,42.23-88,45.7,6.92,13.47,16.52,26.68,18.65,42.64.44,2.54,2,2.56,4,2.51,22.22-.67,44.31-2.6,66.08-7.27,10.36-2.23,44-10.33,44.16-22.71-6.83-28.13-18.26-55.54-38.12-76.95A81.66,81.66,0,0,1,288.6,98.16Z"/></svg>