<svg id="Layer_1" data-name="Layer 1" xmlns="http://www.w3.org/2000/svg" viewBox="0 0 384 384"><defs><style>.cls-1{fill:#e5efee;}.cls-2{fill:#502821;}.cls-3{fill:#d9be6f;}.cls-4{fill:#eec75c;}.cls-5{fill:#d16a4e;}</style></defs><path class="cls-1" d="M89.71,108.71c18.88-25.11,43.39-42,73.72-50.3,1,6-3.18,18.07,5.69,18.87,10.42-.31,4.59-14.61,5.22-21.21,105.26-22.67,196,92.94,149.1,190-19.83-7.82-39.71-15.55-59.49-23.48-14.24-5.7-28.92-16.53-38.9,5.55-64.38-38.36-30.21-39.65-104.27,45.83a79,79,0,0,0-38.38-3.41V232.35c46.68-5.4,61.14-53.67,45.17-92.3C118.64,110.71,119.31,110.51,89.71,108.71Zm129.86,80.12c9.15-5.94,11-19.4,6.27-28.84-3.18-6.21-2.61-11.19,1.89-16.2,6.3-6.09-4.47-14.56-9.24-7.41-6.54,7.94-9.56,16.57-4.28,26.37C222,172.91,204.47,185,219.57,188.83Zm38-37.4c-12.75-31.37,6.95-26.86-2.72-36.1-2.25-1.56-5.1-1-7.06,1.24-6.82,7.86-10.35,16.44-5.16,26.58,7.89,11.11-7.38,20.77,2.56,25.56C255.11,172,254.84,157.57,257.6,151.43Zm29.58-17.66c-9.45-.24-16.31,16.93-11.67,26.91,3,6.46,4,12.47.31,18.95-1.84,3.22-.92,6.39,2.45,8.09C289.93,192.28,293,167,288,160.12c-3.27-6.27-2.52-11.38,2-16.65A6.38,6.38,0,0,0,287.18,133.77ZM163.48,101c.51,4.53-2,11.47,6,11.73,6.28.2,6.19-5.48,5.8-10-.45-5.08,2.78-12.91-6-13.22C161.94,89.26,163.8,96.08,163.48,101Zm-12-11.71c4.77-.57,11.6,1.74,11.83-6.25.17-5.71-4.92-6.2-9.26-5.53-5.13.8-13.52-3.67-13.89,6C139.85,90.94,146.85,88.71,151.45,89.31Zm35.69-11.9c-4.2.74-11.31-2.35-11.52,5.91-.18,6.84,5.81,6.07,10.32,5.82,5-.29,12.59,2.5,12.87-5.91C199,76,192.29,77.66,187.14,77.41Z"/><path class="cls-2" d="M89.71,108.71c29.6,1.8,28.93,2,37.86,31.34,16,38.61,1.49,86.93-45.17,92.3v38.24A79,79,0,0,1,120.78,274c74.1-85.51,39.87-84.17,104.27-45.83,10-22.08,24.66-11.25,38.9-5.55,19.78,7.93,39.66,15.66,59.49,23.48,16.58,3.14,11.72,16.13,12.09,26.59.26,7.06.05,14.14.05,21.37,18.12,4.33,52.43,22.38,26.57,40.85-64.81,37.64-272.06,36.89-337.78.35C-4.24,314.74,39.22,295.51,55,293c21.2-18.45,14.1-40.06,15.42-60.18-35.63-2.6-65-40.24-48.68-84.58C33.9,103.3,47.92,109,89.71,108.71ZM225.64,326.53c-12.08,37.23-58.75,14.33-85.94,14.41-13.8,0-24.19-11-36.6-15.14-15-5-29.87-8.71-40.06-22.65-113.48,28.73,81.61,48.68,108.48,46.6,30.19,2,176.69-1.87,186.59-29.42-.54-9-14.95-10.67-23.33-13.12,6.09,20-6,19.84-20.14,19.52C285.14,326.07,255.61,326.53,225.64,326.53Zm97.72-64.64H299.85c1.23,13.19-1.92,23-17.42,23.36-.61,10.92-5.3,18.52-17.05,17.15-19.84-2.88-11.17-26.71-13-40.57H211c1.64,16.76-7.66,45.68,13,52.25,33,1.08,66.12.59,99.36.59ZM110,121.09H43.42c-4.4,18.32-14.3,35.06-14.77,54.59,36.45,15,59.76-16.45,89.75-23.39C115.48,141.41,112.8,131.4,110,121.09Zm88.55,175.47c3.7-21.09-9.34-46,18-59.67l-34-21.24-50.32,63C151.56,296.47,177.54,286.88,198.58,296.56ZM32,189.32c17.58,55,103.65,30,88.92-25.54C91.49,172.8,67.44,200.16,32,189.32Zm157.1,146.59c10.93,1,34-5.21,20.62-18.64-11.12-12.46-40.85-18.48-56.14-11.48-8.12,3.71-9.43,9.12-3.08,15.45C161.35,332.09,175.22,335.33,189.06,335.91Zm29.65-86.44c50.14,2.79,46-13.68,45.62,36.72,0,2.12,0,4.4,2.77,4.49,6.07.34,2.19-16.25,3.29-20.63-.4-6.72,10.23-7.95,11.38-1.3.55,2.17.83,4.7,3.83,4.15,8.13-4.69-6.43-23.21,12.24-23.93-18.78-7.53-36.41-14.64-54.1-21.6C238.35,227.33,225.41,244.15,218.71,249.47Zm-98.09,37c-14.52-5-28.17-7.39-42-2-5.28,2.07-9.39,5.78-5.44,12,5.54,8.79,14.52,12.42,24.33,15.34C96.45,295.53,107.49,290.63,120.62,286.47Zm21.84,12c-47.26-5.77-40.23,23.8-.72,31.18C133,318.8,131.71,308.63,142.46,298.43Z"/><path class="cls-2" d="M359.48,110c-.8,27.61-43,27.21-41.68-.33C317.23,82.16,359.16,82.92,359.48,110Zm-12.29,0c.13-11.65-17.93-11.43-17.47-.12C328.91,121.3,347.5,121.45,347.19,110Z"/><path class="cls-2" d="M174.34,56.07c.31,5.13.84,10.26.86,15.39.38,8.05-12.42,7.53-11.69-.54C162.8,63.47,163.08,46.9,174.34,56.07Z"/><path class="cls-2" d="M90.37,30.55c-.14,7.92-12.91,8.42-12.77.13C77,22,90.25,22.1,90.37,30.55Z"/><path class="cls-2" d="M303.76,36.4c.22,8.15-12.81,8.5-12.6.23C290.42,28,303.91,27.86,303.76,36.4Z"/><path class="cls-2" d="M219.57,188.83c-15.1-3.77,2.43-15.93-5.36-26.08-5.28-9.8-2.26-18.43,4.28-26.37,2.47-3,5.66-3.81,8.77-1.35s3.11,5.82.47,8.76c-4.5,5-5.07,10-1.89,16.19C230.61,169.42,228.72,182.9,219.57,188.83Z"/><path class="cls-2" d="M257.6,151.43c-2.75,6.16-2.5,20.6-12.38,17.28-9.92-4.72,5.31-14.51-2.56-25.56-5.19-10.14-1.66-18.72,5.16-26.58,2-2.25,4.81-2.8,7.06-1.24C264.55,124.53,244.86,120.09,257.6,151.43Z"/><path class="cls-2" d="M287.18,133.77a6.38,6.38,0,0,1,2.74,9.7c-4.48,5.27-5.23,10.38-2,16.65,5,6.91,2,32.14-9.69,27.6-3.37-1.7-4.29-4.87-2.45-8.09,3.7-6.48,2.71-12.49-.31-18.95C270.87,150.7,277.73,133.53,287.18,133.77Z"/><path class="cls-2" d="M163.48,101c.32-4.94-1.54-11.76,5.8-11.5,8.78.31,5.55,8.14,6,13.22.39,4.53.48,10.21-5.8,10C161.5,112.49,164,105.55,163.48,101Z"/><path class="cls-2" d="M151.45,89.31c-4.6-.6-11.6,1.63-11.32-5.81.37-9.64,8.76-5.17,13.89-6,4.34-.67,9.43-.18,9.26,5.53C163.05,91.05,156.22,88.74,151.45,89.31Z"/><path class="cls-2" d="M187.14,77.41c5.15.25,11.9-1.44,11.67,5.82-.28,8.41-7.86,5.62-12.87,5.91-4.51.25-10.5,1-10.32-5.82C175.83,75.06,182.94,78.15,187.14,77.41Z"/><path class="cls-3" d="M323.36,261.89v52.78c-33.24,0-66.32.49-99.36-.59-20.64-6.59-11.32-35.46-13-52.25h41.3c1.88,13.85-6.79,37.7,13,40.57,11.75,1.37,16.44-6.23,17.05-17.15,15.5-.36,18.65-10.17,17.42-23.36Z"/><path class="cls-4" d="M198.58,296.56c-21-9.68-47-.09-66.31-17.92l50.32-63,34,21.24C189.24,250.56,202.28,275.47,198.58,296.56Zm-23.15-50.1c-.24,11.57,18.23,11.43,17.56-.08C193.54,234.83,175.14,234.72,175.43,246.46ZM188.94,276c.24-6.12-9.79-6.19-9.48-.06C179,282.18,189,282.52,188.94,276Zm-19.1-11.76c.12-5.15-6.05-3.5-6.77-.37C163.82,267.84,169.5,269.52,169.84,264.26Z"/><path class="cls-1" d="M32,189.32c35.48,10.84,59.53-16.52,88.92-25.54C135.6,219.36,49.51,244.28,32,189.32Z"/><path class="cls-5" d="M189.06,335.91c-13.84-.58-27.71-3.82-38.6-14.67-6.35-6.33-5-11.74,3.08-15.45,15.29-7,45-1,56.14,11.48C223,330.71,200,337,189.06,335.91Z"/><path class="cls-4" d="M218.71,249.47c6.67-5.3,19.65-22.14,25-22.1,17.69,7,35.32,14.07,54.1,21.6-18.67.73-4.1,19.23-12.24,23.93-3,.55-3.28-2-3.83-4.15-1.15-6.65-11.77-5.42-11.38,1.3-1.07,4.35,2.73,21.08-3.29,20.63-2.8-.09-2.77-2.37-2.77-4.48C264.69,235.8,268.85,252.25,218.71,249.47Z"/><path class="cls-5" d="M120.62,286.47c-13.13,4.16-24.17,9.06-23.12,25.41-9.81-2.92-18.79-6.55-24.33-15.34-4-6.25.16-10,5.44-12C92.45,279.08,106.1,281.43,120.62,286.47Z"/><path class="cls-5" d="M142.46,298.43c-10.75,10.2-9.43,20.37-.72,31.18C102.12,322.18,95.3,292.65,142.46,298.43Z"/><path class="cls-2" d="M175.43,246.46c-.29-11.74,18.11-11.63,17.56-.08C193.66,257.89,175.19,258,175.43,246.46Z"/><path class="cls-2" d="M188.94,276c.07,6.5-9.95,6.16-9.48-.06C179.15,269.83,189.18,269.9,188.94,276Z"/><path class="cls-2" d="M169.84,264.28c-.35,5.23-6,3.55-6.77-.39C163.8,260.75,170,259.11,169.84,264.28Z"/></svg>