<svg id="Layer_2" data-name="Layer 2" xmlns="http://www.w3.org/2000/svg" viewBox="0 0 384 384"><path d="M257.49,312.89c33.43,0,66.85.16,100.26-.12,7.91-.07,9.76,3.51,8.91,10.36-3.68,29.47-25.35,49.45-55,49.53q-118.62.34-237.25,0c-30.57-.1-54.74-23.8-55-52.69,0-4.81,2.13-7.1,7-7.09,22.17,0,44.33,0,67.28,0C50,266.36,39.21,200.58,44.79,139.31c.45-4.22,2.7-6.09,6.91-6.09q123.48,0,247,0c4.23,0,6.48,1.94,6.84,6.16,3.12,9.66-4.49,26.67,11.57,24,22.81-2.52,56.1-.76,55.65,29.66-1.81,22.49,8.09,56.21-19.95,65.25-22.37,8.05-44.77,16.05-67.27,23.74a20.71,20.71,0,0,0-11.58,8.85C269,298.48,263.14,305.44,257.49,312.89ZM130.91,193.12c-21.83,0-43.66.29-65.48-.17-6.87-.14-9.16.63-8,8.48C63.58,243.18,77,281.29,109,310.79c40.78,5.87,85,.15,126.84,2.16,39-24.81,51.42-73.8,57.63-117.14.25-2.13-.41-2.74-2.59-2.73-23.7.07-47.4,0-71.09,0-1.34,0-2.64-.34-2.72,1.9-2.95,16.08,9.16,21.76,18.91,32.24,10.49,8.76,2.81,50.22,5.13,65.91,0,5.3-2.16,7.8-7.56,7.77q-22.45-.15-44.9,0c-5.15,0-7.52-2.26-7.49-7.44.08-15.59.7-31.22-.21-46.76-.62-10.42,2.41-17.89,10.31-24.63,7.69-6.54,16.8-12.89,14-25.67-.57-2.64-.94-3.39-3.63-3.38C178.05,193.17,154.48,193.12,130.91,193.12Zm62.2,131.75q-78.75,0-157.52-.06c-2.8,0-3.47.34-2.76,3.35C37.54,348,53.31,360.56,76,360.64q117.11.41,234.22,0c22.28-.07,37.56-11.91,42.94-31.4.87-3.18.94-4.5-3.29-4.49C297.63,324.93,245.37,324.87,193.11,324.87ZM130.23,181.16c23.81,0,47.63,0,71.45.06,2.7,0,3.56-.53,3.51-3.4-1.41-5.08,2.85-34.16-2.66-32.66C154.75,147.41,101,141,56.08,147.42c1.42,5.76-4.34,36.55,3.44,33.82C83.09,181.08,106.66,181.16,130.23,181.16Zm125.39,0c44.95-3.06,39.25,14,38.64-33,3.13-6.27-39-1.67-44.67-3-36.65-3.92-35.06-1.88-32.58,33C214.24,184.39,250.37,179.84,255.62,181.16Zm-62.5,82c1.3,13.38-6.62,28.36,14,26.14,21.92-1.11,21.58-.32,22.08-22.22.4-17.12,2.15-34.29-15.61-44.92-1.43-1.62-2.28-2.51-4.35-.71C194.45,231.61,190.43,245.6,193.12,263.11Zm94.49,5.44c18.84-6.62,38.22-13.42,57.59-20.24,8.8-2.43,15.76-8.95,15.55-18.47-.16-49.92,7.8-56.5-47.6-54.88-9.59-.87-6.53,6.07-6.63,10-.11,4.62,4.39,2,6.52,2,34.13.2,35.86,1.73,35.79,32.57,0,9.2-4.45,15.27-13,18.39C319.89,246.88,288.47,245.11,287.61,268.55Zm31.5-69.44c-4.3,1.13-12.7-2.67-14.38,2.47q-3.12,17.17-6.53,34.29c-3.14,6.87,31-9.61,35-10C345.07,213.52,335.77,196.62,319.11,199.11Z"/><path d="M172.22,121.26c-17.26-5.38,17-18.68-4.71-51.56-11.06-19.57-9-38.86,5.5-52.93,3.14-3,6.61-5.27,10.31-1.45s1.51,7.1-1.73,10.21c-11,10.58-11.72,23.54-2.44,40.11C189.17,80.09,192.47,114.94,172.22,121.26Z"/><path d="M117.44,97.55c-.2,7.1-7.53,29.16-18,22.28C90.52,109,118,102.29,97.71,82.28,86,69.52,86.37,52.13,98.57,39.62c2.67-2.74,5.71-3.21,8.61-.75s2.9,5.57.6,8.61C88.86,67.75,118.56,76.7,117.44,97.55Z"/><path d="M261.2,96.75c-.35,8.14-7.5,30.16-18.24,22.92-8.39-11.52,19-16.78-2-37.83C225.43,69.35,236.18,30.26,251.07,39c2.69,2.44,2.68,5.43.51,8.35C232.72,67.75,261.48,76,261.2,96.75Z"/></svg>