<svg id="Layer_2" data-name="Layer 2" xmlns="http://www.w3.org/2000/svg" viewBox="0 0 384 384"><path d="M89.71,108.71c29.6,1.8,28.93,2,37.86,31.34,16,38.61,1.49,86.93-45.17,92.3v38.24A79,79,0,0,1,120.78,274c74.1-85.51,39.87-84.17,104.27-45.83,10-22.08,24.66-11.25,38.9-5.55,19.78,7.93,39.66,15.66,59.49,23.48,16.58,3.14,11.72,16.13,12.09,26.59.26,7.06.05,14.14.05,21.37,18.12,4.33,52.43,22.38,26.57,40.85-64.81,37.64-272.06,36.89-337.78.35C-4.24,314.74,39.22,295.51,55,293c21.2-18.45,14.1-40.06,15.42-60.18-35.63-2.6-65-40.24-48.68-84.58C33.9,103.3,47.92,109,89.71,108.71ZM225.64,326.53c-12.08,37.23-58.75,14.33-85.94,14.41-13.8,0-24.19-11-36.6-15.14-15-5-29.87-8.71-40.06-22.65-113.48,28.73,81.61,48.68,108.48,46.6,30.19,2,176.69-1.87,186.59-29.42-.54-9-14.95-10.67-23.33-13.12,6.09,20-6,19.84-20.14,19.52C285.14,326.07,255.61,326.53,225.64,326.53Zm97.72-64.64H299.85c1.23,13.19-1.92,23-17.42,23.36-.61,10.92-5.3,18.52-17.05,17.15-19.84-2.88-11.17-26.71-13-40.57H211c1.64,16.76-7.66,45.68,13,52.25,33,1.08,66.12.59,99.36.59ZM110,121.09H43.42c-4.4,18.32-14.3,35.06-14.77,54.59,36.45,15,59.76-16.45,89.75-23.39C115.48,141.41,112.8,131.4,110,121.09Zm88.55,175.47c3.7-21.09-9.34-46,18-59.67l-34-21.24-50.32,63C151.56,296.47,177.54,286.88,198.58,296.56ZM32,189.32c17.58,55,103.65,30,88.92-25.54C91.49,172.8,67.44,200.16,32,189.32Zm157.1,146.59c10.93,1,34-5.21,20.62-18.64-11.12-12.46-40.85-18.48-56.14-11.48-8.12,3.71-9.43,9.12-3.08,15.45C161.35,332.09,175.22,335.33,189.06,335.91Zm29.65-86.44c50.14,2.79,46-13.68,45.62,36.72,0,2.12,0,4.4,2.77,4.49,6.07.34,2.19-16.25,3.29-20.63-.4-6.72,10.23-7.95,11.38-1.3.55,2.17.83,4.7,3.83,4.15,8.13-4.69-6.43-23.21,12.24-23.93-18.78-7.53-36.41-14.64-54.1-21.6C238.35,227.33,225.41,244.15,218.71,249.47Zm-98.09,37c-14.52-5-28.17-7.39-42-2-5.28,2.07-9.39,5.78-5.44,12,5.54,8.79,14.52,12.42,24.33,15.34C96.45,295.53,107.49,290.63,120.62,286.47Zm21.84,12c-47.26-5.77-40.23,23.8-.72,31.18C133,318.8,131.71,308.63,142.46,298.43Z"/><path d="M359.48,110c-.8,27.61-43,27.21-41.68-.33C317.23,82.16,359.16,82.92,359.48,110Zm-12.29,0c.13-11.65-17.93-11.43-17.47-.12C328.91,121.3,347.5,121.45,347.19,110Z"/><path d="M174.34,56.07c.31,5.13.84,10.26.86,15.39.38,8.05-12.42,7.53-11.69-.54C162.8,63.47,163.08,46.9,174.34,56.07Z"/><path d="M90.37,30.55c-.14,7.92-12.91,8.42-12.77.13C77,22,90.25,22.1,90.37,30.55Z"/><path d="M303.76,36.4c.22,8.15-12.81,8.5-12.6.23C290.42,28,303.91,27.86,303.76,36.4Z"/><path d="M219.57,188.83c-15.1-3.77,2.43-15.93-5.36-26.08-5.28-9.8-2.26-18.43,4.28-26.37,2.47-3,5.66-3.81,8.77-1.35s3.11,5.82.47,8.76c-4.5,5-5.07,10-1.89,16.19C230.61,169.42,228.72,182.9,219.57,188.83Z"/><path d="M257.6,151.43c-2.75,6.16-2.5,20.6-12.38,17.28-9.92-4.72,5.31-14.51-2.56-25.56-5.19-10.14-1.66-18.72,5.16-26.58,2-2.25,4.81-2.8,7.06-1.24C264.55,124.53,244.86,120.09,257.6,151.43Z"/><path d="M287.18,133.77a6.38,6.38,0,0,1,2.74,9.7c-4.48,5.27-5.23,10.38-2,16.65,5,6.91,2,32.14-9.69,27.6-3.37-1.7-4.29-4.87-2.45-8.09,3.7-6.48,2.71-12.49-.31-18.95C270.87,150.7,277.73,133.53,287.18,133.77Z"/><path d="M163.48,101c.32-4.94-1.54-11.76,5.8-11.5,8.78.31,5.55,8.14,6,13.22.39,4.53.48,10.21-5.8,10C161.5,112.49,164,105.55,163.48,101Z"/><path d="M151.45,89.31c-4.6-.6-11.6,1.63-11.32-5.81.37-9.64,8.76-5.17,13.89-6,4.34-.67,9.43-.18,9.26,5.53C163.05,91.05,156.22,88.74,151.45,89.31Z"/><path d="M187.14,77.41c5.15.25,11.9-1.44,11.67,5.82-.28,8.41-7.86,5.62-12.87,5.91-4.51.25-10.5,1-10.32-5.82C175.83,75.06,182.94,78.15,187.14,77.41Z"/><path d="M175.43,246.46c-.29-11.74,18.11-11.63,17.56-.08C193.66,257.89,175.19,258,175.43,246.46Z"/><path d="M188.94,276c.07,6.5-9.95,6.16-9.48-.06C179.15,269.83,189.18,269.9,188.94,276Z"/><path d="M169.84,264.28c-.35,5.23-6,3.55-6.77-.39C163.8,260.75,170,259.11,169.84,264.28Z"/></svg>