<svg id="Layer_2" data-name="Layer 2" xmlns="http://www.w3.org/2000/svg" viewBox="0 0 384 384"><path d="M353.18,171.89c.32,248.51,36,167.92-319.13,181.28-2.67-2.09-3.22-4.86-3.21-8.17q.12-83.37,0-166.75c0-4,1.38-6.3,4.74-8.31,59.63-35.69,119.28-71.33,178.67-107.4,18-12.79,38.41,7.2,55.76-7.59,1.72-1.54,4.93-2,7.44-2,18.21-1.46,17.42-22.32,49-22.17,3,20.93-12.56,3.19-28.65,24.34,11.13,4.85,21.29,13.25,21.15,24.5-.47,20.09,11.77,32.72,20.41,48.18C346.76,141.65,350.5,156.6,353.18,171.89ZM42.24,310.07c85.69,0,171.39.2,257.08.05,17.63,0,8.88-28.44,11-40,0-2.53-.93-2.88-3.1-2.86q-132.48.29-265,.24C41.48,281.71,41.59,295.88,42.24,310.07ZM226,213.58l-183.78,0c-.72,14.21-.68,28.4,0,42.61,88.16-2.34,183.06,4.46,268-2.14-1.88-11.57,6.59-40.64-11-40.5C274.84,213.37,250.43,213.55,226,213.58ZM41.7,202.74q128.09,0,256.11,0c14.07,0,23.2,9.12,23.22,23.2q0,35.4,0,70.8c0,15.52-8.82,24.31-24.38,24.31L41.78,321v21.43c347.87-12.37,297.88,61.27,300.67-160.94H41.7ZM250.36,71.47c-8.93-1-18.65-5.83-27.11-1.26-56,33.19-111.31,66.54-167.09,100.15H341.62a117.3,117.3,0,0,0-26.78-59.59C286.08,149.16,229.6,115.43,250.36,71.47ZM280,63.9c-29.32,1.83-31.47,47.77-1.3,52.56,32.3,5.61,43.84-41.66,13.15-51.54-4.13,5.1,1.11,19.5-14.18,13.6C278.43,73.87,279.23,68.88,280,63.9Z"/><path d="M178,141.67l6.68-6.51,15.94,16-6.71,6.48Z"/><path d="M163.56,136.54l-7.12-7.46,15.83-15.68,7.22,7.17Z"/><path d="M244,157.93l-7-7.2,16-15.77,7,7.2Z"/><path d="M312.1,135.18l7.09,6.84c-5.35,5.27-10.63,10.46-16,15.8l-6.58-7.63Z"/><path d="M215.41,88.08l7.16-6.9,15.84,16-7.36,6.6Z"/><path d="M125.6,157.78l-6.77-7.09c5.15-5.12,10.51-10.47,16-15.9l6.89,7.24Z"/><path d="M204.58,129.33l15.91-16,7.2,7.31-15.83,15.93C209.46,134.15,207,131.73,204.58,129.33Z"/></svg>