<svg id="Layer_1" data-name="Layer 1" xmlns="http://www.w3.org/2000/svg" viewBox="0 0 384 384"><defs><style>.cls-1{fill:#12100f;}.cls-2{fill:#e6e6e5;}.cls-3{fill:#c9403e;}.cls-4{fill:#539dd8;}.cls-5{fill:#dc9366;}</style></defs><path class="cls-1" d="M273.8,336.52c-10.13-6.32-9.73-16.21-9.64-26.26,4.18-24.54-9.66-77.4,9.28-92.63-16.21-16.38-5.72-36.63-9.41-54.44-4.72-22.76,14.24-32.68,27.89-49.09-15.4,3.61-16.24-3.21-15.81-11.92,3.13-10.15-6.84-32.53,7-34.83q35,0,70,0c14,2.25,3.88,25,7.06,35.15,3.45,21.33-18.81,6.91-10.12,18.09,18.83,13.22,25.54,31.28,22.12,53.76-2.39,14.94,5.86,32.4-10.18,42.73,10.57,6.64,10.23,16.51,10.13,26.56-4.26,24.68,9.95,77.89-9.75,92.89,40.51,49.61-51.91,34-77.15,36.3C264.11,374.46,257.08,347.85,273.8,336.52Zm26.47-5.72c16.8-3.58,57.58,10.61,59.58-13.18-3.55-25.61,9.25-76-7.74-93.94-4.47-3.39-6.05-7.54-1.15-12.34H285.11c10.52,10.42-13.44,16.65-9.1,32.39,4.75,25.26-9.35,68.82,8.53,87,15.07,9.37-25.31,25.18.07,30,12.42-2.89,76.4,7,75.06-6.47C355.8,325.13,294.3,361.23,300.27,330.8Zm-23.9-132c79.45-6.51,87.61,25.37,83.34-47.43C280.49,157.94,272.05,126,276.37,198.84Zm71.5-119.23H288.48V103.1h59.39Zm-62.19,59.3h64.81c-4.55-8.11-16.74-11.06-14.35-23.35H300C302.39,128,290.13,131,285.68,138.91Z"/><path class="cls-1" d="M36.15,181.14c-29.22-61.32,66.42-60.66,36.92,0,12.42,2.81,35.7-6.7,41.84,6.1a145,145,0,0,1,5.78,42.21c-3.07,46.15,6,94.05-6.35,139-.67,2.92-3,4.35-6.17,4.35q-41.52-.06-83,0c-13.21-4.64-11-33.35-12.59-46C18.76,300-4.08,169.46,36.15,181.14Zm12.5,155.58C39.25,262.37,85,269.45,84.45,217.3H24.91V336.72Zm23.83-.05c1.18-57.47,46.26-53.93,35.78-119.39-21.87-5.53-4.19,30.25-29.45,49.54C62.57,278.8,47.16,341.1,72.48,336.67Zm-43,24c19.3-4.52,77.65,11.74,77.19-11.68H26.49C27.5,353,28.48,356.76,29.47,360.64Zm74.29-167.43C84.49,197.74,26.05,181.43,26.53,205h80.14C105.67,200.94,104.73,197.13,103.76,193.21Zm4.56,92.08c-19.15,15.86-41.58,60.2,0,51.34ZM66.39,157.07c-2-13.58-21.7-13.56-23.42,0Zm-22.2,12.26c4.72,14.22,15.85,17,20.35,0Z"/><path class="cls-1" d="M162.3,49.64c-20.09,4-14.36-37.15,4.73-36.11,20.9,3.73,61.56-12.27,67.24,16.51-.12,9.33,3,22.77-11.41,19.12-1.27,40.34,21.32,76.69,27.72,116.06,6.85,54.45-21.83,113.25-1.74,166,15.56,54.57-54.28,40-86.73,41.59-18.93-.07-34.71-19.08-27.31-36.31,12-27.95,7.12-55.83,4.79-84.06C120.93,135.88,151.51,143.42,162.3,49.64ZM153.77,357.9c19.5,6.69,42.29,1,62.91,2.78,19.83,0,26.62-10.16,19.24-28.79-15-40.57.52-84.47.9-126.53,12.34-53.82-27.51-102.64-26.68-155.72-12,0-23.66,0-35.29,0,1.07,26-10.61,49-16.46,73.69C139.55,164,147.38,207,151.6,250c2.43,30,8.74,60-5.22,89.24C143,346.24,146.21,353.67,153.77,357.9Zm9-320.81h59.05c1.33-8-1.21-11.92-9.78-11.66C199.25,29.5,158.68,15.58,162.79,37.09Z"/><path class="cls-2" d="M300.27,330.8c-6,30.43,55.54-5.66,59.39,23.49,1.2,13.55-62.61,3.52-75.05,6.48-25.39-4.88,15-20.65-.06-30-17.9-18.18-3.79-61.74-8.55-87-4.34-15.82,19.61-21.79,9.11-32.39H351c-4.9,4.8-3.32,8.95,1.15,12.34,17.08,18.43,4.13,68,7.75,93.93C357.82,341.46,317.12,327.18,300.27,330.8Zm37.13-99.14c-19.72,16.34-21.2,102,9.4,83.81C314.77,274.1,358.59,240.76,337.4,231.66Zm-38.54,90.55c19.41-15.16,21.55-101-9.42-83.83C321.46,279.8,277.65,313.19,298.86,322.21Z"/><path class="cls-3" d="M276.37,198.84V151.41h83.34C364.06,224.23,355.55,192.32,276.37,198.84Z"/><path class="cls-3" d="M347.87,79.61V103.1H288.48V79.61Z"/><path class="cls-2" d="M285.68,138.91C290.13,131,302.39,128,300,115.56h36.14c-2.39,12.29,9.8,15.24,14.35,23.35Z"/><path class="cls-4" d="M48.65,336.72H24.91V217.3H84.44C85.13,269.13,39.18,262.72,48.65,336.72Z"/><path class="cls-3" d="M72.48,336.67c-25.33,4.54-9.89-57.94,6.33-69.85,25.16-19,7.59-55,29.45-49.54C118.69,283,73.71,279,72.48,336.67Z"/><path class="cls-2" d="M29.47,360.64c-1-3.88-2-7.69-3-11.68h80.17C107.19,372.35,48.74,356.13,29.47,360.64Z"/><path class="cls-2" d="M103.76,193.21c1,3.92,1.91,7.73,2.91,11.74H26.53C26,181.46,84.51,197.73,103.76,193.21Z"/><path class="cls-4" d="M108.32,285.29v51.35C66.73,345.49,89.17,301.14,108.32,285.29Z"/><path class="cls-2" d="M66.39,157.07H43C44.69,143.51,64.44,143.5,66.39,157.07Z"/><path class="cls-2" d="M44.19,169.33H64.54C60,186.39,48.89,183.52,44.19,169.33Z"/><path class="cls-5" d="M210.14,67.82c7.92,33.49,23.46,66.1,26.28,100.37-.9,46.43-15.29,94.16-7.53,139.94,7.34,18.16,13.37,47.9-14.38,48.92-17.61-2.51-77.26,13.8-68.13-17.82,20.52-52.52-1.39-107.8-.93-161.84,2.35-36.42,20.31-70.3,27.89-105.94,1.75-6.84,1.07-14.3,1.51-21.81C190.6,48.31,206.81,48.68,210.14,67.82Zm-11.7,149.44c.25-7.85-12.25-8.29-12-.32C185.8,224.86,198.28,225,198.44,217.26Zm18-6.25c-7.83-.16-8.09,12.36-.15,12C224.18,223.55,224.19,211,216.41,211Zm6-18.21c-.31-7.5-12.61-7.47-12,.43C210.18,201.22,222.62,200.84,222.42,192.8Zm-23.95.25c-.05-7.61-12.39-7.92-12,0C186,201,198.42,201,198.47,193.05Zm-30.07-6c-7.61-.08-8,12.33-.1,12C176.27,199.61,176.35,187.11,168.4,187Zm-.15,60.06c7.87.18,8.24-12.27.26-12C160.63,234.51,160.52,247,168.25,247.1ZM192.55,235c-7.86-.27-8.26,12.26-.31,12C200.15,247.59,200.29,235.09,192.55,235Zm23.79,12.13c7.82,0,7.9-12.47-.06-12C208.38,234.71,208.56,247.17,216.34,247.1Zm-47.73,11.82c-7.87-.27-8.28,12.25-.33,12C176.19,271.56,176.35,259.06,168.61,258.92Zm23.95,12.13c7.73-.17,7.59-12.65-.33-12C184.26,258.8,184.72,271.31,192.56,271.05Zm29.84-6c.07-7.84-12.39-8-12-.08C209.93,272.87,222.38,272.8,222.4,265ZM174.49,217c-.08-7.79-12.54-7.77-12,.17C162.17,225.08,174.62,224.8,174.49,217Z"/><path class="cls-5" d="M162.79,37.09c-4.14-21.5,36.48-7.59,49.27-11.66,8.57-.26,11.11,3.68,9.78,11.66Z"/><path class="cls-3" d="M228.9,308.13c-8.77-49.63,9.82-101.14,7-151.45C245.08,206.34,227.58,257.62,228.9,308.13Z"/><path class="cls-3" d="M153.77,357.9c26.49-4.46,81.69,15.19,82.15-26,7.38,18.63.59,28.79-19.24,28.78C196.06,358.88,173.27,364.58,153.77,357.9Z"/><path class="cls-3" d="M210.14,67.82c-1.92-7.28-6-13.15-11.51-18.18C213.27,46.4,210.07,56.75,210.14,67.82Z"/><path class="cls-1" d="M337.4,231.66c21.1,8.67-22.51,42.92,9.41,83.8C316.21,333.66,317.68,248.05,337.4,231.66Z"/><path class="cls-1" d="M298.86,322.21c-21.12-8.63,22.48-42.88-9.43-83.82C320.4,221.18,318.28,307,298.86,322.21Z"/><path class="cls-1" d="M198.44,217.26c-.16,7.73-12.64,7.6-12-.32C186.19,209,198.69,209.41,198.44,217.26Z"/><path class="cls-1" d="M216.41,211c7.78,0,7.77,12.54-.15,12C208.32,223.37,208.58,210.85,216.41,211Z"/><path class="cls-1" d="M222.42,192.8c.2,8-12.24,8.42-12,.43C209.81,185.33,222.11,185.3,222.42,192.8Z"/><path class="cls-1" d="M198.47,193.05c-.05,7.95-12.48,8-12,0C186.08,185.13,198.42,185.44,198.47,193.05Z"/><path class="cls-1" d="M168.4,187c7.95.07,7.87,12.57-.1,12C160.38,199.37,160.79,187,168.4,187Z"/><path class="cls-1" d="M168.25,247.1c-7.73-.14-7.62-12.59.26-12C176.49,234.83,176.12,247.28,168.25,247.1Z"/><path class="cls-1" d="M192.55,235c7.74.12,7.6,12.62-.31,12C184.29,247.23,184.69,234.7,192.55,235Z"/><path class="cls-1" d="M216.34,247.1c-7.78.07-8-12.39-.06-12C224.24,234.63,224.16,247.08,216.34,247.1Z"/><path class="cls-1" d="M168.61,258.92c7.74.14,7.58,12.64-.33,12C160.33,271.17,160.74,258.64,168.61,258.92Z"/><path class="cls-1" d="M192.56,271.05c-7.84.26-8.3-12.25-.33-12C200.15,258.4,200.29,270.88,192.56,271.05Z"/><path class="cls-1" d="M222.4,265c0,7.76-12.47,7.83-12-.08C210,257,222.47,257.2,222.4,265Z"/><path class="cls-1" d="M174.49,217c.13,7.81-12.32,8.09-12,.17C162,209.22,174.41,209.2,174.49,217Z"/></svg>