<svg id="Layer_1" data-name="Layer 1" xmlns="http://www.w3.org/2000/svg" viewBox="0 0 384 384"><defs><style>.cls-1{fill:#0f120e;}.cls-2{fill:#c0dff5;}.cls-3{fill:#93b0dc;}.cls-4{fill:#fbeeaf;}.cls-5{fill:#c38778;}.cls-6{fill:#96c18f;}.cls-7{fill:#bdd49e;}.cls-8{fill:#69ac80;}.cls-9{fill:#e7b756;}</style></defs><path class="cls-1" d="M307.37,66.18c3.2-2.41,5.86-1.44,8.45,1.15,30.47,30.45,48.12,67,52.14,110,10.51,95.22-65.78,184.34-161.21,191.33C62.89,382.85-38,207.28,49.76,91.22c58-80.64,170-98.1,248.63-38.8,3.27,2.46,4.38,5.08,2.22,8.73-4.43,3.56-7.54.34-10.82-2.09-77.11-57.14-196-32.34-238.73,49.61h0c-.18.43-.68.77-.68,1.24l-.59,1a.2.2,0,0,0-.11.3C-38.06,254.64,141.23,422.4,274.85,336.37l.18,0,.14-.13,1-.59c.47,0,.81-.5,1.24-.68C368,287.76,386,153.09,311.73,78,308.58,74.86,303.28,72.15,307.37,66.18Z"/><path class="cls-2" d="M49.68,111.19a.2.2,0,0,1,.11-.3l.59-1c0-.47.5-.82.68-1.24h0C93.76,26.72,212.68,1.92,289.79,59.06c3.28,2.43,6.39,5.65,10.82,2.09q3.39,2.51,6.76,5c-4.09,6,1.21,8.68,4.36,11.86C386,153.09,368,287.76,277.38,335c-.43.18-.77.69-1.24.68l-1,.59-.14.13C132.5,395.75-9.17,254,49.68,111.19ZM81.21,261.64c-1.13,1.93-3.58,4.19-3.19,5.74,3.81,18.76,15.71,32.94,34.51,38,6.15,12.56,16.2,16.84,29.42,14.74,7.28,22.58,40.15,22.32,47.38-.17a25.2,25.2,0,0,0,20-3.33c15.08,12.62,28.41,10.75,40.53-3.81C270.74,323.4,294,300,282.93,279.08A26.06,26.06,0,0,0,294,265.67c20.72.74,30.35-9.52,28.79-30.49,23.13-12.06,23.09-32.77.38-47.42,0-3.36.31-6.46-.09-9.46s-3.07-6.55-2.12-8.7c16-36.41-14.33-57.88-29.6-81.92-9.57-15.07-31.83-22.87-49.49-31.78-13.31-6.71-29.41,2.44-43.95-5.17-19.53-9.24-35,15.57-54.9,13.76-4.15.08-7,2.77-5.68,7.7l-6.86,4.19c-11.23-7.24-11.84,14.85-19,17.25-20.44,10-28.81,25.72-26.75,48C39.24,163.89,44.31,215.38,69.23,250.2c2,3.47,4.43,5,8.33,3.88Q79.38,257.86,81.21,261.64Z"/><path class="cls-3" d="M49.68,111.19C-9.18,253.78,132.5,395.85,274.85,336.37,141.09,422.4-38,254.59,49.68,111.19Z"/><path class="cls-3" d="M51.71,107.62l-.65,1Z"/><path class="cls-3" d="M51.06,108.67l-.53.83C50.71,109.23,50.88,109,51.06,108.67Z"/><path class="cls-3" d="M50.38,109.91l-.59,1C50,110.56,50.19,110.24,50.38,109.91Z"/><path class="cls-3" d="M277.38,335l1-.64Z"/><path class="cls-3" d="M276.56,335.52l.81-.53Z"/><path class="cls-3" d="M275.17,336.26l1-.59Z"/><path class="cls-1" d="M137.36,72.19c-3.09-12.78,15.57-2.93,35-18.24,7.55-5.05,17.81-7.28,25.59-3.22,14.54,7.61,30.64-1.54,43.95,5.17,17.66,8.91,39.92,16.71,49.49,31.78,15.27,24,45.65,45.51,29.6,81.92-1,2.15,1.71,5.71,2.12,8.7s.09,6.1.09,9.46c22.71,14.65,22.75,35.36-.38,47.42,1.56,21-8.07,31.23-28.79,30.49a26.06,26.06,0,0,1-11.09,13.41c11.1,20.9-12.19,44.31-33.11,33.74-12.12,14.55-25.45,16.42-40.53,3.8a25.33,25.33,0,0,1-20,3.35c-7.21,22.47-40.1,22.72-47.36.15-13.22,2.1-23.27-2.18-29.42-14.74-18.8-5.07-30.69-19.24-34.51-38-.39-1.55,2.06-3.81,3.19-5.74,12.67-1.77,6,31.34,35.37,32.65,14.17.77,23.55-7.6,27.82-20.18,5.08-15,11.38-29.53,20.92-41.64,15.89-20.17,8.69-42.53,2.44-60.6-16.41-42-92.65-34.74-104.91,8.95-8.39,24.13,3.9,44.08,15.38,63.82,5.72,7.8-4.56,14.35-9,5.56-24.92-34.8-30-86.35,15.54-108.55-2.06-22.3,6.31-38,26.76-48,7.13-2.4,7.74-24.49,19-17.25-.67,34.55-37.51,24.51-35.66,60.78,33-8,60.72-.67,82.17,26.58,6.52-5.39,14.07-6.89,22.39-5.2,7.54-22.68,40-22.63,47.47,0,12.23-2.2,21.64,1.72,28.28,12.5C285.21,158.69,297,152.26,313,161c7.76-34.54-12-28.21-19.2-49.76C285.85,82.54,254.44,82,236.3,65.15,231.88,61,223.18,64,216.56,66.52a9.34,9.34,0,0,1-7.2-.6C175.16,44.79,169.21,86.63,137.36,72.19Zm12.8,214c-6.2,9.48-14.49,16.08-26.32,18.37,12,14.95,24.89-5.9,27.33,8.38,1.05,8.39,5.51,13.63,14.09,13.78,20.05.78,9.48-24.09,22.64-18.37,15.9,9,30-12.06,16.15-23.46-2.64-2.67-4-5.18-2.05-8.71,2.41-.22,5.74-1.57,7.08-.48,9.21,7.53,13.72,17.28,9.39,29-2,5.31.24,7.3,4.05,8.66,22,8.06,16-22.28,29.39-11.63,9.54,9.56,29.13-3.16,22.42-15-5.7-9.07-5.34-14.61,5.24-18.14l5.26-6.62c-9-8.82-16.25-18.36-27-24-2.9-1.51-2.93-4.33-1.8-7.16,7.8-8.7,25.77,14,31.66,19.27,11,13.9,32.29-.61,23.27-16.21-5.92-13.26,19-2.57,18.41-22.63.08-19.55-24-8.89-18.52-22,9.36-16.26-12.48-30.29-23.77-15.85-11.73,12-15.8,29.61-30.07,40-6.69,6-10.18,17.62-13.21,26,15.33,9.15,11.79,30.52-7.53,30.61-11.48-3.16-15.84-10.34-12.39-21.94,9.49-7.7,12.15-18.8,16.65-29.41-28.59-11,1.15-47.39,17.85-21.86,17.72-11.58,6.22-36.2-13.71-26.15-11.75,4.5-2.18-19.42-21.68-18.7-8.63.12-13.18,5.26-14.15,13.68-.5,4.43-3.07,6.93-7.16,5-19-10.19-31.64,14.46-14.36,25.53,16.12,13.12,23.43,31.23,29,50.4-17.45,10.62-10.19-19.66-31-38a98.07,98.07,0,0,1-6.79,20.26c11.11,9,9.43,24.68,18.83,34.35,6.18,6.75-4.12,13.47-8.73,5.7-7.28-8.94-9.58-20.28-14.57-31.15l-9.73,16.71c26.07,6.32,11.45,41.26-12,28Zm94-77.45c6.46,0,7-10.25.21-10.18C237.48,198.08,237.5,208.39,244.12,208.69Zm-.94,45.55c-.19-6.71-10.72-6.3-10.19.34C232.86,261.22,243.42,261,243.18,254.24Zm-75.46,15.81c.1-6.45-10.35-6.84-10.24-.26C157,276.4,167.47,276.78,167.72,270.05Z"/><path class="cls-4" d="M137.36,72.19c31.79,14.45,37.83-27.4,72-6.27a9.34,9.34,0,0,0,7.2.6C223.18,64,231.88,61,236.3,65.15c18.14,16.84,49.55,17.39,57.48,46.06,7.12,21.44,27,15.28,19.2,49.76-16-8.71-27.77-2.28-37.83,10-6.64-10.78-16-14.7-28.28-12.5-7.51-22.59-39.94-22.63-47.47,0-8.32-1.69-15.87-.19-22.39,5.2-21.45-27.25-49.16-34.55-82.17-26.58-1.84-36.3,35-26.2,35.66-60.78Zm46.24,78c20.34-.2,20.59-31.51.17-30.89C163.43,118.42,163.28,149.81,183.6,150.19ZM289.42,139.6c-.11-20.46-31.53-20.6-30.86-.17C257.73,159.75,289.11,159.82,289.42,139.6Z"/><path class="cls-5" d="M77.56,254.08c10.07-9.16-28.77-39.45-14.71-73.26,12.25-43.71,88.5-51,104.91-9,6.25,18.08,13.45,40.44-2.44,60.61-9.54,12.11-15.84,26.67-20.92,41.64-4.27,12.58-13.65,20.95-27.83,20.18-29.4-1.36-22.68-34.47-35.36-32.65Q79.38,257.86,77.56,254.08ZM118,218c11.42,0,22.84,0,34.25,0,3.64,0,6.25-1.48,6.21-5.22s-2.68-5.26-6.28-5.25q-34.08,0-68.15,0c-3.52,0-6.16,1.38-6.15,5.29S80.54,218,84.07,218Zm-.14-35.44c9.6,0,19.2,0,28.8,0,3.33,0,5.91-1.32,6-5.12.07-4-2.55-5.42-6-5.43q-28.8-.07-57.61,0c-3.52,0-6.24,1.52-6.22,5.31s2.73,5.26,6.27,5.26Q103.42,182.54,117.83,182.52Zm1.85,61.64c-6.74,4.05-20.07-4.88-20.18,5.88s13.12,4.92,19.93,4.83c7-.1,20.51,6.1,20.51-4.81S126.35,248.41,119.68,244.16Z"/><path class="cls-6" d="M247.79,227.9c3-4.93,4.88-11.39,9.19-14.52,14.27-10.38,18.34-28,30.07-40,11.28-14.42,33.14-.44,23.77,15.85-5.49,13.06,18.63,2.48,18.52,22,.71,20-24.31,9.39-18.41,22.63,9,15.58-12.22,30.12-23.27,16.21-5.9-5.29-23.8-28-31.66-19.27Z"/><path class="cls-7" d="M239.05,221.2c-2.74,10.26-7,19.63-15.2,26.81l-7.59-1.49c-5.54-19.17-12.85-37.28-29-50.4C170,185,182.64,160.4,201.65,170.59c4.09,1.91,6.66-.59,7.16-5,1-8.42,5.52-13.56,14.15-13.68,19.55-.69,9.89,23.18,21.68,18.7,19.9-10.06,31.45,14.57,13.71,26.15-8.25-15.4-31.1-8.58-29.71,8.64C224.48,215.67,230.34,219.37,239.05,221.2Z"/><path class="cls-6" d="M279.57,268.55c-10.58,3.53-10.94,9.07-5.24,18.14,6.71,11.81-12.88,24.53-22.42,15-13.35-10.66-7.44,19.71-29.39,11.63-3.81-1.36-6-3.35-4.05-8.66,4.33-11.7-.18-21.45-9.39-29-1.34-1.09-4.67.26-7.08.48l-4.25-5c1.93-2.81,1.91-5.55-.5-8-9.4-9.67-7.72-25.36-18.83-34.35l4.12-9.9c15,11.19,7.28,44.14,38.24,39.5.82,10.22,4.78,15.56,15.46,11.59,14.88-.7,21.4-12,14.35-24.8.87.19,2,.1,2.58.62C262,253.31,270.78,260.94,279.57,268.55Z"/><path class="cls-7" d="M197.75,271.14l4.25,5c-1.95,3.53-.59,6,2.05,8.71,13.87,11.41-.23,32.45-16.15,23.46-13.13-5.73-2.64,19.18-22.64,18.37-8.58-.15-13-5.39-14.09-13.78-2.43-14.26-15.38,6.55-27.33-8.38,11.83-2.29,20.12-8.89,26.32-18.37,11.22-.28,26.54.06,27.62-14.46,1-9.48-4.29-15.05-13.56-17.31L174,237.66C178.93,246.19,184.8,277.57,197.75,271.14Z"/><path class="cls-8" d="M236.24,270c-10.68,4-14.64-1.37-15.46-11.59-31,4.64-23.26-28.31-38.24-39.5.85-3.27,1.69-6.55,2.67-10.36,20.89,18.4,13.58,48.62,31,38l7.59,1.49C220.4,259.61,224.76,266.79,236.24,270Z"/><path class="cls-8" d="M279.57,268.55a446.34,446.34,0,0,0-35.8-29.21c1.23-3.49,2.62-7.46,4-11.44l8.21,2.89c-1.13,2.83-1.1,5.65,1.8,7.16,10.78,5.62,18,15.16,27,24Z"/><path class="cls-9" d="M244.1,208.68c-6.6-.29-6.61-10.61.23-10.17C251.13,198.44,250.59,208.71,244.1,208.68Z"/><path class="cls-9" d="M243.18,254.24c.24,6.78-10.32,7-10.19.34C232.46,247.94,243,247.53,243.18,254.24Z"/><path class="cls-9" d="M167.72,270.05c-.25,6.73-10.77,6.35-10.24-.26C157.37,263.21,167.82,263.6,167.72,270.05Z"/><path class="cls-6" d="M239.05,221.2c-8.71-1.83-14.57-5.53-10.41-15.82,1.48,6.44,5,11.09,11.86,13.22Z"/><path class="cls-6" d="M161.51,285.59l-11.35.55c.71-1.28,1.43-2.56,2.09-3.73Z"/><path class="cls-1" d="M183.6,150.19c-20.32-.38-20.17-31.78.17-30.89C204.19,118.68,203.93,150,183.6,150.19Zm5.29-15.48c-.13-6.57-10.47-7-10.23-.12C178.34,141.31,188.65,141.06,188.89,134.71Z"/><path class="cls-1" d="M289.42,139.6c-.32,20.23-31.69,20.15-30.86-.18C257.89,119,289.31,119.14,289.42,139.6Zm-10.5-.4c0-6.51-10.73-6.1-10.05.44C268.64,146.2,279.41,146,278.92,139.2Z"/><path class="cls-1" d="M118,218H84.07c-3.53,0-6.21-1.21-6.22-5.16s2.63-5.29,6.15-5.29q34.08,0,68.15,0c3.6,0,6.24,1.55,6.28,5.25s-2.57,5.24-6.21,5.22C140.81,217.94,129.39,218,118,218Z"/><path class="cls-1" d="M117.83,182.52q-14.42,0-28.81,0c-3.54,0-6.25-1.47-6.27-5.26s2.7-5.31,6.22-5.31q28.82,0,57.61,0c3.49,0,6.11,1.44,6,5.43-.08,3.8-2.66,5.09-6,5.12C137,182.56,127.43,182.52,117.83,182.52Z"/><path class="cls-1" d="M119.68,244.16c6.67,4.25,20.25-5.07,20.26,5.9s-13.46,4.71-20.51,4.81c-6.81.09-20.05,5.88-19.93-4.83S112.94,248.21,119.68,244.16Z"/><path class="cls-9" d="M188.89,134.71c-.24,6.35-10.56,6.6-10.23-.12C178.42,127.76,188.76,128.14,188.89,134.71Z"/><path class="cls-9" d="M278.92,139.2c.49,6.77-10.28,7-10.05.44C268.19,133.1,278.9,132.69,278.92,139.2Z"/></svg>