<svg id="Layer_2" data-name="Layer 2" xmlns="http://www.w3.org/2000/svg" viewBox="0 0 384 384"><path d="M307.37,66.18c3.2-2.41,5.86-1.44,8.45,1.15,30.47,30.45,48.12,67,52.14,110,10.51,95.22-65.78,184.34-161.21,191.33C62.89,382.85-38,207.28,49.76,91.22c58-80.64,170-98.1,248.63-38.8,3.27,2.46,4.38,5.08,2.22,8.73-4.43,3.56-7.54.34-10.82-2.09-77.11-57.14-196-32.34-238.73,49.61h0c-.18.43-.68.77-.68,1.24l-.59,1a.2.2,0,0,0-.11.3C-38.06,254.64,141.23,422.4,274.85,336.37l.18,0,.14-.13,1-.59c.47,0,.81-.5,1.24-.68C368,287.76,386,153.09,311.73,78,308.58,74.86,303.28,72.15,307.37,66.18Z"/><path d="M137.36,72.19c-3.09-12.78,15.57-2.93,35-18.24,7.55-5.05,17.81-7.28,25.59-3.22,14.54,7.61,30.64-1.54,43.95,5.17,17.66,8.91,39.92,16.71,49.49,31.78,15.27,24,45.65,45.51,29.6,81.92-1,2.15,1.71,5.71,2.12,8.7s.09,6.1.09,9.46c22.71,14.65,22.75,35.36-.38,47.42,1.56,21-8.07,31.23-28.79,30.49a26.06,26.06,0,0,1-11.09,13.41c11.1,20.9-12.19,44.31-33.11,33.74-12.12,14.55-25.45,16.42-40.53,3.8a25.33,25.33,0,0,1-20,3.35c-7.21,22.47-40.1,22.72-47.36.15-13.22,2.1-23.27-2.18-29.42-14.74-18.8-5.07-30.69-19.24-34.51-38-.39-1.55,2.06-3.81,3.19-5.74,12.67-1.77,6,31.34,35.37,32.65,14.17.77,23.55-7.6,27.82-20.18,5.08-15,11.38-29.53,20.92-41.64,15.89-20.17,8.69-42.53,2.44-60.6-16.41-42-92.65-34.74-104.91,8.95-8.39,24.13,3.9,44.08,15.38,63.82,5.72,7.8-4.56,14.35-9,5.56-24.92-34.8-30-86.35,15.54-108.55-2.06-22.3,6.31-38,26.76-48,7.13-2.4,7.74-24.49,19-17.25-.67,34.55-37.51,24.51-35.66,60.78,33-8,60.72-.67,82.17,26.58,6.52-5.39,14.07-6.89,22.39-5.2,7.54-22.68,40-22.63,47.47,0,12.23-2.2,21.64,1.72,28.28,12.5C285.21,158.69,297,152.26,313,161c7.76-34.54-12-28.21-19.2-49.76C285.85,82.54,254.44,82,236.3,65.15,231.88,61,223.18,64,216.56,66.52a9.34,9.34,0,0,1-7.2-.6C175.16,44.79,169.21,86.63,137.36,72.19Zm12.8,214c-6.2,9.48-14.49,16.08-26.32,18.37,12,14.95,24.89-5.9,27.33,8.38,1.05,8.39,5.51,13.63,14.09,13.78,20.05.78,9.48-24.09,22.64-18.37,15.9,9,30-12.06,16.15-23.46-2.64-2.67-4-5.18-2.05-8.71,2.41-.22,5.74-1.57,7.08-.48,9.21,7.53,13.72,17.28,9.39,29-2,5.31.24,7.3,4.05,8.66,22,8.06,16-22.28,29.39-11.63,9.54,9.56,29.13-3.16,22.42-15-5.7-9.07-5.34-14.61,5.24-18.14l5.26-6.62c-9-8.82-16.25-18.36-27-24-2.9-1.51-2.93-4.33-1.8-7.16,7.8-8.7,25.77,14,31.66,19.27,11,13.9,32.29-.61,23.27-16.21-5.92-13.26,19-2.57,18.41-22.63.08-19.55-24-8.89-18.52-22,9.36-16.26-12.48-30.29-23.77-15.85-11.73,12-15.8,29.61-30.07,40-6.69,6-10.18,17.62-13.21,26,15.33,9.15,11.79,30.52-7.53,30.61-11.48-3.16-15.84-10.34-12.39-21.94,9.49-7.7,12.15-18.8,16.65-29.41-28.59-11,1.15-47.39,17.85-21.86,17.72-11.58,6.22-36.2-13.71-26.15-11.75,4.5-2.18-19.42-21.68-18.7-8.63.12-13.18,5.26-14.15,13.68-.5,4.43-3.07,6.93-7.16,5-19-10.19-31.64,14.46-14.36,25.53,16.12,13.12,23.43,31.23,29,50.4-17.45,10.62-10.19-19.66-31-38a98.07,98.07,0,0,1-6.79,20.26c11.11,9,9.43,24.68,18.83,34.35,6.18,6.75-4.12,13.47-8.73,5.7-7.28-8.94-9.58-20.28-14.57-31.15l-9.73,16.71c26.07,6.32,11.45,41.26-12,28Zm94-77.45c6.46,0,7-10.25.21-10.18C237.48,198.08,237.5,208.39,244.12,208.69Zm-.94,45.55c-.19-6.71-10.72-6.3-10.19.34C232.86,261.22,243.42,261,243.18,254.24Zm-75.46,15.81c.1-6.45-10.35-6.84-10.24-.26C157,276.4,167.47,276.78,167.72,270.05Z"/><path d="M183.6,150.19c-20.32-.38-20.17-31.78.17-30.89C204.19,118.68,203.93,150,183.6,150.19Zm5.29-15.48c-.13-6.57-10.47-7-10.23-.12C178.34,141.31,188.65,141.06,188.89,134.71Z"/><path d="M289.42,139.6c-.32,20.23-31.69,20.15-30.86-.18C257.89,119,289.31,119.14,289.42,139.6Zm-10.5-.4c0-6.51-10.73-6.1-10.05.44C268.64,146.2,279.41,146,278.92,139.2Z"/><path d="M118,218H84.07c-3.53,0-6.21-1.21-6.22-5.16s2.63-5.29,6.15-5.29q34.08,0,68.15,0c3.6,0,6.24,1.55,6.28,5.25s-2.57,5.24-6.21,5.22C140.81,217.94,129.39,218,118,218Z"/><path d="M117.83,182.52q-14.42,0-28.81,0c-3.54,0-6.25-1.47-6.27-5.26s2.7-5.31,6.22-5.31q28.82,0,57.61,0c3.49,0,6.11,1.44,6,5.43-.08,3.8-2.66,5.09-6,5.12C137,182.56,127.43,182.52,117.83,182.52Z"/><path d="M119.68,244.16c6.67,4.25,20.25-5.07,20.26,5.9s-13.46,4.71-20.51,4.81c-6.81.09-20.05,5.88-19.93-4.83S112.94,248.21,119.68,244.16Z"/></svg>