<svg id="Layer_1" data-name="Layer 1" xmlns="http://www.w3.org/2000/svg" viewBox="0 0 384 384"><defs><style>.cls-1{fill:#170f0e;}.cls-2{fill:#db949b;}.cls-3{fill:#cc575a;}.cls-4{fill:#ad2b2a;}.cls-5{fill:#b02c2b;}</style></defs><path class="cls-1" d="M192,72.28c-2-13.08,42.71-29.06,54.49-26.18,69.85,6.75,103.92,93.85,100.1,155.74-8.38,117.5-165.47,186.7-251.44,99.75C63.4,273.75,62.25,239.15,61.47,200.08c-8.58-19-17-38.14-21.95-58.52-2.29-8.81-4.74-25.1,7.93-26.2,2.35-.29,1.85-1.55,1.94-2.86-.27-18.34,8.91-46.32,29.89-26.19C84.15,91,84.15,91,89.93,87.89c50.68-21.69,24.58,78.2,19.39,101.22-.73,14.38,26.72,35.41,39.65,40.5,30,11.93,70-11.83,59.35-44.51-6.63-35.9-54.53-60.25-32-99.08,1.69-3,3.75-5,7.46-4.3,11.5,6.83-16.11,21.44,6.32,50.3,1.42,2,3,2.21,5.13,1.93,23.68-2.42,47.68-7.18,67.14-21.86,8.38-6.33,15.46-13.81,19.21-23.91,1.86-4.19,7.11-13.19,2.71-16.52-14.13-10.81-32.1-17.95-50-13.93C222,59,211.37,66,201.68,73.17,197.3,76.48,195.6,76.31,192,72.28ZM85.66,246.42c6.79-1.89,37.18-19.51,30-27.53a75.54,75.54,0,0,1-13.45-16.49c-2.13-3.57-4.75-4.51-8.44-3.85-6.34,1.42-18.74,3.86-20.58,11.09a110.42,110.42,0,0,0,.89,31.49C75.88,251.51,76.37,251.79,85.66,246.42Zm4,10.25c-3.32,2.26-11.87,2-8.23,7.7a104.59,104.59,0,0,0,22.3,31.07c7.83,7.47,7.8,7.5,14.23-1a151.39,151.39,0,0,0,21.25-36.2c8.39-23.87,5.87-16.1-11.41-28.61-1.41-1.1-2.19-1-3.26.61C116.22,242.68,102.38,249.72,89.62,256.67ZM194,315.75c4.23-25.23-4-49.58-15.53-71.65-.88-1.67-1.86-2-3.73-1.69a49.71,49.71,0,0,1-18.28,0c-1.88-.36-2.32.07-2.66,2-4.21,22.92-17,43.36-31.3,61.25-2.36,2.2-1.91,3.28.74,4.88a132.86,132.86,0,0,0,58.28,18.89c9.75.81,7.84,2.53,11.09-7.84C193.16,319.65,193.5,317.68,194,315.75Zm-117.1-123c5.88-2.1,11.73-4.54,18.08-4.45,3.19,0,4.29-.94,5-4,4.42-19.54,8.34-39.16,9.93-59.16.21-8.84,2.6-35.21-12.52-29.16-6.57,1.41-12.69,13.63-18.7,5.49C75.07,97.72,66.27,83.54,62.93,94c-4.46,10.37-1.06,22-4.31,32.3-4.17,3.95-10.67-4-10.33,2.47,2,21.55,12,41.42,20.05,61.21C71,196,71,196,76.86,192.71Zm207.36,86.18c-28.46-9.77-51.91-29.89-72-51.73-2-2.16-3.1-2.35-5.31-.23A50,50,0,0,1,191.24,237c-3.16,1.31-3.68,2.45-2,5.68,14,26.73,21.61,57.47,11.94,87.12,39.61-2.42,71.63-19,98.12-47.93Zm9.1-8.9c6.55.84,14.11,3.25,18.49-3.63,13.72-19.88,22.4-41.6,24.47-65.72.62-7.23.15-14.56.1-21.84,0-2.76-.45-4.65-3.82-2.16-32.22,19-71.31,20.51-107.72,22.59-3.13.12-5.29,0-5.23,4.28.82,5.07-6,10.63-1.47,15C239.23,240.14,262.54,263.85,293.32,270ZM288.6,98.16c-18.28,30.54-54.5,42.23-88,45.7,6.92,13.47,16.52,26.68,18.65,42.64.44,2.54,2,2.56,4,2.51,22.22-.67,44.31-2.6,66.08-7.27,10.36-2.23,44-10.33,44.16-22.71-6.83-28.13-18.26-55.54-38.12-76.95A81.66,81.66,0,0,1,288.6,98.16Z"/><path class="cls-2" d="M192,72.28c3.57,4,5.27,4.2,9.65.89,8.41-6.37,17.27-11.87,27.6-14.64C249.64,56.92,268,74.76,281.6,88.18c-14.25,33-53.84,42.51-86.35,45.77-2.11.28-3.71,0-5.14-1.93-9.54-13.13-12.63-26.84-4.09-41.68,2.15-3.75,1.26-6.45-2.22-8.62C186,78.11,189.3,75.44,192,72.28Z"/><path class="cls-3" d="M321.79,170.86c-30.39,14.86-65.33,16.4-98.57,18.15-2,.05-3.57,0-4-2.51-2.13-16-11.74-29.17-18.65-42.64,33.54-3.47,69.76-15.16,88-45.7C305.11,118.9,316,145,321.79,170.86Zm-90.91,13c7.54-.31,7.84-11.34.19-11.68C223.28,172.41,223.49,183.41,230.88,183.84Z"/><path class="cls-2" d="M293.32,270c-30.79-6.14-54.08-29.85-75.18-51.53-4.5-4.32,2.29-9.88,1.47-15-.06-4.31,2.1-4.16,5.23-4.28,33.53-1.21,67.08-4.45,98.57-17.15C326.81,214.31,314,245.65,293.32,270Zm-52.76-41.87c-.41,7.41,11,8.45,11.7.84C252.75,221.49,241.25,220.58,240.56,228.12Zm-3.71-11.57c-.14-7.3-11.61-7.31-11.74,0C225.07,224.12,236.9,224.16,236.85,216.55Zm18,0c7.39,0,7.78-11.13.26-11.35C247.35,204.75,247.17,216.55,254.85,216.51Z"/><path class="cls-3" d="M205.11,313.2c2.14-25.15-4.17-48.45-15.84-70.48-1.71-3.23-1.19-4.37,2-5.68a50,50,0,0,0,15.68-10.11c2.21-2.12,3.35-1.93,5.31.23,20.08,21.84,43.53,42,72,51.73-19.08,22.48-47.55,33.41-76.24,36C206.58,315.07,205.39,314.9,205.11,313.2Zm-4.19-60.81c-.3,8.32,11.23,7.12,11.22-.13C211.75,245.28,200.71,244.35,200.92,252.39Zm5.6,23.41c-.62,7.74,10.49,8.75,11.57,1.05C218.41,269.78,207.49,268.08,206.52,275.8Zm21-11.65c7.86-.13,7.7-11.44.09-11.63C220.09,252.64,220.08,263.87,227.48,264.15Z"/><path class="cls-3" d="M58.61,126.28c3.26-10.32-.14-21.93,4.32-32.3,3.33-10.49,12.14,3.8,15.72,7.42,6,8.13,12.12-4.07,18.7-5.49,26.35-8.76,4.92,75.53,2.59,88.31-.71,3.1-1.81,4.08-5,4-6.35-.09-12.2,2.35-18.08,4.45C68.71,171.13,61.79,149.22,58.61,126.28Z"/><path class="cls-2" d="M126.76,300.31c12.13-16.88,23.4-35.11,27-55.95.34-1.91.78-2.34,2.66-2a49.71,49.71,0,0,0,18.28,0c1.87-.34,2.85,0,3.73,1.69C190,266.17,198.19,290.52,194,315.75,170.79,316.41,146.57,313.19,126.76,300.31Zm34.58-43.58c-7.37-.16-7.53,11.35-.3,11.67C168.61,268.62,169,256.79,161.34,256.73Zm24.32,16.59c.46-7.28-11.48-7.5-11.35-.28C173.85,280.69,185.73,280.93,185.66,273.32Z"/><path class="cls-3" d="M89.62,256.67c12.76-7,26.6-14,34.88-26.47,1.07-1.64,1.85-1.71,3.26-.61a60.83,60.83,0,0,0,13.89,8.22c8.55,8.94-16.55,47.92-23.73,56.59C105.17,284.31,96.09,271.47,89.62,256.67Z"/><path class="cls-4" d="M205.11,313.2c.28,1.7,1.47,1.87,2.87,1.73,28.68-2.63,57.16-13.56,76.24-36l15.11,3c-26.49,28.95-58.51,45.51-98.12,47.93A129.27,129.27,0,0,0,205.11,313.2Z"/><path class="cls-4" d="M321.79,170.86c-5.83-25.9-16.68-52-33.19-72.7a81.66,81.66,0,0,0,6.74-16.08c19.87,21.41,31.28,48.82,38.12,77C334.33,165.26,326.13,168.1,321.79,170.86Z"/><path class="cls-4" d="M293.32,270c20.63-24.34,33.49-55.68,30.09-87.91a98.44,98.44,0,0,0,9.15-5.44c3.37-2.49,3.81-.6,3.82,2.16a133.78,133.78,0,0,1-24.57,87.56C307.44,273.24,299.87,270.83,293.32,270Z"/><path class="cls-2" d="M79,203.61c25.24-13.4,20.82,1.55,36.67,15.28,7.13,8.05-23.18,25.59-30,27.53C81.55,232.45,78.83,218.26,79,203.61Z"/><path class="cls-4" d="M126.76,300.31c19.81,12.88,44,16.1,67.2,15.44-.46,1.93-.8,3.9-1.39,5.79-3.25,10.37-1.34,8.65-11.09,7.84a132.86,132.86,0,0,1-58.28-18.89C117.35,307.63,125.33,303.74,126.76,300.31Z"/><path class="cls-4" d="M58.61,126.28c3.18,22.94,10.1,44.85,18.25,66.43C71,196,71,196,68.34,190c-7.16-16.54-14.24-33.11-18.57-50.69C45.8,117.08,49.46,130.84,58.61,126.28Z"/><path class="cls-4" d="M89.62,256.67c6.47,14.8,15.55,27.64,28.3,37.73-6.43,8.54-6.4,8.51-14.23,1a104.59,104.59,0,0,1-22.3-31.07C77.75,258.68,86.31,258.93,89.62,256.67Z"/><path class="cls-4" d="M281.6,88.18c-13-13.86-28.5-26-47.3-30.45,17.91-4,35.88,3.12,50,13.93C288.76,74.93,283.37,84.1,281.6,88.18Z"/><path class="cls-4" d="M79,203.61c-.19,14.65,2.53,28.84,6.64,42.81-9.29,5.37-9.78,5.09-11.55-5.29C73.25,232.51,68.35,206,79,203.61Z"/><path class="cls-5" d="M230.88,183.84c-7.39-.43-7.6-11.43.19-11.68C238.72,172.5,238.42,183.54,230.88,183.84Z"/><path class="cls-5" d="M240.56,228.12c.69-7.54,12.19-6.63,11.7.84C251.55,236.57,240.15,235.53,240.56,228.12Z"/><path class="cls-5" d="M236.85,216.55c.05,7.61-11.78,7.57-11.74,0C225.24,209.24,236.71,209.25,236.85,216.55Z"/><path class="cls-5" d="M254.85,216.51c-7.68,0-7.5-11.76.26-11.35C262.63,205.38,262.24,216.55,254.85,216.51Z"/><path class="cls-5" d="M200.92,252.39c-.21-8,10.84-7.11,11.22-.12C212.15,259.51,200.62,260.71,200.92,252.39Z"/><path class="cls-5" d="M206.52,275.8c1-7.72,11.89-6,11.57,1.05C217,284.55,205.9,283.54,206.52,275.8Z"/><path class="cls-5" d="M227.48,264.15c-7.4-.28-7.39-11.51.09-11.63C235.18,252.71,235.34,264,227.48,264.15Z"/><path class="cls-5" d="M161.34,256.73c7.7.06,7.27,11.89-.3,11.67C153.81,268.08,154,256.57,161.34,256.73Z"/><path class="cls-5" d="M185.66,273.32c.07,7.61-11.81,7.37-11.35-.28C174.18,265.82,186.12,266,185.66,273.32Z"/></svg>