<svg id="Layer_2" data-name="Layer 2" xmlns="http://www.w3.org/2000/svg" viewBox="0 0 384 384"><path d="M326.49,7c6.52,2.27,9.59,8.1,13.05,13.54,6.42-5.64,13.54-5.73,18.18-.5,2.38,2.67,2.87,6,3.27,9.3.69,6.82.39,13.64-2.08,20.16-1,2.47-.1,3,2,3.56,5.83,1.58,9.09,5.24,9.49,10.28.59,8.2-6.33,14.33-14.44,12.25-7.9-2.07-15.42-1.68-22.33,3a19.15,19.15,0,0,0-2.28,1.68c-5.63,4.94-5.63,5,.3,9.59,9.88,7.51,15.81,17.2,16.21,29.85a13.16,13.16,0,0,0,1.28,5.14,172.6,172.6,0,0,1,13.84,38c.6,2.37,1.29,4.64-.89,6.72-1.18,1.08-.29,2.27.1,3.26a149.07,149.07,0,0,1,8.21,54.66c-1,25.8-7.81,49.92-21.16,72.16-19.77,32.91-47.64,56-84.21,67.8-43.3,13.94-85.11,9.59-124.35-13.74-35.78-21.25-59.21-52.29-70.18-92.51-6.92-25.61-6.72-51.4-.2-77a28,28,0,0,0,.89-9.89c-2.76-40,22.34-76.21,60.3-88.76a82.3,82.3,0,0,1,25.4-4.15c3.26,0,3.26-1.39,2.67-3.86-3-13-5.83-26.09-8.7-39.24-1-4.45.1-6.13,4.65-7,47.44-9.58,91.43-1.08,132.25,24.81l4.45,3c1.09-3,0-4.55-2.47-5.44-1.38-.49-2.57-1.18-4-1.78-6-2.86-8.7-8.89-6.53-14.82A11.14,11.14,0,0,1,294,30.28c4,1.68,5.93.89,8-2.57a27.49,27.49,0,0,1,9-9.19c.59-.39,1.38-.69,1.48-1.48.6-5.14,4.35-7.71,8.21-10.08ZM311.66,222.73V211.17c-.49-.1-1-.1-1.48-.2-1.78,3.86-3.66,7.61-5.44,11.47-.69.79-1.38,1.68-.39,2.76l6.52,7.71c.3,0,.59-.09.79-.09ZM264.61,88.9a63,63,0,0,0-12-7,137.53,137.53,0,0,0-81-12.95c-5.44.69-5.64,1.29-3.86,6.33,1.29,6.42,1.29,6.23,6.63,7.41,35.68,8.21,58.71,29.75,68.69,65.14.89,3.26,1.49,6.72,2.28,10.58,2.76-11.77,5.14-22.94,8-34,3-11.36,4.55-23.32,12.16-33C266.69,89.89,265.6,89.39,264.61,88.9ZM218,366.35c1,0,1.88.1,2.86.1a140,140,0,0,0,77.5-24.71,142.77,142.77,0,0,0,55.35-166.16c-.89-2.57-1.78-3.55-4.74-2.76-7,1.88-14.14,3.26-21.25,4.74-1.59.3-2.08,1.48-2.57,2.67-2.18,4.75-4.45,9.59-6.73,14.23a6.65,6.65,0,0,0-.49,5.14,91.7,91.7,0,0,1,1.58,36.68c-1,5.83-.69,11.16,2.08,16.5,2.17,4.25,3.16,9,4.15,13.74,2.27,11.57,2.47,23.13-1,34.5-5.24,17-18,25.9-34.2,30.84-14.13,4.35-28.67,5.43-43.29,5.83-9.69.3-19.38.49-29.06.69-11.27-.3-22.54-.39-33.71-.89-16.11-.69-32-2.17-47-8.6-14.33-6.22-24.12-16.5-27.18-32.32-3.26-16.51-1.09-32.32,5.83-47.64,1.09-2.47.79-3.66-1.58-5A87.69,87.69,0,0,1,77.9,202.27c-.3-.69-.1-2.07-2-1.78-.5,4.35-1.09,8.7-1.29,13A144.27,144.27,0,0,0,109.13,316a141.57,141.57,0,0,0,65,43.49C188.11,364.28,202.74,367.05,218,366.35Zm99.93-77.59c2.27-24.51-6.62-44.77-23.72-61.68-16.51-16.41-36.87-25.5-59.8-28.56-32-4.25-61.58,2.27-86.89,23-20.85,17-31.92,38.94-30,66.52A38.17,38.17,0,0,0,122,304.48c5.34,10,14.23,15.12,24.51,18.48,14.53,4.75,29.56,5.54,44.68,6,22.64.69,45.27.79,67.81-.69,12.55-.89,25-2.57,36.57-7.81C309.19,314.16,316.9,303.88,317.89,288.76Zm-211.33-120c.49,21,11.66,38.16,30.15,46.86,2.17,1,3.46.89,5.34-.7,17.79-14.82,38.45-23,61.28-25.5,2.17-.19,2.87-1.48,3.36-3.06,2.47-7.71,3.85-15.42,2.77-23.62-3.86-29.26-29.56-49.13-59-45.28C125.74,120.83,106,143.86,106.56,168.76ZM254.83,157.2c-1,4.35-1.78,8.4-2.77,12.45a4.76,4.76,0,0,0,.89,4.65,4,4,0,0,1-1.48,6.52,3.73,3.73,0,0,0-2.38,3.17c-.39,1.87-.49,3.85-1,5.63-.6,2.08.19,2.57,2,3.06a113.31,113.31,0,0,1,36.28,16.71c3.16,2.27,6.72,3.46,10.38,4.74,1.58.6,2.37.3,3.06-1.18,1.68-3.46,3.26-6.92,5.14-10.28,1-1.78.5-2.47-1.28-3.07-3.86-1.18-7.71-2.47-11.57-3.75-3.46-1.19-4.74-3.17-3.85-5.74,1.18-3.36,3.75-3.26,6.42-2.47,4.25,1.39,8.4,2.67,12.55,4.16,1.59.59,2.57.59,3.37-1.19,1.58-3.46,3.16-6.92,4.94-10.38.69-1.38.49-2-1.19-2.47-4.15-1.29-8.2-2.67-12.26-4-2.57-.89-4.34-2.47-3.36-5.34s3-3.86,5.93-2.77c4.16,1.48,8.41,2.77,12.56,4.25,2,.69,3.06.4,3.85-1.58,1.29-3.26,2.77-6.33,4.25-9.49.69-1.58.6-2.57-1.38-3.16-4.25-1.29-8.4-2.77-12.55-4.15-3.36-1.19-4.75-3.26-3.66-5.83,1.18-2.87,3.46-3.27,6.23-2.28,4.25,1.48,8.69,2.77,12.94,4.35,2.38.89,3.46.3,4.25-2a76.61,76.61,0,0,1,3.37-8.3c1.08-2.37.88-3.46-1.88-4.25-4.75-1.28-9.29-3-13.94-4.64-2.67-.89-4.05-2.77-3.16-5.54s3-3.56,5.73-2.57c3.95,1.38,7.91,2.57,12,3.95,5.73,1.88,6,1.68,5.93-4.54-.3-11.27-6.62-18.78-15.42-24.91-1.28-.89-2.07-.1-3.06.69-7.71,6.33-17.3,3-19.38-6.82-.29-1.19-.39-2-1.87-2.08-13-.79-25.9,3-31.34,18s-8.3,30.55-12.06,46.16c3.26-.19,6.43-1.08,8.11,2.47a4.09,4.09,0,0,1-1.09,5.24C260.26,160.56,257.69,158.78,254.83,157.2Zm-96.57-49c24.21.7,42.4,11.77,53.77,33.12,7.51,14.13,8.7,29.15,3.85,44.48-.79,2.37-.39,3.06,2.18,3.06,4.54,0,9.09-.49,13.54.59,1.68.4,2.47-.29,3-2.07a79,79,0,0,0,.79-34.7A76.67,76.67,0,0,0,209.75,109C196.51,97.5,181.19,90.88,164,89.79c-25.9-1.68-47.84,7.21-65,27C85.41,132.29,79,150.28,79.77,171a76.57,76.57,0,0,0,9.3,34.59c7.11,13.35,17.39,23.53,30.44,31.14,1.48.89,2.37.79,3.26-.59a86.85,86.85,0,0,1,8.3-10.78c1.39-1.58,1.59-2.47-.69-3.65a59.42,59.42,0,0,1-17-13.55c-12.75-14.63-17.69-31.53-14.33-50.51C104.09,128.93,129.89,107.68,158.26,108.17ZM297.63,77.83c-1.19-2.57-1.68-4.75-3.76-6.13-4.15-2.77-8.1-5.93-12.36-8.6C244.74,40.17,205.11,32,162.31,39.38c-1.88.29-2.37.69-1.88,2.67,1.29,5.24,2.67,10.37,3.56,15.71.49,2.77,1.48,3.17,4,2.77a138.78,138.78,0,0,1,50.31.49,144.17,144.17,0,0,1,53.38,21.75c.89.59,1.68,1.38,2.87.59C281.61,79.21,289.22,77.63,297.63,77.83Zm49.72-18.19c-15.92-.1-31,10.08-36.58,24.91-.69,1.88-1.58,3.76,1,4.84s3.76-.49,4.65-2.57c.39-.89.79-1.78,1.18-2.57a31.74,31.74,0,0,1,17.8-16.31,35,35,0,0,1,21.74-.89c1.78.5,3.86.6,4.45-1.68s-1-3.36-3.07-4C355.06,60.33,351.4,60,347.35,59.64Zm-2.87,76.9c-4.15,9.69-8.21,19-12.16,28.17-.69,1.68-.89,3.36,1.68,2.87,5.93-1.19,11.86-2.57,17.79-3.86,1-.19,2-.19,1.58-1.68A147.43,147.43,0,0,0,344.48,136.54Zm-33.41-68.7c1.09-2.57,5.24-3.16,3.46-7.21C310,50.55,303,43.23,292.68,39.18c-2.07-.79-4.15-1.38-5.23,1.09-1.09,2.67,1.08,3.56,3,4.35a33.43,33.43,0,0,1,16.31,13.93C308.6,61.32,309.29,64.58,311.07,67.84Zm25-25.5c-.7-10.28-3.66-18-9.39-24.71-1.19-1.38-2.47-2-4.06-1s-1.58,2.77-.69,4.45a9.08,9.08,0,0,0,.79,1.19c6.33,8.2,8.7,17.39,6.63,27.58-.1.59-.89,1.38,0,1.87s1.58-.19,2.17-.79C334.1,48.08,336.57,45,336.08,42.34Zm5.63,8.9c2.18-.1,3.66-.3,5.24-.3a2.46,2.46,0,0,0,2.57-1.58,36.91,36.91,0,0,0,2.17-22.14c-.39-1.68-1.18-3.36-3.36-3s-2.37,2-2.37,3.86c0,2.77.89,5.34.5,8.2C345.76,41.55,344.58,46.49,341.71,51.24ZM311.07,39.87c.1-.1.59-.1.69-.29,1.68-3,4.35-5,6.23-7.81,1.09-1.58-1-3-2-4.15-1.18-1.59-2.07.09-2.86.79a26.81,26.81,0,0,0-5,6C306.92,36.41,308.4,39.58,311.07,39.87Z"/><path d="M19.48,102.14c3.06-.69,5.73-1.28,8.5-1,2.27.29,2.77-.7,2.77-2.87-.1-8.7-.1-17.5,0-26.2a18.18,18.18,0,0,1,.29-4,4,4,0,0,1,4-3.06,3.74,3.74,0,0,1,3.85,2.67,15,15,0,0,1,.5,4.25c0,8.5.19,17-.1,25.5-.1,3.06.89,4,3.75,3.66,2.38-.3,4.75.49,7.42.88V74.66a21.07,21.07,0,0,1,.1-3.55c.39-2.57,1.87-4.35,4.54-4.15s4.06,1.87,4.06,4.64V72c-1,21.74,1.58,43.49,1.48,65.23,0,11.86-4.55,17.3-16.31,19.18-1.68.3-2.18.79-2.18,2.47.1,9.69.1,19.37,0,29.16a3.34,3.34,0,0,0,2.08,3.26c7,3.86,10.58,9.89,10.58,17.89,0,46.66.1,93.21,0,139.87,0,11.66-8.8,20.26-19.87,20.16s-19.77-8.8-19.77-20.36q-.15-69.69,0-139.47c0-8.11,3.56-14.23,10.77-18.09a3.25,3.25,0,0,0,2-3.36q-.15-14.38,0-28.76c0-1.78-.39-2.38-2.27-2.67C14.24,154.93,9.4,149.19,9.4,137.63c0-6.13-.7-12.36.1-18.29,2.17-15.71.89-31.53,1.28-47.25.1-2.86,1.38-4.84,4.15-4.84,3-.1,4.45,2,4.45,4.94v26.2C19.48,99.38,19.48,100.66,19.48,102.14Zm4.35,176.54v69.68c0,7.91,5.63,12.56,13.05,11.27,5.33-.89,8.89-5.43,8.89-11.36V209.19c0-5.24-2.47-9.09-6.72-10.87-7.91-3.16-15.32,2-15.32,10.87Q23.88,244,23.83,278.68Z"/><path d="M266.1,289.45c-9.79,11.27-22.74,15.82-37.07,17.3-15.82,1.68-31.33.59-46-6.42-5.14-2.47-9.2-6.33-13.25-10.18-14.63-19.77-6.23-48.34,16.71-62.28,22.73-13.83,54.06-10.38,73,8.21,12.95,12.75,17.2,32.32,10.08,47.15A53.07,53.07,0,0,1,266.1,289.45Zm-47.94,9.39a86.09,86.09,0,0,0,24.9-4.15c18.88-6.23,26.4-23,18.09-41.12-3.95-8.6-10.38-14.82-18.58-19.37a56.41,56.41,0,0,0-33.51-6.62c-15.22,1.48-26.69,10.28-33.9,24.11C166,269.49,173,288,191.27,294.3A80.09,80.09,0,0,0,218.16,298.84Z"/><path d="M274.4,181c4.35-.1,8.2,2.67,8.1,5.64a4.17,4.17,0,0,1-3.95,4.34c-3.66.4-8.11-2.76-8-5.63A4,4,0,0,1,274.4,181Z"/><path d="M294.46,136.54c4-.1,7.61,2.67,7.52,5.54a3.87,3.87,0,0,1-4,4.25c-3.66.29-7.61-2.67-7.61-5.54S292.39,136.94,294.46,136.54Z"/><path d="M298.32,117.07c.29-2.18,1.88-3.56,4.55-3.56,3.85,0,7.31,2.77,7,5.73-.19,2.67-1.78,4.16-4.44,4.06C301.38,123.1,298.22,120.43,298.32,117.07Z"/><path d="M286.06,159.18c3.86.1,7.42,2.76,7.12,5.63-.3,2.37-1.58,3.95-4.25,3.95-3.86,0-7.71-2.86-7.61-5.73A4.49,4.49,0,0,1,286.06,159.18Z"/><path d="M276.18,104.81c3.16.1,5,2,5,4.75s-1.58,4.15-4.25,4.15c-3.16,0-5.73-2.28-5.73-4.75A4.57,4.57,0,0,1,276.18,104.81Z"/><path d="M267.68,127.84c3.65.1,5.73,2,5.73,4.75s-1.48,4.25-4.15,4.25c-3.36,0-6-2.47-5.73-5.14A4.09,4.09,0,0,1,267.68,127.84Z"/><path d="M266.19,182c-.19,2.08-1.68,3.56-4.35,3.56-3.26,0-5.73-2.18-5.53-4.85.3-2.86,2.08-4.15,4.84-4.05C264.32,176.77,266.29,178.65,266.19,182Z"/><path d="M280.72,132c3.17.1,5.44,1.88,5.24,4.65-.19,2.57-1.48,4.15-4.35,4.15-3.46,0-5.53-1.78-5.53-4.64S277.76,132,280.72,132Z"/><path d="M276.87,160.07a4,4,0,0,1-4.35,3.65c-3.06,0-5.63-2.27-5.63-4.84,0-2.27,2.37-4.25,4.94-4C275,154.93,277.07,156.8,276.87,160.07Z"/><path d="M289.82,118.06c-3.36.1-5.93-1.88-5.93-4.65s1.58-4.15,4.25-4.35c3-.19,5.34,1.68,5.43,4.35C293.67,116.28,292.29,117.76,289.82,118.06Z"/><path d="M39.84,339.07c0,3.76-1.68,6.33-4.25,6.53s-4.65-2.08-4.94-5.14c-.5-4.25,1.09-7,4.15-7.61C37.67,332.25,39.84,334.92,39.84,339.07Z"/></svg>