<svg id="Layer_2" data-name="Layer 2" xmlns="http://www.w3.org/2000/svg" viewBox="0 0 311.23 136"><defs><style>.cls-1,.cls-2{fill:#2a2a2a;}.cls-2{font-size:64.63px;font-family:DancingScript-Bold, Dancing Script;font-weight:700;letter-spacing:-0.19em;}.cls-3{letter-spacing:-0.04em;}.cls-4{letter-spacing:-0.02em;}.cls-5{font-size:28.89px;letter-spacing:-0.05em;}.cls-6{letter-spacing:-0.04em;}.cls-7{letter-spacing:-0.06em;}</style></defs><path class="cls-1" d="M124.52,102.05a5.31,5.31,0,0,0,2.17,2.2,5.91,5.91,0,0,0,3.22.6,7,7,0,0,0,3.28-1.07,8.55,8.55,0,0,0,2.59-2.47,8.13,8.13,0,0,0,1.32-3.61,9.65,9.65,0,0,0-.33-3.88A10,10,0,0,0,136,92a6.2,6.2,0,0,0-.57-.87,5.33,5.33,0,0,0-.67-.82,10.29,10.29,0,0,0-.76-.72l-.85-.62-.9-.5a8.34,8.34,0,0,0-.92-.41,17.45,17.45,0,0,0-7.62-.88c-.31,0-.62.05-.94.1s-.67.11-1,.18A15.57,15.57,0,0,0,120,88a17.8,17.8,0,0,0-3.26,1.56A17,17,0,0,0,114,91.62a14.06,14.06,0,0,0-1.11,1.22l-.51.63c-.15.21-.29.44-.43.65a10.84,10.84,0,0,0-.76,1.31,12.44,12.44,0,0,0-.59,1.3,13.66,13.66,0,0,0-.72,2.48,15.25,15.25,0,0,0,0,6.44,13.86,13.86,0,0,0,1.83,4.51c.33.48.39.56.23.3a13.3,13.3,0,0,1-1-1.81,15,15,0,0,1-1.17-3.85,15.52,15.52,0,0,1,.07-5.59,14.72,14.72,0,0,1,2.47-5.6A15.71,15.71,0,0,1,117.88,89a14.69,14.69,0,0,0-6.21,6.68,14.14,14.14,0,0,0-1.2,7.3,13.56,13.56,0,0,0,3.14,8.52,17.32,17.32,0,0,0,8.67,5.17,27.27,27.27,0,0,0,10.09.76,26.92,26.92,0,0,0,5-1,24.28,24.28,0,0,0,4.64-2,20.51,20.51,0,0,0,7.43-6.61,15.58,15.58,0,0,0,1.87-4,14.27,14.27,0,0,0,.49-5.42,16.56,16.56,0,0,0-1.52-5.23,20,20,0,0,0-2.31-3.75,24.17,24.17,0,0,1,1.9,3.11,19.93,19.93,0,0,1,1.3,3.36,14.43,14.43,0,0,1,.16,7.06l-.22.87c-.08.28-.2.56-.29.84a14.84,14.84,0,0,1-.72,1.64,16.31,16.31,0,0,1-2,3,21.33,21.33,0,0,1-5.65,4.59,26.2,26.2,0,0,1-14.21,3.32,25.36,25.36,0,0,1-7.24-1.37,16.73,16.73,0,0,1-6.2-3.75,14,14,0,0,0,1.22,1,18.4,18.4,0,0,0,6.89,3.22,26.79,26.79,0,0,0,7.68.72,26.32,26.32,0,0,0,7.54-1.46,24.26,24.26,0,0,0,6.68-3.65,17.07,17.07,0,0,0,3.64-3.66,18.83,18.83,0,0,1-3.64,3.66,23.08,23.08,0,0,1-5.92,3.21,26.12,26.12,0,0,1-6.89,1.47,31.53,31.53,0,0,1-4.79.11,23,23,0,0,1-4.72-.77A20.1,20.1,0,0,1,116,113a12.44,12.44,0,0,1-3-3.31c-.21-.38-.41-.8-.61-1.24l0,0a22,22,0,0,0,1.77,2.22,15.17,15.17,0,0,0,1.72,1.56,18.52,18.52,0,0,0,2.41,1.49,21.11,21.11,0,0,0,6.54,2,27.36,27.36,0,0,0,7.77,0,24.37,24.37,0,0,0,7.38-2.29,22,22,0,0,0,5.7-4,14.84,14.84,0,0,0,3.09-4.3,15.76,15.76,0,0,0,.69-1.77c.13-.53.28-1,.34-1.3a14.93,14.93,0,0,0,0-6.55,17.27,17.27,0,0,0-3.26-6.78,42.08,42.08,0,0,0-3.34-3.46,4.93,4.93,0,0,0-1.07-1.16,19.39,19.39,0,0,0-4.81-2.51c-1.65-.6-3.24-1-4.63-1.48a8.35,8.35,0,0,0-2.1-.2c-.42,0-.85,0-1.29,0s-.88.09-1.3.14a20.6,20.6,0,0,1-3.35.5c-.79-.56-.91-.62-1.4-.51s-1.35.39-3.6.91a20.34,20.34,0,0,0-3.54.52l-2.27.93-1.84.78a46.15,46.15,0,0,0-4.6,2.24c-1.54.8-2.77,1.52-3.8,2.15s-1.89,1.2-2.72,1.77A47.38,47.38,0,0,1,94.72,93l-4.87,2.72-3,1.67-1.38.72a41.14,41.14,0,0,1-4.73,2.49,45.68,45.68,0,0,1-4.35,1.64c-2.79.9-5.4,1.63-8.38,2.49-1.79.07-3.7.15-5.71.12a36.93,36.93,0,0,1-6.19-.6,24.05,24.05,0,0,1-6.08-2l-.71-.35-.68-.39c-.47-.26-.89-.53-1.31-.81a19.86,19.86,0,0,1-2.37-1.83,25,25,0,0,1-3.46-3.83,24.18,24.18,0,0,1-2.22-3.64c-.28-.63-.57-1.21-.81-1.92s-.42-1.32-.6-2a21.46,21.46,0,0,1-.61-4.71,30.2,30.2,0,0,1,.61-4.8,7.67,7.67,0,0,1,.36-1.16c.18-.46.45-1,.71-1.47s.63-1,.93-1.53.67-1,.95-1.41l-.56.26.34-.55L41,71.5a13.42,13.42,0,0,1,.88-1.12c.47-.53.27-.48.07-.42-.4.11-.82.24,0-.81a21.59,21.59,0,0,1,7.64-5.4,24.73,24.73,0,0,1,9-1.19,1.85,1.85,0,0,0,.78.4l1.28.17a12.74,12.74,0,0,1,1.26.22c.48.38.26.71.57,1-.06.45.72,1,1.34,1.57s1.11,1.11.65,1.43a3.15,3.15,0,0,1-.89,0l-.81-.09-1,0a13,13,0,0,0-3.8.3c-.42.14.59.41,1,.72a8.5,8.5,0,0,0-1.36.11,1.7,1.7,0,0,0-.62.21c-.19.14,0,.28.51.38l-1.06.16.57.37a17.63,17.63,0,0,0-7.68,3.36,17.17,17.17,0,0,0-4.78,5.89c-.13.23-.24.51-.37.81s-.27.64-.4,1a17.7,17.7,0,0,0-.61,2,9,9,0,0,0,.1,2.5c-.23.9-.57.82-.85,1.24.11.51.24,1.08.42,1.68a8.55,8.55,0,0,0,.29.82l.39.91a17.69,17.69,0,0,0,2.14,3.41c1.59,2,3.31,3.36,2.85,3.76l1.75,1.26c.49.34.9.67,1.34,1a12.27,12.27,0,0,0,3.52,1.74,25.89,25.89,0,0,0,8.06,1.1,39.62,39.62,0,0,0,9.2-1.3,40.74,40.74,0,0,0,4.88-1.53,38.28,38.28,0,0,0,4.55-2.11c1.12-.59,2.19-1.21,3.21-1.82,1.38-.82,2.74-1.66,4.07-2.5S91.8,91,93.06,90.11s2.5-1.68,3.75-2.53,2.51-1.7,3.77-2.49c2.53-1.57,4.94-3.08,7.48-4.54a41,41,0,0,1,4-2c.69-.3,1.4-.57,2.11-.81s1.38-.47,2.1-.67a33.89,33.89,0,0,1,8.82-1.37,36.27,36.27,0,0,1,4.53.23c.75.12,1.52.22,2.22.36s1.48.28,2.22.46a27.61,27.61,0,0,1,8.7,3.66,25.43,25.43,0,0,1,7,6.92,23,23,0,0,1,4,9.44,16.45,16.45,0,0,1,0,5.24,17.17,17.17,0,0,1-.6,2.55l-.47,1.22c-.16.41-.38.79-.56,1.18a20.44,20.44,0,0,1-6.89,7.43,27.94,27.94,0,0,1-4.39,2.4,27.64,27.64,0,0,1-4.72,1.53,30,30,0,0,1-9.71.59,24.25,24.25,0,0,1-9.18-2.7,17,17,0,0,1-3.88-2.82,14.62,14.62,0,0,1-2.82-3.87,16.48,16.48,0,0,1-1.51-9,15.45,15.45,0,0,1,3.45-8.1,16.86,16.86,0,0,1,6.73-4.84,14.64,14.64,0,0,1,3.88-1.06,22.23,22.23,0,0,1,3.72-.15,13.93,13.93,0,0,1,7,2.06l.76.56c.25.2.47.44.7.66a8.67,8.67,0,0,1,1.18,1.46,10.06,10.06,0,0,1,1.32,3.2,9.9,9.9,0,0,1-.52,6.16,8.64,8.64,0,0,1-1.58,2.39,8.91,8.91,0,0,1-1.94,1.59,8.28,8.28,0,0,1-2.1.93,7,7,0,0,1-1.07.21,9,9,0,0,1-.95,0,6.67,6.67,0,0,1-3-.93A5.25,5.25,0,0,1,124.52,102.05Z"/><text class="cls-2" transform="translate(68.78 68.08)">P<tspan class="cls-3" x="24.1" y="0">a</tspan><tspan class="cls-4" x="50.21" y="0">is</tspan><tspan class="cls-3" x="86.08" y="0">ano</tspan><tspan class="cls-5"><tspan x="106.93" y="28.53">G</tspan><tspan class="cls-6" x="122.35" y="28.53">ro</tspan><tspan class="cls-7" x="141.27" y="28.53">u</tspan><tspan class="cls-6" x="152.28" y="28.53">p</tspan></tspan></text></svg>