<svg id="Layer_2" data-name="Layer 2" xmlns="http://www.w3.org/2000/svg" viewBox="0 0 311.23 136"><defs><style>.cls-1{fill:#e3e3e3;}.cls-2{font-size:46.98px;fill:#252525;font-family:DancingScript-Bold, Dancing Script;font-weight:700;letter-spacing:-0.19em;}.cls-3{letter-spacing:-0.04em;}.cls-4{letter-spacing:-0.02em;}.cls-5{letter-spacing:-0.05em;}.cls-6{letter-spacing:-0.04em;}.cls-7{letter-spacing:-0.06em;}</style></defs><path class="cls-1" d="M172.59,56.75A9.58,9.58,0,0,0,178,58.2a10.59,10.59,0,0,0,5.58-2,12.88,12.88,0,0,0,4.16-4.67,15.52,15.52,0,0,0,1.8-6.22,14.85,14.85,0,0,0-1.23-6.85,17.53,17.53,0,0,0-7-8,12.26,12.26,0,0,0-1.7-.85,9.27,9.27,0,0,0-1.78-.66,17.31,17.31,0,0,0-1.86-.44l-1.88-.2-1.86,0c-.62,0-1.22.14-1.83.21a31.52,31.52,0,0,0-12.7,5.56c-.47.32-.92.66-1.38,1A17.17,17.17,0,0,0,155,36.34a31.59,31.59,0,0,0-2.32,2.47A34.75,34.75,0,0,0,149,44.23a31.35,31.35,0,0,0-2.35,5.8A24.23,24.23,0,0,0,146,53l-.22,1.44c0,.48-.05,1-.08,1.42a19.1,19.1,0,0,0,0,2.73,23.5,23.5,0,0,0,.25,2.58,26.26,26.26,0,0,0,1.15,4.53,27.67,27.67,0,0,0,5.92,10,24.81,24.81,0,0,0,7,5.37c.94.47,1.11.53.62.27a24.79,24.79,0,0,1-3.19-1.92,27.85,27.85,0,0,1-5.34-5,28.24,28.24,0,0,1-5-8.8,26.49,26.49,0,0,1-1.24-11,28.22,28.22,0,0,1,4.41-12.31,26.56,26.56,0,0,0-3.62,16.12A25.46,25.46,0,0,0,151.44,71a24.51,24.51,0,0,0,12.67,10.46c5.9,2,12.34,1.75,18.27.18a49.31,49.31,0,0,0,16.48-8,50.13,50.13,0,0,0,6.84-6.09,43.81,43.81,0,0,0,5.46-7.3,37,37,0,0,0,5.59-17.1,28.11,28.11,0,0,0-.76-8,25.51,25.51,0,0,0-4.17-8.92,30,30,0,0,0-7.14-6.81,36.27,36.27,0,0,0-7-3.76,42.74,42.74,0,0,1,5.81,3.14,37.32,37.32,0,0,1,5.1,4.07,26.1,26.1,0,0,1,6.68,10.9l.45,1.55c.13.52.2,1.05.31,1.58a28.68,28.68,0,0,1,.38,3.21,30.7,30.7,0,0,1-.46,6.48,38.74,38.74,0,0,1-4.66,12.33A47.37,47.37,0,0,1,192.06,77a45.56,45.56,0,0,1-12.57,4.46,30.18,30.18,0,0,1-13.11-.22,22.38,22.38,0,0,0,2.79.42,33.66,33.66,0,0,0,13.72-1.25,49.36,49.36,0,0,0,23.12-15,44.43,44.43,0,0,0,7.12-11.8,31.37,31.37,0,0,0,2.34-9,34,34,0,0,1-2.34,9A42.28,42.28,0,0,1,206.8,64a48.22,48.22,0,0,1-9.44,8.58A55.76,55.76,0,0,1,190,77.11a41.44,41.44,0,0,1-8.08,3.11,36.87,36.87,0,0,1-12.72,1.44,22.86,22.86,0,0,1-7.76-2.41,24.41,24.41,0,0,1-2.09-1.39l.1,0a38.73,38.73,0,0,0,4.77,1.87,26.64,26.64,0,0,0,4.13.86,29.42,29.42,0,0,0,5.12.13,37.81,37.81,0,0,0,12-2.86,49.23,49.23,0,0,0,12.1-7.14A44.12,44.12,0,0,0,207,60.46,39.81,39.81,0,0,0,212.27,49a26.57,26.57,0,0,0,.9-9.55,28.49,28.49,0,0,0-.52-3.41c-.29-.94-.45-1.74-.66-2.32a27.15,27.15,0,0,0-6-10.24,31.1,31.1,0,0,0-11.27-7.61c-3.2-1.29-5.95-1.65-8.38-2.37a8.43,8.43,0,0,0-2.72-.84,34.85,34.85,0,0,0-9.82.47c-3.12.56-6,1.36-8.59,1.89a15.87,15.87,0,0,0-3.47,1.6c-.65.39-1.3.82-2,1.26s-1.29.95-1.9,1.41c-2.46,1.92-4.31,3.88-4.79,3.83-1.73-.16-2-.13-2.64.48s-1.75,1.84-4.82,4.71c-.72.69-3.72,2.38-5,4-1.13,1.45-1.92,2.49-2.7,3.52l-2.17,2.9a81,81,0,0,0-5.15,7.69c-1.68,2.66-3,4.9-4,6.83s-1.85,3.6-2.63,5.24a83.86,83.86,0,0,1-6.18,11.28l-5.13,8.7-3.23,5.38-1.49,2.39a76.35,76.35,0,0,1-5.12,8.19A83.14,83.14,0,0,1,97.48,101c-3.55,4-7,7.48-10.84,11.54-2.72,1.74-5.64,3.62-8.81,5.4a67.91,67.91,0,0,1-10.23,4.71,43.43,43.43,0,0,1-11.31,2.43l-1.43.1-1.43,0c-1,0-1.85,0-2.78-.07a37.53,37.53,0,0,1-5.37-.71,45.91,45.91,0,0,1-8.89-2.82,43.19,43.19,0,0,1-6.8-3.68,36.46,36.46,0,0,1-3-2.26c-1-.81-1.86-1.68-2.77-2.61a38.46,38.46,0,0,1-5.26-6.81,56,56,0,0,1-3.42-8.07A12.53,12.53,0,0,1,14.63,96c-.14-.87-.16-1.89-.23-2.94s0-2.17.06-3.24.18-2.11.19-3.06l-.63.9,0-1.17.15-1.4a23.21,23.21,0,0,1,.35-2.55c.25-1.26,0-1-.27-.72-.53.53-1.07,1.12-.8-1.23a38.67,38.67,0,0,1,7-15.4,44.78,44.78,0,0,1,13-10.09A3.29,3.29,0,0,0,35.09,55c.72-.31,1.45-.6,2.17-.89a22,22,0,0,1,2.18-.81c1.08.16,1,.86,1.75,1,.32.75,2,.88,3.54,1.23s2.74.72,2.31,1.64a5.33,5.33,0,0,1-1.4.8l-1.34.6-1.54.8A23.88,23.88,0,0,0,37.1,63.3c-.53.6,1.31.1,2.23.21a15.48,15.48,0,0,0-2,1.41,3.37,3.37,0,0,0-.78.89c-.17.4.31.42,1.15.14l-1.52,1.21,1.24.06a31.85,31.85,0,0,0-8.94,12.26A30.85,30.85,0,0,0,26.33,93a15.06,15.06,0,0,0,.16,1.61,16.85,16.85,0,0,0,.27,1.89,27.33,27.33,0,0,0,.91,3.74,16,16,0,0,0,2.43,3.82c.46,1.62-.15,1.8-.2,2.72.63.69,1.36,1.48,2.18,2.24a14.83,14.83,0,0,0,1.21,1l1.44,1.06a32.41,32.41,0,0,0,6.46,3.38c4.33,1.73,8.24,2.23,7.87,3.28l3.9.37c1.07.09,2,.23,2.95.28A21.7,21.7,0,0,0,63,118a46.78,46.78,0,0,0,13.6-5.62,70.45,70.45,0,0,0,13.2-10.43,71.49,71.49,0,0,0,6.24-6.84,70.21,70.21,0,0,0,5.2-7.44c1.2-2,2.32-3.89,3.36-5.77,1.41-2.54,2.76-5.1,4.08-7.62s2.61-5,3.83-7.49,2.37-4.91,3.54-7.38,2.38-4.94,3.63-7.33c2.53-4.76,4.92-9.31,7.56-13.91a73.32,73.32,0,0,1,4.36-6.78c.81-1.09,1.68-2.18,2.55-3.19s1.75-2,2.68-3a59.79,59.79,0,0,1,19.84-13.95c1.27-.51,2.57-1,3.8-1.47s2.57-.9,3.9-1.3A49.65,49.65,0,0,1,181.3,6.28a45.89,45.89,0,0,1,17.3,4.41,41.7,41.7,0,0,1,14.86,11.12A30.3,30.3,0,0,1,218.2,30a31.26,31.26,0,0,1,1.38,4.54l.38,2.33c.13.78.13,1.57.2,2.36a37,37,0,0,1-4,17.9,51.43,51.43,0,0,1-4.67,7.75,49.73,49.73,0,0,1-6,6.7,54.37,54.37,0,0,1-14.65,9.77A44.36,44.36,0,0,1,174,85.53a31.39,31.39,0,0,1-8.63-.88,26.51,26.51,0,0,1-7.94-3.49,29.8,29.8,0,0,1-10.6-12.74,28.09,28.09,0,0,1-2-15.81A30.77,30.77,0,0,1,151,38.91a27.61,27.61,0,0,1,5.11-5.2,39.59,39.59,0,0,1,5.68-3.61,25,25,0,0,1,12.86-3.19l1.72.18a14.55,14.55,0,0,1,1.68.39,16.69,16.69,0,0,1,3.18,1.21A18.63,18.63,0,0,1,191,42.59a15.71,15.71,0,0,1-.29,5.18A16.62,16.62,0,0,1,189.13,52a14.59,14.59,0,0,1-2.45,3.37,13,13,0,0,1-1.48,1.31,15.5,15.5,0,0,1-1.42.94,11.88,11.88,0,0,1-5.5,1.25A9.59,9.59,0,0,1,172.59,56.75Z"/><text class="cls-2" transform="translate(70.6 108.19)">P<tspan class="cls-3" x="17.52" y="0">a</tspan><tspan class="cls-4" x="36.5" y="0">is</tspan><tspan class="cls-3" x="62.58" y="0">ano</tspan><tspan class="cls-4" x="117.49" y="0"> </tspan><tspan class="cls-5" x="128.77" y="0">G</tspan><tspan class="cls-6" x="153.86" y="0">ro</tspan><tspan class="cls-7" x="184.63" y="0">u</tspan><tspan class="cls-6" x="202.53" y="0">p</tspan></text></svg>