<?xml version="1.0" encoding="utf-8"?>
<!-- Generator: Adobe Illustrator 26.0.2, SVG Export Plug-In . SVG Version: 6.00 Build 0)  -->
<svg version="1.1" id="Layer_1" xmlns="http://www.w3.org/2000/svg" xmlns:xlink="http://www.w3.org/1999/xlink" x="0px" y="0px"
	 viewBox="0 0 595.3 841.9" style="enable-background:new 0 0 595.3 841.9;" xml:space="preserve">
<style type="text/css">
	.st0{fill:#FEFEFE;}
	.st1{fill:#666666;}
	.st2{fill:#767676;}
	.st3{fill:#727272;}
	.st4{fill:#757575;}
	.st5{fill:#464646;}
	.st6{fill:#454545;}
	.st7{fill:#878787;}
	.st8{fill:#616161;}
	.st9{fill:#797979;}
	.st10{fill:#505050;}
	.st11{fill:#606060;}
	.st12{fill:#CECECE;}
	.st13{fill:#EDEDED;}
	.st14{fill:#9A9A9A;}
	.st15{fill:#737373;}
	.st16{fill:#717171;}
	.st17{fill:#ECECEC;}
	.st18{fill:#595959;}
	.st19{fill:#C6C6C6;}
	.st20{fill:#6A6A6A;}
	.st21{fill:#484848;}
	.st22{fill:#B5B5B5;}
	.st23{fill:#818181;}
	.st24{fill:#898989;}
	.st25{fill:#C5C5C5;}
	.st26{fill:#D3D3D3;}
	.st27{fill:#D0D0D0;}
	.st28{fill:#E6E6E6;}
	.st29{fill:#E2E2E2;}
	.st30{fill:#6B6B6B;}
	.st31{fill:#D2D2D2;}
	.st32{fill:#CFCFCF;}
	.st33{fill:#4F4F4F;}
	.st34{fill:#EEEEEE;}
	.st35{fill:#DBDBDB;}
	.st36{fill:#D5D5D5;}
	.st37{fill:#C7C7C7;}
	.st38{fill:#AFAFAF;}
	.st39{fill:#DADADA;}
	.st40{fill:#2A2A2A;}
	.st41{fill:#7C7C7C;}
	.st42{fill:#5D5D5D;}
	.st43{fill:#7E7E7E;}
	.st44{fill:#7B7B7B;}
	.st45{fill:#4A4A4A;}
	.st46{fill:#E8E8E8;}
	.st47{fill:#D9D9D9;}
	.st48{fill:#B2B2B2;}
	.st49{fill:#E7E7E7;}
	.st50{fill:#C4C4C4;}
	.st51{fill:#949494;}
	.st52{fill:#686868;}
	.st53{fill:#F0F0F0;}
	.st54{fill:#EFEFEF;}
	.st55{fill:#3E3E3E;}
	.st56{fill:#3F3F3F;}
	.st57{fill:#3D3D3D;}
	.st58{fill:#5A5A5A;}
	.st59{fill:#9E9E9E;}
	.st60{fill:#323232;}
	.st61{fill:#565656;}
	.st62{fill:#747474;}
	.st63{fill:#D6D6D6;}
	.st64{fill:#B6B6B6;}
	.st65{fill:#B9B9B9;}
	.st66{fill:#C3C3C3;}
	.st67{fill:#777777;}
	.st68{fill:#EAEAEA;}
	.st69{fill:#6E6E6E;}
	.st70{fill:#EBEBEB;}
	.st71{fill:#5E5E5E;}
	.st72{fill:#8E8E8E;}
	.st73{fill:#303030;}
	.st74{fill:#494949;}
	.st75{fill:#E9E9E9;}
	.st76{fill:#D4D4D4;}
	.st77{fill:#787878;}
	.st78{fill:#7A7A7A;}
	.st79{fill:#F5F5F5;}
	.st80{fill:#B0B0B0;}
	.st81{fill:#7D7D7D;}
	.st82{fill:#F1F1F1;}
	.st83{fill:#828282;}
	.st84{fill:#B7B7B7;}
	.st85{fill:#8D8D8D;}
	.st86{fill:#F9F9F9;}
	.st87{fill:#D7D7D7;}
	.st88{fill:#F6F6F6;}
</style>
<g>
	<path class="st0" d="M490,612.9c-128,0-255.9,0-384,0c0-127.9,0-255.9,0-384c127.9,0,256,0,384,0C490,356.8,490,484.8,490,612.9z
		 M462.8,336.7c-5.7-9-11.3-18-17-27c-0.5-0.7-0.9-1.5-1.5-2.2c-35.8-44.7-82.3-69-139.5-71.8c-35.6-1.8-69,6.8-100,24.6
		c-21.9,12.6-40.6,28.9-55.6,49.3c-5.7,9.2-11.5,18.5-17.2,27.7c-2.3,5-4.5,10-6.8,15c-0.5,1-1,2-1.4,3
		c-16.8,45.9-16.3,91.6,2,136.9c7.2,17.9,17.1,34.3,30,48.8c12.1,14.4,25.9,26.8,42,36.6c11.4,7.6,23.6,13.7,36.7,18
		c0.8,0.4,1.6,0.8,2.4,1.1c40.5,13.6,81.1,13.7,121.5-0.2c32-11,58.8-29.6,80.6-55.5c10-11.1,18.3-23.5,24.4-37
		c5-11.1,8.7-22.8,12.9-34.2c0.4-1.1,0.8-2.1,1.1-3.2c5.8-23.3,7.2-46.8,3.9-70.5c-2.1-15.1-5.7-29.9-11.8-43.9
		C467.5,347.1,465.1,341.9,462.8,336.7z"/>
	<path class="st1" d="M149.4,309.7c15-20.4,33.7-36.7,55.6-49.3c30.9-17.8,64.4-26.4,100-24.6c57.2,2.8,103.7,27,139.5,71.8
		c0.5,0.7,1,1.4,1.5,2.2c-1.4,0.2-2.9,0.6-4.3,0.7c-5.4,0.4-9.6,2.6-12.2,7.5c-6.6-7-12.8-14.3-19.8-20.8
		c-21.7-20.1-47.2-33.3-76.2-39.3c-11.8-2.4-23.9-3.6-35.9-4.1c-8.6-0.4-17.3,1.3-26,2c-3.7-1.2-7.4-3.3-11.3-0.8
		c-2.7,2-5.5,4-8.2,6c-1.4,0.1-3,0-4.3,0.4c-13.2,4.2-25.8,9.7-37.5,17.2c-1,0.6-1.6,1.8-2.4,2.6c-1.1-0.8-2.1-1.5-3.4-2.5
		c-0.7,1.8-1.3,3.3-1.9,4.8c-7.5,6.2-14.9,12.5-22.4,18.7c-0.7,0.8-1.5,1.5-2.2,2.3c-4,4.5-8,9-12,13.5c-2.5-5.1-6.8-7.1-12.2-7.5
		C152.2,310.3,150.8,309.9,149.4,309.7z"/>
	<path class="st2" d="M439.2,541.1c-21.8,25.9-48.7,44.5-80.6,55.5c-40.4,13.9-81,13.7-121.5,0.2c-0.8-0.3-1.6-0.7-2.4-1.1
		c0.3-0.4,0.8-0.9,0.8-1.1c-1.7-6-0.5-11.5,2.3-16.8c27.8,10.2,56.3,13.5,85.5,8.9c38.9-6.2,71.7-23.8,98.3-53
		c2.3-2.6,4.7-5.1,7.1-7.6C434.2,529.6,438.2,534.3,439.2,541.1z"/>
	<path class="st3" d="M156,541.1c-12.8-14.5-22.7-30.9-30-48.8c-18.3-45.3-18.9-91-2-136.9c0.4-1,0.9-2,1.4-3c1.4,0,2.8,0.2,4.1,0
		c5.1-0.9,9.5,1.2,13.9,3c-1.5,4-3,7.9-4.4,11.9c-4.4,0.4-1,2.5-0.9,3.8c-0.4,1-0.9,2.1-1.2,3.1c-6.3,21.5-8.1,43.4-5.6,65.8
		c2.5,22.8,9.2,44.1,20.7,63.9c4.4,7.6,9.6,14.8,14.5,22.2C161,529.6,157,534.3,156,541.1z"/>
	<path class="st4" d="M469.8,352.3c6.1,14.1,9.7,28.8,11.8,43.9c3.3,23.7,1.9,47.3-3.9,70.5c-0.3,1.1-0.7,2.1-1.1,3.2
		c-5.3,2.6-10.6,3.3-16.2,0.7c-0.7-0.3-1.7,0-2.5,0.1c0-0.5,0-1,0.1-1.5c4-14,6.7-28.2,6.6-42.9c0-6.4,0-12.9-0.1-19.3
		c0-1.2,0-2.5,0.1-3.7c-0.8-3.5-1.6-7-2.4-10.5c-1.3-6.2-2.5-12.4-3.8-18.6c-0.2-0.7-0.9-1.5-0.6-2c2.9-6.8-0.5-12.5-3-18.3
		c4.4-0.3,8.8-0.5,13.1-0.8C468.6,353,469.2,352.5,469.8,352.3z"/>
	<path class="st3" d="M457.9,470.6c0.8,0,1.8-0.4,2.5-0.1c5.5,2.7,10.9,1.9,16.2-0.7c-4.3,11.4-7.9,23.1-12.9,34.2
		c-6.1,13.6-14.5,25.9-24.4,37c-1-6.8-5-11.5-10.6-15.1c0.7-1,1.4-2.1,2-3.1c5.6-9,11.8-17.8,16.7-27.2
		C451.6,487.7,454.4,479,457.9,470.6z"/>
	<path class="st2" d="M156,541.1c1-6.8,5-11.5,10.6-15.1c0.7,0.7,1.5,1.3,2.1,2.1c12,14.4,26,26.5,42,36.2c-0.3,1.2-0.6,2.4-1,3.5
		c-2,5.5-6.9,7.7-11.7,9.9C181.9,567.9,168.1,555.5,156,541.1z"/>
	<path class="st2" d="M149.4,309.7c1.4,0.2,2.9,0.6,4.3,0.7c5.4,0.4,9.7,2.4,12.2,7.5c-3.3,4.7-6.5,9.5-9.8,14.2c-0.7,1-1.4,2-2.1,3
		c-2.3,4.2-4.6,8.5-6.8,12.7c-5.7,0.2-9.7-2.6-12.6-7.3c-0.7-1.1-1.6-2.1-2.4-3.2C137.9,328.1,143.6,318.9,149.4,309.7z"/>
	<path class="st4" d="M429.3,317.9c2.6-4.9,6.8-7.1,12.2-7.5c1.4-0.1,2.9-0.5,4.3-0.7c5.7,9,11.3,18,17,27
		c-2.6,5.1-5.7,9.8-11.8,11.2c-2.7-3.3-5.4-6.5-8.2-9.8C438.3,331.4,433.8,324.6,429.3,317.9z"/>
	<path class="st1" d="M198,577.7c4.8-2.3,9.7-4.4,11.7-9.9c0.4-1.1,0.7-2.3,1-3.5c9,4.5,18,9,27,13.4c-2.8,5.3-3.9,10.9-2.3,16.8
		c0.1,0.3-0.5,0.8-0.8,1.1C221.6,591.4,209.5,585.3,198,577.7z"/>
	<path class="st1" d="M132.1,337.4c0.8,1.1,1.7,2.1,2.4,3.2c2.9,4.7,6.9,7.5,12.6,7.3c-1.2,2.5-2.5,5-3.7,7.5
		c-4.5-1.8-8.9-3.9-13.9-3c-1.3,0.2-2.7,0-4.1,0C127.6,347.3,129.9,342.3,132.1,337.4z"/>
	<path class="st3" d="M451,347.9c6.1-1.4,9.2-6.1,11.8-11.2c2.3,5.2,4.7,10.4,7,15.6c-0.6,0.3-1.2,0.7-1.9,0.7
		c-4.4,0.3-8.8,0.6-13.1,0.8C453.5,351.8,452.3,349.9,451,347.9z"/>
	<path class="st5" d="M429.3,317.9c4.5,6.7,9,13.5,13.5,20.2c-0.6,0-1.4,0.2-1.7-0.1c-4.8-3.9-10.6-5.3-16.4-6.8
		c-1.5-1.9-2.9-3.9-4.4-5.8c0.9-1.7,1.9-3.4,2.8-5.1c1.1-6-1-10.5-6.4-13.2c-3.1-1.5-6.3-2.8-9.6-3.8c-3.5-1.1-7.1-1.8-10.7-2.6
		c-10.8-6.8-21.5-13.6-32.3-20.5c-0.2-1.3-0.8-2.7-0.7-4c0.4-5.3-2.3-8.6-6.8-10.7c-5.7,0-11.4,0-17.1,0c-5.7,0-11.5,0-17.2,0
		c-0.8,0.3-1.6,0.5-2.4,0.8c-1.1-0.3-2.1-0.7-3.2-0.8c-10-0.1-20.1-0.1-30.1,0c-1.2,0-2.4,0.9-3.6,1.4c-1.4-1-2.8-2-4.2-3
		c-2.5-2.7-4.9-5.5-7.4-8.2c8.7-0.8,17.4-2.4,26-2c12,0.5,24.2,1.6,35.9,4.1c28.9,6,54.5,19.2,76.2,39.3
		C416.6,303.6,422.8,310.9,429.3,317.9z"/>
	<path class="st6" d="M207.7,281.2c0.8-0.9,1.4-2,2.4-2.6c11.7-7.4,24.3-12.9,37.5-17.2c1.3-0.4,2.9-0.3,4.3-0.4
		c-2,2.2-4.1,4.5-6.1,6.7c-4.2,4-8.4,8-12.6,12c-5.8,3-11.5,5.9-17.3,8.9C213.2,286.1,210.4,283.7,207.7,281.2z"/>
	<path class="st7" d="M207.7,281.2c2.7,2.5,5.4,5,8.1,7.4c2,2.3,4.1,4.5,6.1,6.8c-1.1,0.7-2.4,1.3-3.3,2.3c-2.6,2.5-5.2,5-7.7,7.7
		c-1.7,1.9-3.2,2-5,0.1c-2-2.2-4.3-4.1-6.5-6.2c1-5.2,1.9-10.5,2.9-15.7c0.6-1.5,1.2-2.9,1.9-4.8
		C205.6,279.6,206.7,280.4,207.7,281.2z"/>
	<path class="st8" d="M271.5,255.8c2.5,2.7,4.9,5.5,7.4,8.2c0.1,2.3,0.3,4.7,0.4,7c0.3,4.4,0.7,8.8,1.1,13.2
		c-3.8-3.7-7.7-6.9-13.5-6.1c2.1-1,1.4-2.5,0.8-4c-2.5-6.4-5-12.7-7.5-19.1C264.1,252.5,267.8,254.6,271.5,255.8z"/>
	<path class="st9" d="M260.2,255c2.5,6.4,5,12.7,7.5,19.1c0.6,1.6,1.3,3.1-0.8,4c-2.5,1-5,2.1-7.4,3.1c-4.5-4.5-9.1-9-13.6-13.6
		c2-2.2,4.1-4.5,6.1-6.7C254.7,259,257.4,257,260.2,255z"/>
	<path class="st10" d="M177.8,304.4c0.7-0.8,1.5-1.5,2.2-2.3c1.8,0,3.5,0,5.3,0c0.6,0.8,1.3,1.5,1.9,2.3c5.4,6.3,11.6,9.1,19.7,4.9
		c0.8-0.4,2.8,0.7,3.8,1.6c0.4,0.4,0.1,2.1-0.4,3c-0.6,1.2-1.7,2.1-2.6,3.1c-2.7-0.2-3.8,1.1-3.7,3.7c-1.8,1.4-3.6,2.9-5.4,4.3
		c0,0-0.2,0.2-0.2,0.2c-3.6-3.7-7.1-7.6-11-11.1c-2.3-2.1-5.3-3.5-8-5.2C180.5,306.9,179.8,305.5,177.8,304.4z"/>
	<path class="st6" d="M177.8,304.4c2,1,2.6,2.5,1.5,4.6c-1,6.4-1.3,13.1-5.6,18.5c-3.3,3.7-8.2,3.3-12.4,4.6c-1.8,0-3.5,0-5.3,0
		c3.3-4.7,6.5-9.5,9.8-14.2C169.8,313.4,173.8,308.9,177.8,304.4z"/>
	<path class="st6" d="M185.3,302.2c-1.8,0-3.5,0-5.3,0c7.5-6.2,14.9-12.5,22.4-18.7c-1,5.2-1.9,10.5-2.9,15.7
		C194.8,300.2,190.1,301.2,185.3,302.2z"/>
	<path class="st6" d="M237.7,577.7c-9-4.5-18-9-27-13.4c-16-9.7-30-21.8-42-36.2c-0.6-0.8-1.4-1.4-2.1-2.1
		c-4.9-7.4-10.1-14.6-14.5-22.2c-11.5-19.8-18.3-41.1-20.7-63.9c-2.4-22.3-0.7-44.2,5.6-65.8c0.3-1.1,0.8-2.1,1.2-3.1
		c2.8,4.7,5.5,9.5,8.3,14.2c-2,3.8-4,7.5-6.1,11.3c-1.5,2.3-2.9,4.6-4.4,6.9c2,3.2,4,6.4,6,9.7c0,5.5,0,10.9,0,16.4
		c-0.5,1-1.1,2-1.6,3.1c-1.3,1.9-2.6,3.9-4.6,6.8c3.1,0,5.1,0,7,0c2.3,10.4,4.5,20.8,6.8,31.3c0.5,1.1,0.9,2.1,1.4,3.2
		c0.7,2.1,1.4,4.2,2.2,6.3c4.9,11.7,10.6,23,18.6,32.9c7,10.5,15.7,19.5,25.5,27.6c-0.3,1-0.6,2.1-0.9,3.4c2.9,1.6,5.7,3.2,8.5,4.7
		c2.8,1.3,5.5,2.5,8.3,3.8c6.7,3.6,13.4,7.2,20.1,10.9c2,0.9,4,1.7,6,2.6c2.2,1.5,4.4,3.1,6.7,4.3c0.7,0.4,2-0.3,3-0.5
		c2.4,1,4.8,1.8,7,3c4.9,2.4,9.8,5,14.7,7.6c5.5,1,10.9,1.9,16.4,2.9c1,0,2,0,3,0c1.3,0,2.5,0,3.8,0c4.2-0.7,8.4-1.5,12.6-2.2
		c3.8-1.7,7.6-3.3,11.4-5c17.1-1.7,33.1-7,48.4-14.4c2.1,3.7,4.7,3.5,7.6,0.9c1.1-1,2.4-1.6,3.7-2.4c2.2-1.4,4.3-2.9,6.5-4.1
		c2.6-1.4,3.2-3.1,1.7-5.6c4-3.2,8.1-6.4,12.1-9.6c0.5-0.5,0.9-1,1.4-1.5c3.3-3,6.5-6,9.8-9c2.4,1.6,4.8,3.1,8.1,5.2
		c0-5,0-8.9,0-12.8c0-0.5,0-1,0.1-1.6c10.3-11.8,18.2-25,24-39.6c6.5,0,6.6-0.1,7.5-5.2c1.4-4,2.8-8,4.4-12.3
		c-2.3-0.2-3.8-0.3-5.2-0.4c4.4-16.9,6.2-34.2,5.2-51.7c0-2.5,1.8-1.9,3.4-2.3c2.7-0.6,5.3-1.5,8-2.2c0,6.4,0,12.9,0.1,19.3
		c0.1,14.7-2.5,28.9-6.6,42.9c-0.1,0.5-0.1,1-0.1,1.5c-3.5,8.4-6.3,17-10.5,25c-5,9.4-11.1,18.2-16.7,27.2c-0.7,1.1-1.3,2.1-2,3.1
		c-2.4,2.5-4.8,5.1-7.1,7.6c-26.6,29.2-59.4,46.8-98.3,53C293.9,591.3,265.4,587.9,237.7,577.7z"/>
	<path class="st6" d="M143.4,355.3c1.2-2.5,2.5-5,3.7-7.5c2.3-4.2,4.6-8.5,6.8-12.7c3,2.7,5.9,5.4,8.9,8c-3.7,8-7.5,16.1-11.2,24.1
		c-4.2,0-8.4-0.1-12.6-0.1C140.4,363.2,141.9,359.3,143.4,355.3z"/>
	<path class="st7" d="M139,367.2c4.2,0,8.4,0.1,12.6,0.1c2.8,0,5.5,0.1,8.3,0.1c0,6,0,11.9,0,17.9l-0.1-0.1c-4.5,0-8.9,0-13.4,0
		c-2.8-4.7-5.5-9.5-8.3-14.2C138,369.7,134.6,367.6,139,367.2z"/>
	<path class="st11" d="M462.2,392.7c0.8,3.5,1.6,7,2.4,10.5c-0.5-0.7-1-1.5-1.6-2.2c-1.9-1.6-3.6-3.5-5.7-4.7
		c-10.5-6-21.9-6.2-33.3-4.1c-6.2,1.2-12.2,3.4-16.4,8.7c-0.7,1-1.5,2-2.2,3c0-1.7,0.1-3.4,0.1-5.1c0.5-1.3,1-2.6,1.5-3.9
		c0.1-0.2,0.1-0.5,0.2-0.7c1.6-1.7,3.3-3.3,4.9-5c2.2-0.8,4.4-1.7,6.7-2.5c0.6-0.2,1.1-0.6,1.7-0.6c9-0.1,18-0.1,26.9-0.1
		c2,0.5,4,1,6,1.5C456.3,389.2,459.3,391,462.2,392.7z"/>
	<path class="st11" d="M424.8,331.2c5.8,1.5,11.6,2.8,16.4,6.8c0.4,0.3,1.1,0.1,1.7,0.1c2.7,3.3,5.4,6.5,8.2,9.8
		c1.3,2,2.5,4,3.8,5.9c2.5,5.8,6,11.5,3,18.3c-0.2,0.5,0.4,1.3,0.6,2c-1.5,1-3,1.9-4.5,2.9c0.3-1.2,0.6-2.5,0.8-3.7
		c-0.1-2.1,0.3-4.3-0.3-6.2c-4.9-15.7-15.3-26.1-31-31c-1.9-0.6-4.1-0.2-6.2-0.3c-1,0-2,0-3,0C417.2,332.9,420.6,331.3,424.8,331.2z
		"/>
	<path class="st6" d="M453.9,377c1.5-1,3-1.9,4.5-2.9c1.3,6.2,2.5,12.4,3.8,18.6c-3-1.8-6-3.5-9-5.3c0-0.5-0.1-0.9-0.1-1.4
		c-0.2-2.8-0.4-5.5-0.6-8.3C453,377.5,453.5,377.2,453.9,377z"/>
	<path class="st12" d="M463,401c0.5,0.7,1,1.5,1.6,2.2c0,1.2,0,2.5-0.1,3.7c-2.7,0.8-5.3,1.7-8,2.2c-1.5,0.3-3.4-0.2-3.4,2.3
		c0-1,0.1-2,0.1-3C456.6,406,459.8,403.5,463,401z"/>
	<path class="st10" d="M162.8,343.2c-3-2.7-5.9-5.4-8.9-8c0.7-1,1.4-2,2.1-3c1.8,0,3.5,0,5.3,0c5.7,7.3,12.2,12.3,22,7
		c0.7-0.4,2.6,0.9,3.5,1.9c0.4,0.4,0.3,2.2-0.3,2.8c-3.6,3.9-7.4,7.7-11.1,11.5c-2.2-1.7-4.5-3.5-6.7-5.2
		C166.8,347.8,164.8,345.5,162.8,343.2z"/>
	<path class="st13" d="M364.2,280.2c10.8,6.8,21.5,13.6,32.3,20.5c-1.7,0.2-3.4,0.4-5,0.7c-6,1.2-12.3,2-18,4
		c-6.2,2.2-10.6,6.5-10,14c-3.5,0.8-6.9,1.7-10.4,2.5c-1.2-0.9-2.4-1.7-3.5-2.6c-2.1-1.6-4.2-3.3-6.3-5c-0.2-0.3-0.4-0.5-0.6-0.8
		c1-0.1,1.9-0.1,2.9-0.2c1.9,0,3.8,0,6,0c0-2.2,0-4,0-5.8c2.2-2.6,4.2-5.6,6.8-7.8c4.7-4.2,6-9.4,5-15.3
		C363.6,282.9,363.9,281.5,364.2,280.2z"/>
	<path class="st14" d="M283.1,267c1.2-0.5,2.4-1.4,3.6-1.4c10-0.1,20-0.1,30.1,0c1.1,0,2.1,0.5,3.2,0.8c-4.5,3.4-4.7,8.3-4.4,13.4
		c-1.5,2.3-2.9,4.5-4.4,6.8c-6-3.9-9.8-3.7-15.8,0.7c-2.6-5.9-5.2-11.7-7.8-17.7c-0.8-1.9-1.8-3.3-4.1-2.5L283.1,267z"/>
	<path class="st8" d="M315.5,279.7c-0.2-5-0.1-9.9,4.4-13.4c0.8-0.3,1.6-0.5,2.4-0.8c3,7.2,6,14.4,8.9,21.6
		c-1.2,3.3-2.9,6.5-3.6,9.9c-0.6,3.1-0.2,6.4-0.2,9.6c-2.2-1.7-4.4-3.5-6.7-5.2c-1.8-2-3.5-4-5.3-6c-0.2-0.5-0.5-1-0.7-1.5
		C315,289.2,315.2,284.4,315.5,279.7z"/>
	<path class="st15" d="M363.4,319.3c-0.6-7.5,3.8-11.8,10-14c5.8-2,12-2.7,18-4c1.7-0.3,3.4-0.5,5-0.7c3.6,0.8,7.2,1.5,10.7,2.6
		c3.3,1,6.5,2.3,9.6,3.8c5.4,2.7,7.5,7.3,6.4,13.2c-0.7-1-1.4-2.1-2.1-3.1c-2-1.6-3.8-3.7-6-4.8c-13-6.7-26.6-6.6-40-1.8
		c-3.5,1.2-6.2,4.4-9.3,6.6c-0.6,1-1.1,2-1.7,2.9C363.8,319.8,363.6,319.6,363.4,319.3z"/>
	<path class="st8" d="M364.2,280.2c-0.3,1.3-0.6,2.7-0.9,4c-3.9,5-7.9,9.9-11.8,14.9c0.1-4.4-0.7-8.6-3.7-12
		c3-7.2,5.9-14.4,8.9-21.6c4.6,2.1,7.2,5.4,6.8,10.7C363.4,277.5,364,278.9,364.2,280.2z"/>
	<path class="st16" d="M331.3,287.2c-3-7.2-6-14.4-8.9-21.6c5.7,0,11.5,0,17.2,0c0,5.9,0,11.9,0,17.8
		C336.8,284.6,334,285.9,331.3,287.2z"/>
	<path class="st9" d="M339.5,283.4c0-5.9,0-11.9,0-17.8c5.7,0,11.4,0,17.1,0c-3,7.2-5.9,14.4-8.9,21.6
		C345,285.9,342.3,284.6,339.5,283.4z"/>
	<path class="st17" d="M424.8,331.2c-4.1,0.1-7.5,1.7-10.3,4.7c-0.3,0-0.6,0-0.9,0.1c-2.5-1.1-4.9-2.2-7.4-3.2
		c-0.2-3.7-0.6-7.4-0.5-11.1c0-0.8,1.8-2,2.8-2c1,0,2.2,1.2,2.8,2.1c0.5,0.7,0.2,1.9,0.2,2.9c3,0.2,5.9,0.5,8.9,0.7
		C421.8,327.3,423.3,329.3,424.8,331.2z"/>
	<path class="st18" d="M280.4,284.2c-0.4-4.4-0.7-8.8-1.1-13.2c-0.2-2.3-0.3-4.7-0.4-7c1.4,1,2.8,2,4.2,3c0,0,0.4-0.1,0.4-0.1
		c0.7,2,1.8,3.9,2,5.9c0.7,5.8,1.1,11.6,1.5,17.4C284.8,288.2,282.6,286.2,280.4,284.2z"/>
	<path class="st19" d="M420.4,325.4c-3-0.2-5.9-0.5-8.9-0.7c3.2-2.5,6.4-5,9.7-7.5c0.7,1,1.4,2.1,2.1,3.1
		C422.2,322,421.3,323.7,420.4,325.4z"/>
	<path class="st13" d="M222,295.4c-2-2.3-4.1-4.5-6.1-6.8c5.8-3,11.5-5.9,17.3-8.9c-0.2,0.7-0.4,1.5-0.7,2.2
		c-2.1,5.9-0.7,9.4,5.9,14.9c2.8,2.9,5.5,6,8.6,8.7c1.5,1.3,3.7,2.3,5.7,2.5c5.4,0.6,10.8,0.7,16.3,1c1.2,1.4,2.5,2.9,3.7,4.3
		c-5.5,0.2-11,0.4-16.5,0.6c-4.5,1.3-6.4,4.5-6.8,8.9c-1.2-1-2.4-2-3.5-3c-4.9-4.9-9.8-9.8-14.8-14.8
		C228.2,301.8,225.1,298.6,222,295.4z"/>
	<path class="st16" d="M232.5,281.9c0.2-0.7,0.4-1.5,0.7-2.2c4.2-4,8.4-8,12.6-12c4.5,4.5,9.1,9,13.6,13.6c-1.3,3.2-2.5,6.5-3.8,9.7
		C247.9,287.9,240.2,284.9,232.5,281.9z"/>
	<path class="st20" d="M222,295.4c3.1,3.2,6.2,6.5,9.2,9.7c-1.2,0.6-3.4,1.1-3.5,1.9c-0.2,1.3,0.5,3.1,1.5,4.2
		c3.4,3.7,7,7.4,10.8,10.8c1,1,2.9,1.7,4.2,1.5c0.8-0.1,1.3-2.3,1.9-3.5c1.2,1,2.4,2,3.5,3c1,1.1,2.1,2.2,3.1,3.3
		c-0.9,0.6-2,1-2.8,1.7c-7,6.7-14,13.5-21,20.1c-1.3,1.2-3.1,1.9-4.6,2.8c-0.3-0.2-0.5-0.5-0.8-0.7c-0.3-0.2-0.5-0.5-0.8-0.7
		c0-0.4,0-0.7,0-1.1c-0.1-2-0.2-4.1-0.3-6.1c-1.9,0.4-3.8,0.8-5.7,1.2c-2.8-2.8-5.6-5.5-8.3-8.3c-3.2-3.2-6.4-6.5-9.7-9.7
		c0,0-0.1-0.2-0.1-0.2c1.8-1.4,3.6-2.9,5.4-4.3c1.1,3.7,2.6,7.1,7.5,6.7c3,3.4,6,6.9,9.1,10.2c0.9,0.9,2.2,1.8,3.5,2
		c1.3,0.2,2.7-0.5,4.1-0.8c-0.3-1.2-0.3-2.7-1.1-3.6c-3.6-3.9-7.4-7.7-11.3-11.3c-0.9-0.8-2.8-0.7-4.2-1c-1.2-2-2.5-4-3.7-6
		c0.9-1,2-1.9,2.6-3.1c0.5-0.9,0.8-2.6,0.4-3c-1-0.9-3-2-3.8-1.6c-8.1,4.1-14.3,1.4-19.7-4.9c-0.6-0.8-1.3-1.5-1.9-2.3
		c4.7-1,9.5-2,14.2-3c2.2,2.1,4.4,4,6.5,6.2c1.8,1.9,3.2,1.8,5-0.1c2.5-2.6,5-5.2,7.7-7.7C219.6,296.7,220.9,296.1,222,295.4z
		 M221.5,313.3c-1,0.7-2.3,1.1-2.6,1.9c-0.3,1-0.2,2.7,0.5,3.4c4.1,4.5,8.3,8.9,12.7,13c0.8,0.8,3,0,4.6,0c-0.2-1.5,0.1-3.5-0.8-4.5
		c-3.7-4.1-7.8-8-11.8-11.9C223.4,314.5,222.5,314.1,221.5,313.3z M216,307.3c0.5,0.4,1.3,1.8,2.4,1.9c2.2,0.3,5.1-4.1,4.9-7.4
		c-0.1-0.9-1.3-2.2-2.1-2.4C219.1,299.1,216.1,303.2,216,307.3z"/>
	<path class="st21" d="M255.7,290.9c1.3-3.2,2.5-6.5,3.8-9.7c2.5-1,5-2.1,7.4-3.1c5.8-0.8,9.8,2.3,13.5,6.1c2.2,2,4.4,4,6.6,6
		c1.3,1.5,2.6,2.9,3.9,4.4c0,0.3,0,0.6,0,0.9c-1.3,1.3-2.5,2.5-3.8,3.8c-1.2-1.1-2.4-2.1-3.6-3.3c-3.2-3.1-6.3-6.4-9.5-9.5
		c-3-2.8-7.2-3-9.7-0.6c-2.6,2.5-2.4,6.8,0.5,10c0.8,0.9,1.8,1.8,2.6,2.7c3.4,3.5,6.7,7,10,10.5c-1.3,1.4-2.5,2.9-3.8,4.3
		c-0.3,0-0.6,0-0.9,0.1c-1.2-1.4-2.5-2.9-3.7-4.3c-2.7-2.8-5.5-5.6-8.2-8.4C259.2,297.4,257.4,294.2,255.7,290.9z"/>
	<path class="st20" d="M175.5,355.3c3.7-3.8,7.5-7.6,11.1-11.5c0.5-0.6,0.7-2.3,0.3-2.8c-0.9-0.9-2.8-2.2-3.5-1.9
		c-9.8,5.2-16.3,0.3-22-7c4.2-1.3,9.1-0.9,12.4-4.6c1.6,1.4,3.2,2.7,4.7,4.2c6.1,6,6,6,12.3-0.1c2.3-2.3,5.1-4.2,7.6-6.2
		c0,0,0.2-0.2,0.2-0.2c0,0,0.1,0.2,0.1,0.2c2.3,2.5,4.5,5.1,6.8,7.6c-0.9,1.3-1.7,2.7-2.8,3.9c-5,5.2-10.1,10.4-15.1,15.5
		c-1.5,0.2-3.3-0.1-4.5,0.6c-2.2,1.5-4.1,3.5-6.1,5.4C176.5,357.3,176,356.3,175.5,355.3z"/>
	<path class="st7" d="M198.3,325.3c-2.5,2.1-5.3,4-7.6,6.2c-6.3,6.1-6.2,6.1-12.3,0.1c-1.5-1.5-3.1-2.8-4.7-4.2
		c4.2-5.5,4.6-12.1,5.6-18.5c2.7,1.7,5.6,3.1,8,5.2C191.2,317.7,194.7,321.6,198.3,325.3z"/>
	<path class="st3" d="M207.8,317.1c1.2,2,2.5,4,3.7,6c0,1.5,0,3,0,4.5c-4.8,0.3-6.3-3-7.5-6.7C203.9,318.3,205.1,317,207.8,317.1z"
		/>
	<path class="st22" d="M317.9,575.6c-3.8,1.7-7.6,3.3-11.4,5c-1.3-0.9-2.7-1.7-4-2.7c-6.1-5-12.2-10.1-18.4-15.1c2.6,0,5.3,0,8.1,0
		c-1.1-5.7-1.1-5.6-5.9-4.3c-1.9,0.5-3.9,0.4-5.9,0.6c-3.1-0.9-5.8-2.1-6.7-5.8c-0.5-2.1-1.5-4.2-2.3-6.2c2.5,0,5,0,7.5,0
		c-1.1,0.9-2.2,1.8-3.6,2.8c3.1,3.2,6.5,3.6,10.1,2.7c1.4-0.4,2.7-1.5,4.1-2.2c-1-1-2-1.9-3-2.9c-0.3-0.3-0.6-0.8-0.9-1.2
		c3.7-0.3,7.5-0.3,11.1-0.9c8-1.3,16-2.9,24.1-4.4c1-0.2,2-0.5,2.9-0.7c7.5-2.5,15-5,22.5-7.5c0.7,0.8,1.5,1.5,2.2,2.3
		c1.3,2,2.5,4,3.8,6c-11.9,5-24.4,7.7-37.2,8.9c-6.9,0.7-13.9,1-20.8,1.6c-0.8,0.1-1.5,0.9-2.3,1.4c0.6,0.5,1.2,1,1.8,1.5
		c0,4.4,3.6,4.2,6.3,4.3c2.8,0.1,6.4,0.5,7.4-3.6c0.1-0.2-0.1-0.5-0.2-0.7c8.2-0.5,16.5-1,24.7-1.5c-0.8,1-1.7,1.9-2.5,2.9
		c3.2,3.3,7.6,4,11.7,2.1c0.8-0.4,1.4-1.2,2.1-1.9c-0.8-0.7-1.4-1.8-2.3-2.1c-2.5-0.8-5-1.2-7.6-1.8c6.5-1.3,13.1-2.6,19.6-4
		c1.1-0.2,1.9-1.3,2.9-2c2.2,3.1,4.4,6.1,6.6,9.2c-3.5,2.7-6.9,5.4-10.4,8.1c-3.6-1.7-7.1-3-10.6,0.3c-0.8,0.8-2.3,0.8-3.5,1.2
		c-3-0.8-6.1-1.5-9.1-2.3c-1.3-4.8-4.8-5.6-9.2-5.3c-2.1,0.1-4.2,0.1-6.2-0.3c-2.9-0.6-4.2,0.4-4.1,3.4c-1,1.2-1.9,2.4-3,3.7
		c6.2,1.9,12.1,3.6,17.9,5.4c-1.1,0.9-2.2,1.7-3.2,2.6C320.2,573.2,319.1,574.5,317.9,575.6z"/>
	<path class="st15" d="M417.3,522.3c0,3.9,0,7.8,0,12.8c-3.2-2.1-5.7-3.7-8.1-5.2c-3.2-2.2-6.4-4.5-9.6-6.7c-1-0.4-2.1-0.7-3.1-1.1
		c-14.8-6.5-30.1-11.6-46.1-14.2c-6.1-1-12.2-1.7-18.4-2.6c2.2-2.8,4.5-5.6,6.7-8.4c2.2-3.2,4.5-6.5,6.7-9.7c3.8,0.5,7.5,1,11.3,1.5
		c-0.1,9.1,1.6,11.1,10.6,13.2c3.5,0.8,7,1.6,10.5,2.5C392,508,405.4,513.6,417.3,522.3z"/>
	<path class="st23" d="M248.9,569.5c-1,0.2-2.3,0.9-3,0.5c-2.3-1.2-4.5-2.9-6.7-4.3c0.6-1.2,1-2.5,1.8-3.7c10.4-17,20.9-34,31.3-51
		c3.6-5.9,2.9-10.9-1.6-15.6c0.9-2.2,1.9-4.4,2.8-6.6c3.6,1.2,7.1,2.4,10.7,3.6c2.3,1.8,4.6,3.5,6.9,5.3c-0.3,0.5-0.5,1-0.8,1.5
		c-1.3,2.2-2.5,4.5-3.8,6.7c-1,1.7-2,3.5-3.1,5.2c-1.2,2-2.4,4-3.6,6.1c-1.6,2.7-3.1,5.4-4.7,8.1c-1.5,2.5-3,5-4.4,7.6
		c-0.6,1-1.1,1.9-1.7,2.9c-0.7,1.2-1.4,2.4-2.1,3.7c-1.4,2.3-2.8,4.7-4.3,7c-0.5,1-1.1,1.9-1.6,2.9c-1.5,2.5-3,5-4.4,7.6
		c-0.8,1.5-1.7,2.9-2.5,4.4C252.3,563.9,250.6,566.7,248.9,569.5z"/>
	<path class="st23" d="M213,552.2c-2.8-1.3-5.5-2.5-8.3-3.8c4.7-8.3,9.4-16.6,14.2-24.9c5.3-9.2,10.7-18.2,15.8-27.5
		c3.2-5.8,2-12.4-2.2-15.5c1.8-3,3.5-6,5.2-9c1.1-2,2.6-2.5,4.6-1.2c0.9,0.6,1.9,1.2,2.9,1.8c2.6,1.5,5.3,3,7.9,4.4
		c0.8,0.8,1.7,1.6,2.5,2.3c-4.8,8.1-9.6,16.3-14.3,24.4c-3.8,6.5-7.4,13.1-11.2,19.7c-5,8.5-10,17-15,25.4
		C214.5,549.7,213.8,551,213,552.2z"/>
	<path class="st24" d="M448,463.1c1.5,0.1,2.9,0.2,5.2,0.4c-1.5,4.3-3,8.3-4.4,12.3c-5.7-0.1-11.6,0.6-17.1-0.5
		c-11.2-2.2-22.3-5.1-33.3-8.2c-8.9-2.5-11-5.9-11-15.2c11.6,5.5,23.7,9.2,36.5,10.6c4.3,0.4,8.6,1.1,12.9,1.3
		C440.6,463.9,444.3,463.3,448,463.1z"/>
	<path class="st25" d="M232.5,480.6c4.2,3.1,5.3,9.7,2.2,15.5c-5.1,9.3-10.5,18.3-15.8,27.5c-4.8,8.3-9.5,16.6-14.2,24.9
		c-2.8-1.6-5.6-3.1-8.5-4.7c0.4-1.3,0.7-2.4,0.9-3.4c3.8-6.5,7.5-12.9,11.3-19.4c0.4-0.3,0.8-0.6,1.1-1
		C217.2,506.8,224.9,493.7,232.5,480.6z"/>
	<path class="st25" d="M270.7,495.4c4.5,4.8,5.1,9.8,1.6,15.6c-10.4,17-20.8,34-31.3,51c-0.7,1.2-1.2,2.4-1.8,3.7
		c-2-0.9-4-1.7-6-2.6c-0.5-1.1-1-2.1-1.5-3.2c1.5-2.1,3-4.1,4.5-6.2c0.7-1,1.4-2,2-3.1C249,532.2,259.8,513.8,270.7,495.4z"/>
	<path class="st26" d="M441.3,481.1c-5.7,14.6-13.7,27.7-24,39.6c0-1.2-0.2-2.5,0-3.7c0.7-4.3-1-6.9-5.2-8.5
		c-7.9-3.1-15.5-6.7-23.3-10.1c3.7-2.6,7.4-5.2,11.1-7.9c0.3-0.2,0.1-1.1,0.2-1.7c7.3,2.6,14.6,5.1,21.8,7.8c8,2.9,8,3,9.8-5.4
		c1.3-3.5,2.5-7.1,3.8-10.6C437.5,480.6,439.4,480.9,441.3,481.1z"/>
	<path class="st24" d="M388.9,498.4c7.8,3.4,15.4,7,23.3,10.1c4.1,1.6,5.9,4.2,5.2,8.5c-0.2,1.2,0,2.5,0,3.7c0,0.5,0,1-0.1,1.6
		c-11.9-8.7-25.3-14.2-39.4-18c-3.5-0.9-7-1.7-10.5-2.5c-9-2.1-10.7-4.1-10.6-13.2c1.3,0.2,2.7,0.3,4,0.7
		C370.2,492.3,379.5,495.3,388.9,498.4z"/>
	<path class="st26" d="M171.7,512.8c-8-9.9-13.7-21.2-18.6-32.9c-0.9-2-1.5-4.2-2.2-6.3c6.2,1.3,12.4,2.5,18.6,3.8
		c1,4.7,2.1,9.4,3.1,14.2c0.3,2.3,0.7,4.7,1.2,7.8c5.6-5.4,10.4-10.1,15.1-14.7c1.3,1.1,2.6,2.1,3.9,3.2c-6.6,6.7-13.2,13.3-19.7,20
		c-0.9,0.9-0.9,2.7-1.4,4C171.8,512.2,171.7,512.5,171.7,512.8z"/>
	<path class="st24" d="M399.4,538.9c-0.5,0.5-0.9,1-1.4,1.5c-8.5-4-17-8.1-25.6-12.1c-0.8-0.4-1.9,0.1-2.8,0.1
		c-9-4.1-18.5-5.4-28.4-5c-0.3,0-0.7,0.3-1,0.5c-1.5-0.6-3-1.1-4.5-1.7c3.5-7.8,7.7-10.1,16-8.1c6.4,1.5,12.8,3.2,19,5.4
		c9.6,3.4,19,7.3,28.5,11C399.3,533.3,399.4,536.1,399.4,538.9z"/>
	<path class="st15" d="M340.2,523.9c0.3-0.2,0.7-0.5,1-0.5c9.8-0.4,19.3,0.9,28.4,5c5.4,7.2,10.9,14.4,16.3,21.5
		c1.5,2.5,0.9,4.2-1.7,5.6c-2.3,1.2-4.4,2.7-6.5,4.1c-2.2-4-4.9-7.8-6.6-12c-4.3-10.2-11.7-14.3-22.5-12.5c-0.7-0.8-1.5-1.5-2.2-2.3
		c-1.7-2.3-3.4-4.6-5-6.8C340.9,525.3,340.5,524.6,340.2,523.9z"/>
	<path class="st26" d="M448,463.1c-3.7,0.3-7.4,0.8-11.1,0.7c-4.3-0.1-8.6-0.8-12.9-1.3c2.8-3.7,5.6-7.5,8.3-11.2
		c3.1,0,6.2-0.1,9.3-0.1c5.8,0,5.8,0,5.6-5.9c0.5-11.6,0.5-11.6-9.4-12.1c1.3-0.7,2.7-1.3,4-2c4.5-2.6,6.4-7.8,4.9-12.8
		c0.5-1.3,1-2.6,1.5-3.9c0.8-3.7,1.5-7.5,2.3-11.2c3.5,0.3,2.9,3,3,5.2c0,1-0.1,2-0.1,3C454.2,428.9,452.4,446.1,448,463.1z"/>
	<path class="st15" d="M441.3,481.1c-1.9-0.2-3.9-0.5-5.8-0.7c-19.9-1.9-38.9-7.4-57-15.8c0.9-4.7,1.9-9.4,2.8-14.1
		c0-0.5,0.1-1.1,0.1-1.6c2,0.8,4,1.5,6,2.3c-0.1,0.2-0.1,0.5-0.1,0.7c0,9.3,2.1,12.7,11,15.2c11,3.1,22.1,6,33.3,8.2
		c5.5,1.1,11.4,0.4,17.1,0.5C447.9,481.1,447.8,481.1,441.3,481.1z"/>
	<path class="st24" d="M348.4,535.1c10.8-1.8,18.2,2.3,22.5,12.5c1.8,4.2,4.4,8,6.6,12c-1.2,0.8-2.6,1.5-3.7,2.4
		c-2.9,2.6-5.4,2.8-7.6-0.9c-1.3-1.9-2.5-3.9-3.8-5.8c-2.2-3.1-4.4-6.1-6.6-9.2c-1.3-1.7-2.5-3.5-3.8-5.2
		C351,539.1,349.7,537.1,348.4,535.1z"/>
	<path class="st7" d="M169.5,477.4c-6.2-1.3-12.4-2.5-18.6-3.8c-0.5-1.1-0.9-2.1-1.4-3.2c4.7-4.6,9.3-9.3,14-13.9
		c0.5-0.3,1.1-0.6,1.6-0.9c3.7,3.5,7.3,7.1,11,10.6c1.7,1.6,1.3,2.9-0.2,4.4C173.7,472.9,171.6,475.2,169.5,477.4z"/>
	<path class="st7" d="M141.9,413c-2-3.2-4-6.4-6-9.7c8,0,15.9-0.1,23.9-0.1c0,6,0,11.9,0,17.9c-4,0-7.9,0-11.9,0.1
		C145.9,418.5,143.9,415.8,141.9,413z"/>
	<path class="st26" d="M163.5,456.6c-4.7,4.6-9.3,9.3-14,13.9c-2.3-10.4-4.5-20.8-6.8-31.3c1.7,0,3.4,0,5.1,0
		c0.4,1.1,0.6,2.6,1.3,3.4C153.8,447.3,158.7,451.9,163.5,456.6z"/>
	<path class="st26" d="M362.6,555.4c1.3,1.9,2.5,3.9,3.8,5.8c-15.4,7.4-31.4,12.7-48.4,14.4c1.1-1.2,2.2-2.4,3.4-3.5
		c1-0.9,2.1-1.7,3.2-2.6c1.7-0.6,3.5-1.2,6.3-2.1c-2.6-1.3-4-2.2-5.5-2.7c-4.7-1.5-9.5-2.8-14.2-4.2c6,0.7,12,1.5,17.9,2.2
		c3,0.8,6.1,1.5,9.1,2.3c4.7-0.5,9.4-1,14.1-1.5C355.7,560.8,359.1,558.1,362.6,555.4z"/>
	<path class="st27" d="M262.5,546.3c1.4-2.3,2.8-4.7,4.3-7c1.5,2.6,3.1,5.1,4.6,7.7c0.8,2.1,1.8,4.1,2.3,6.2
		c0.9,3.6,3.6,4.8,6.7,5.8c1.2,1.3,2.5,2.5,3.7,3.8c6.1,5,12.2,10.1,18.4,15.1c1.2,1,2.7,1.8,4,2.7c-4.2,0.7-8.4,1.5-12.6,2.2
		c0.7-0.4,1.4-0.8,2.4-1.4c-12.4-9.9-22-22.1-31.9-34C263.9,547,263.1,546.7,262.5,546.3z"/>
	<path class="st26" d="M171.7,512.8c0-0.3,0-0.6,0.1-0.8c2.5,2.4,5,4.9,7.5,7.3c2.6,2.7,5.3,5.4,7.9,8.1c1.4-1.2,2.3-2,3.3-2.8
		c0.8,0.2,1.7,0.4,2.5,0.7c2.3,1.2,4.5,2.3,7,3.6c5.9-9.9,11.5-19.5,17.2-29c-0.2,2.2-1.1,4.1-2,6c-2.3,5.1-4.5,10.1-6.7,15.2
		c-3.8,6.5-7.5,12.9-11.3,19.4C187.4,532.3,178.7,523.3,171.7,512.8z"/>
	<path class="st26" d="M385.9,549.9c-5.4-7.2-10.9-14.4-16.3-21.5c1-0.1,2.1-0.5,2.8-0.1c8.6,3.9,17.1,8,25.6,12.1
		C394,543.5,389.9,546.7,385.9,549.9z"/>
	<path class="st21" d="M159.8,403.3c-8,0-15.9,0.1-23.9,0.1c1.5-2.3,2.9-4.6,4.4-6.9c3.8,0,7.5,0,11.3,0c1.4,0.9,2.9,1.7,4.3,2.6
		c0.3-1.6,0.7-3.3,1-4.9c0.1-0.5,0-1-0.1-1.5c1-2.5,2-5,2.9-7.5c0,0,0.1,0.1,0.1,0.1c2,0,4,0,6,0c0,6,0,12,0,18
		C163.8,403.3,161.8,403.3,159.8,403.3z"/>
	<path class="st28" d="M254,561.2c0.8-1.5,1.7-2.9,2.5-4.4c10.2,8.7,20.4,17.4,30.6,26.1c-5.5-1-10.9-1.9-16.4-2.9
		C265.1,573.7,259.5,567.4,254,561.2z"/>
	<path class="st29" d="M262.5,546.3c0.6,0.4,1.4,0.6,1.8,1.2c9.9,11.9,19.5,24,31.9,34c-1,0.6-1.7,1-2.4,1.4c-1.3,0-2.5,0-3.8,0
		c-6-6.1-12.3-12-18-18.4c-4.2-4.7-7.5-10.1-11.2-15.2C261.4,548.3,262,547.3,262.5,546.3z"/>
	<path class="st21" d="M147.8,439.2c-1.7,0-3.4,0-5.1,0c-1.9,0-3.8,0-7,0c2-2.9,3.3-4.8,4.6-6.8c5.6,1.5,10.9,1.3,15.8-2.3
		c1.4-0.1,3,0.2,4.1-0.4c2-1.1,3.8-2.7,5.6-4.1c0,4.5,0,9,0,13.5C159.8,439.2,153.8,439.2,147.8,439.2z"/>
	<path class="st27" d="M260.9,549.2c3.7,5.1,7.1,10.5,11.2,15.2c5.7,6.4,12,12.3,18,18.4c-1,0-2,0-3,0
		c-10.2-8.7-20.4-17.4-30.6-26.1C257.9,554.3,259.4,551.7,260.9,549.2z"/>
	<path class="st30" d="M156.1,430.2c-4.9,3.6-10.2,3.7-15.8,2.3c0.5-1,1.1-2,1.6-3.1c2-2.7,4-5.5,6-8.2c4,0,7.9,0,11.9-0.1
		c0,0.5,0,1,0.1,1.5C158.6,425.2,157.3,427.7,156.1,430.2z"/>
	<path class="st30" d="M159.8,385.2c-1,2.5-2,5-2.9,7.5c-1.8-1.2-4.4-3.9-5.2-3.5c-2.9,1.7-0.9,4.5-0.2,6.9c0,0.1,0.1,0.2,0.1,0.3
		c-3.8,0-7.5,0-11.3,0c2-3.8,4-7.5,6.1-11.3C150.8,385.2,155.3,385.2,159.8,385.2z"/>
	<path class="st27" d="M254,561.2c5.6,6.3,11.1,12.5,16.7,18.8c-4.9-2.5-9.7-5.1-14.7-7.6c-2.3-1.1-4.7-2-7-3
		C250.6,566.7,252.3,563.9,254,561.2z"/>
	<path class="st31" d="M399.4,538.9c0-2.8-0.1-5.6-0.1-8.4c0.1-2.5,0.2-4.9,0.4-7.4c3.2,2.2,6.4,4.5,9.6,6.7
		C406,532.8,402.7,535.8,399.4,538.9z"/>
	<path class="st32" d="M231.7,559.9c0.5,1.1,1,2.1,1.5,3.2c-6.7-3.6-13.4-7.2-20.1-10.9c0.7-1.3,1.5-2.5,2.2-3.8
		c0.7,0.3,1.4,0.6,2.1,0.9c-0.6,2.3,0.1,3.9,2.5,4.7c2.5,0.9,4.9,2.2,7.4,3.3C228.7,558.3,230.2,559.1,231.7,559.9z"/>
	<path class="st31" d="M147.9,421.2c-2,2.7-4,5.5-6,8.2c0-5.5,0-10.9,0-16.4C143.9,415.8,145.9,418.5,147.9,421.2z"/>
	<path class="st17" d="M162.8,343.2c2,2.3,4,4.6,6,6.9c-2.1,2.1-4.3,4.1-6.3,6.2c-3.7,3.8-3.6,6.5,0.4,10.3c-1,0.3-2,0.6-2.9,0.9
		c-2.8,0-5.5-0.1-8.3-0.1C155.3,359.3,159.1,351.2,162.8,343.2z"/>
	<path class="st33" d="M159.9,367.4c1-0.3,2-0.6,2.9-0.9c1,0.3,2,0.5,3,0.8c0,6,0,11.9,0,17.9l0,0c-2,0-4,0-6,0
		C159.9,379.3,159.9,373.4,159.9,367.4z"/>
	<path class="st34" d="M407,395c-0.5,1.3-1,2.6-1.5,3.9c-4.2-2.3-5.9-1.4-6.1,3.4c-0.1,2.2,0,4.5,0,6.7c0,6.3,1.1,7,6.7,4.9
		c1.2,0.3,3.3,1.1,3.5,0.8c0.9-1.7,1.3-3.5,1.8-5.3c2,0,4,0,5.9,0c0.2,5,0.6,5.4,6,5.9c0,1,0,2.1,0,3.1c-0.5,2.2-1.1,4.4-1.6,6.6
		c-7.3,2.6-15,2.8-22.5,2.1c-8.2-0.8-15.9-3-21.7-9.5c0.9-0.7,1.8-1.5,2.8-2.2c2.1-1.6,4.3-3.3,7-5.3c-7.4-1.7-10.2-0.4-11.8,4.6
		c0.7,3,1.4,5.9,2.1,8.9c-0.7,0.5-1.5,0.9-2.2,1.4c-4,0.5-8,1.1-12,1.6l0-0.1c0-1.5,0-2.9-0.1-4.4c-0.2-3.2-0.4-6.4-0.7-9.6
		c4.1,2,7.6,0.6,10.1-5c-4,0.7-7.4,1.2-10.8,1.8c-0.1-1.5-0.2-2.9-0.2-4.4c1.3-3.7,2.7-7.4,4-11.2c4,3,8.3,4.7,13.4,3
		c2.6,2.7,5.1,5.5,7.8,8c1,0.9,2.7,1.4,3.9,1.2c0.8-0.2,1.2-2.1,1.7-3.3c0.5-1,1-2,1.4-3.1c1.3-1.9,2.6-3.9,3.9-5.8
		C400.7,396,403.8,395.8,407,395z M388.2,410.8c-0.3,0.7-0.5,1.4-0.8,2.1c1.6,0.7,3.2,1.4,4.8,1.9c0.1,0,0.7-1.5,1.1-2.3
		C391.6,411.9,389.9,411.3,388.2,410.8z"/>
	<path class="st35" d="M423.4,418.3c0-1,0-2.1,0-3.1c0-2,0-4,0-6c0-1.3,0.3-2.9-0.3-3.9c-0.6-1-2.1-1.9-3.3-1.9
		c-3,0-2.3,2.5-2.4,4.4c0,0.2,0,0.5,0,0.7c-3.2-2.5-6.5-5-9.7-7.5c4.2-5.4,10.2-7.6,16.4-8.7c11.4-2.1,22.8-2,33.3,4.1
		c2.1,1.2,3.8,3.1,5.7,4.7c-3.2,2.5-6.5,5-9.7,7.5c-0.1-2.2,0.5-4.9-3-5.2c-1,0.7-2.7,1.4-2.8,2.2c-0.1,3,0.3,6,0.5,9
		c-0.5,1.3-1,2.6-1.5,3.9c-2,7.8-10.7,11.5-17.3,7C426.9,423.6,425.4,420.7,423.4,418.3z M434.6,419.8c5.6,2.2,6.7,1.4,6.7-4.7
		c0-1.9,0-3.7,0-5.6c0-6.2-1.1-6.9-6.7-4.7c-3-1.9-4.9-1.3-5.1,1.9c-0.3,3.7-0.3,7.5,0,11.2C429.7,421,431.7,421.7,434.6,419.8z"/>
	<path class="st34" d="M447.3,386c-9,0-18,0.1-26.9,0.1c-0.6,0-1.1,0.4-1.7,0.6c-2.2,0.8-4.4,1.7-6.7,2.5c-1-4.3-2-8.7-3-13
		c1.3-0.8,2.5-1.5,3.8-2.3c6.4,7.1,13.4,7.1,19.7,0.1l0.3,0c0,0,0.3,0,0.3,0c6.8,1.4,13.2,3.5,18,9C449.9,384,448.6,385,447.3,386z"
		/>
	<path class="st11" d="M409.1,376.3c1,4.3,2,8.7,3,13c-1.6,1.7-3.3,3.3-4.9,5c-0.1-1-0.2-2-0.3-3c-0.1-2.1,0.3-4.3-0.2-6.2
		c-4.9-15.7-15.3-26.1-31-31c-1.9-0.6-4.1-0.2-6.2-0.3c-4.2-1,0.5-1.9,0-2.8c2-0.6,4-1.2,6-1.8c8.8,1.1,16.2,5.2,22.5,11.3
		c1.5,1.5,3,3,4.4,4.5c1,1.5,2,3,3,4.4C406.6,371.8,407.8,374,409.1,376.3z"/>
	<path class="st36" d="M406.1,413.8c-5.6,2.1-6.7,1.4-6.7-4.9c0-2.2,0-4.5,0-6.7c0.1-4.8,1.9-5.7,6.1-3.4c0,1.7-0.1,3.4-0.1,5.1
		c0,0.8,0,1.5,0,2.3C405.6,408.8,405.9,411.3,406.1,413.8z"/>
	<path class="st32" d="M405.4,406.2c0-0.8,0-1.5,0-2.3c0.7-1,1.5-2,2.2-3c3.2,2.5,6.5,5,9.7,7.5c0,0.3,0,0.5,0,0.8c-2,0-4,0-5.9,0
		C409.4,408.2,407.4,407.2,405.4,406.2z"/>
	<path class="st37" d="M406.9,391.3c0.1,1,0.2,2,0.3,3c-0.1,0.2-0.1,0.5-0.2,0.7c-3.2,0.9-6.3,1-9-1.4c-1-0.8-2-1.5-3-2.3
		c0-0.8-0.1-1.5-0.1-2.3c0.3,0,0.5,0,0.8,0C399.4,389.8,403.1,390.5,406.9,391.3z"/>
	<path class="st38" d="M447.3,386c1.3-1,2.6-2,3.8-3c0.7,1,1.4,2.1,2,3.1c0,0.5,0.1,0.9,0.1,1.4C451.3,387,449.3,386.5,447.3,386z"
		/>
	<path class="st39" d="M433.2,374c0,0-0.3,0-0.3,0s-0.3,0-0.3,0c-0.5,0.1-1,0.2-1.4,0.3c-9.1,3.5-17.9-4.8-15.1-13.8
		c0.2-0.6,0-1.4-0.1-2.1c2.2-2.3,4.5-4.5,6.7-6.8c4.6-3.7,4.6-4.6-0.3-7.2c-1.1,0.9-2.2,1.9-3.4,2.8c-0.5-3.8-1-7.6-1.5-11.4
		c2.1,0.1,4.3-0.3,6.2,0.3c15.7,4.9,26.1,15.3,31,31c0.6,1.9,0.2,4.1,0.3,6.2c-3.8-0.5-7.6-1-11.4-1.5c0-0.2,0.1-0.4,0.1-0.5
		c1.5-2,2-4.3-0.3-5.7c-0.7-0.4-2.8,1.4-4.2,2.3c-0.4,0.2-0.6,0.8-0.9,1.2C436.5,370.7,434.9,372.3,433.2,374z M433.1,357.6
		c-0.6-1.4-1.1-2.8-1.7-4.2c-1.3,0.6-2.8,1-3.8,1.9c-2,1.7-3.9,3.6-5.6,5.5c-0.9,1-1.3,2.5-2,3.7c1.3,0.7,2.7,1.3,4,2
		c0.7,1.3,1.4,2.7,2,4c1.3-0.7,2.7-1.1,3.7-2c2-1.7,3.8-3.6,5.5-5.5c0.9-1,1.3-2.5,1.9-3.8C435.9,358.7,434.5,358.1,433.1,357.6z"/>
	<path class="st19" d="M417.4,335.9c0.5,3.8,1,7.6,1.5,11.4c0,0.2,0,0.4-0.1,0.6c-2-1.9-3.9-3.8-5.9-5.8c0.2-2,0.4-4.1,0.6-6.1
		c0.3,0,0.6,0,0.9-0.1C415.4,335.9,416.4,335.9,417.4,335.9z"/>
	<path class="st19" d="M443.4,371.8c3.8,0.5,7.6,1,11.4,1.5c-0.3,1.2-0.6,2.5-0.8,3.7c-0.5,0.3-0.9,0.5-1.4,0.8
		C448.1,378,445.3,375.6,443.4,371.8z"/>
	<path class="st4" d="M443.4,371.8c1.9,3.8,4.7,6.2,9.2,6c0.2,2.8,0.4,5.5,0.6,8.3c-0.7-1-1.4-2.1-2-3.1c-4.7-5.5-11.2-7.6-18-9
		c1.7-1.7,3.3-3.3,5-5c1.8,0.7,3.5,1.5,5.3,2.2C443.4,371.4,443.4,371.6,443.4,371.8z"/>
	<path class="st40" d="M165.8,367.4c-1-0.3-2-0.5-3-0.8c-4-3.9-4.1-6.5-0.4-10.3c2.1-2.1,4.2-4.1,6.3-6.2c2.2,1.7,4.5,3.5,6.7,5.2
		c0.5,1,1,2,1.5,3c-0.7,2-1.5,4-2.2,6c1.9-0.7,3.8-1.3,5.7-2c0.1,0,0.2-0.2,0.3-0.3c1.2,0.8,2.5,1.6,3.7,2.3
		c-0.3,2.3-1.7,2.9-3.9,2.9c-2.9-0.1-5.8,0-8.8,0.1C169.8,367.4,167.8,367.4,165.8,367.4z"/>
	<path class="st21" d="M339.5,283.4c2.7,1.3,5.5,2.5,8.2,3.8c3.1,3.4,3.9,7.6,3.7,12c0,2.8,0,5.5,0,8.3c0,1.8,0,3.6,0,5.8
		c-2.2,0-4.1,0-6,0c0-5.6,0-11.2-0.1-16.8c-0.1-4.5-2.3-7-6-7c-3.7,0-5.9,2.5-6,7c-0.1,5.6,0,11.2,0,16.8c-2,0.1-4,0.1-5.9,0.2
		c0-2.3,0-4.5,0-6.8c0-3.2-0.4-6.5,0.2-9.6c0.7-3.4,2.3-6.6,3.6-9.9C334,285.9,336.8,284.6,339.5,283.4z"/>
	<path class="st8" d="M333.5,313.3c0-5.6,0-11.2,0-16.8c0.1-4.5,2.3-7,6-7c3.7,0,5.9,2.5,6,7c0.1,5.6,0,11.2,0.1,16.8
		c-1,0.1-1.9,0.1-2.9,0.2c-2.1,0-4.2,0-6.2,0C335.4,313.4,334.5,313.3,333.5,313.3z"/>
	<path class="st41" d="M336.4,313.4c2.1,0,4.2,0,6.2,0c0.2,0.3,0.4,0.5,0.6,0.8c-2.7,7.2-5.4,14.4-8.2,21.6
		c-2.8,1.3-5.5,2.5-8.3,3.8c0-1.8-0.2-3.6,0.1-5.4c0.8-5,1.9-9.9,2.8-14.9C331.9,317.4,334.2,315.4,336.4,313.4z"/>
	<path class="st4" d="M363.4,319.3c0.2,0.3,0.4,0.6,0.6,0.8c1,1.7,2,3.4,3,5.1c-1.1,0.1-2.2,0-3.4,0.2c-8.3,1.1-16.2,3.1-22,9.6
		c-0.7,1.1-1.4,2.1-2.1,3.2c0-0.5-0.1-1.1-0.1-1.6c0.4-5.3,2.5-9.5,7.6-11.7c2-0.9,3.9-2.1,5.9-3.1
		C356.5,320.9,359.9,320.1,363.4,319.3z"/>
	<path class="st14" d="M353,321.8c-2,1-3.8,2.2-5.9,3.1c-5.1,2.3-7.2,6.4-7.6,11.7c-1.5-0.3-3-0.5-4.4-0.8
		c2.7-7.2,5.4-14.4,8.1-21.6c2.1,1.7,4.2,3.3,6.3,5C350.6,320.1,351.8,320.9,353,321.8z"/>
	<path class="st18" d="M351.5,307.4c0-2.8,0-5.5,0-8.3c3.9-5,7.9-9.9,11.8-14.9c1,6-0.3,11.1-5,15.3
		C355.7,301.9,353.8,304.8,351.5,307.4z"/>
	<path class="st42" d="M290.9,295.5c0-0.3,0-0.6,0-0.9c1.5-2.5,2.9-5,4.4-7.5c5.9-4.4,9.8-4.6,15.8-0.7c1.2,2.5,2.5,5,3.7,7.5
		c0.2,0.5,0.5,1,0.7,1.5c0,0.9,0,1.7,0,2.6c0.1,2.1-0.6,3.3-3,3.3c-2.3,0-3-1.3-3-3.3c0-1,0-2-0.1-3c-0.4-3.4-2.7-5.6-5.9-5.6
		c-3.2,0-5.6,2.1-5.9,5.6c-0.2,2.1-0.1,4.2-0.1,6.3c-3.8,0.5-6.5-0.4-6.3-5C291.3,296.1,291,295.8,290.9,295.5z"/>
	<path class="st41" d="M295.3,287.1c-1.5,2.5-2.9,5-4.4,7.5c-1.3-1.5-2.6-2.9-3.9-4.4c-0.5-5.8-0.8-11.6-1.5-17.4
		c-0.2-2-1.3-3.9-2-5.9c2.4-0.7,3.3,0.6,4.1,2.5C290.1,275.3,292.7,281.2,295.3,287.1z"/>
	<path class="st43" d="M314.8,293.9c-1.2-2.5-2.5-5-3.7-7.5c1.5-2.3,2.9-4.5,4.4-6.8C315.2,284.4,315,289.2,314.8,293.9z"/>
	<path class="st9" d="M297.6,301.4c0-2.1-0.1-4.2,0.1-6.3c0.3-3.4,2.7-5.6,5.9-5.6c3.2,0,5.5,2.1,5.9,5.6c0.1,1,0.1,2,0.1,3
		c0,2,0.7,3.3,3,3.3c2.3,0,3-1.3,3-3.3c0-0.9,0-1.7,0-2.6c1.8,2,3.5,4,5.3,6c-3,7.2-6,14.4-9,21.7c-2.7-1.3-5.5-2.5-8.2-3.8
		c0-4,0-8,0-11.9C303.6,301.4,303.6,301.4,297.6,301.4z"/>
	<path class="st8" d="M311.8,323.1c3-7.2,6-14.4,9-21.7c2.2,1.7,4.5,3.5,6.7,5.2c0,2.3,0,4.5,0,6.8c0,2.2-0.1,4.5-0.1,6.7
		c-3.9,5-7.9,9.9-11.8,14.9C315.7,330.7,314.9,326.5,311.8,323.1z"/>
	<path class="st39" d="M421.1,317.2c-3.2,2.5-6.4,5-9.7,7.5c0-1,0.3-2.2-0.2-2.9c-0.6-1-1.8-2.1-2.8-2.1c-1,0-2.8,1.3-2.8,2
		c-0.1,3.7,0.3,7.4,0.5,11.1c-0.3,0.5-0.6,1.1-0.9,1.6c-0.5,0.9-0.9,1.8-1.4,2.6c-5,8.5-15.8,8.6-20.9,0.1c-0.5-0.8-1-1.7-1.5-2.6
		c-0.3-2.7-0.5-5.4-0.8-8.2c1.9-4.1,1-7.4-5-6c-0.1,1.4-0.2,2.9-0.3,4.3c-3.2-2.5-6.4-4.9-9.6-7.4c3.1-2.3,5.9-5.4,9.3-6.6
		c13.5-4.7,27-4.9,40,1.8C417.3,313.5,419.1,315.5,421.1,317.2z M392.7,335.9c5.6,2.2,6.7,1.4,6.7-4.7c0-1.9,0-3.7,0-5.6
		c0-6.2-1.1-6.9-6.7-4.7c-3-1.9-4.9-1.3-5.1,1.9c-0.3,3.7-0.3,7.5,0,11.2C387.8,337.2,389.7,337.8,392.7,335.9z"/>
	<path class="st19" d="M365.7,317.2c3.2,2.5,6.4,4.9,9.6,7.4c0.1,0.2,0.1,0.5,0.2,0.7c-2.8,0-5.6-0.1-8.5-0.1c-1-1.7-2-3.4-3-5.1
		C364.6,319.1,365.2,318.2,365.7,317.2z"/>
	<path class="st2" d="M405.3,334.3c0.3-0.5,0.6-1.1,0.9-1.6c2.5,1.1,4.9,2.2,7.4,3.2c-0.2,2-0.4,4.1-0.6,6.1c-2.5-1.3-5-2.6-7.6-3.9
		C405.4,336.9,405.3,335.6,405.3,334.3z"/>
	<path class="st8" d="M255.7,290.9c1.7,3.2,3.5,6.5,5.2,9.7c-1.3-0.1-2.7,0-4-0.3c-4.7-1.1-9.4-2.4-14.1-3.5c-1.4-0.3-2.9,0-4.3,0
		c-6.6-5.5-8-9.1-5.9-14.9C240.2,284.9,247.9,287.9,255.7,290.9z"/>
	<path class="st14" d="M272.8,313.4c0.3,0,0.6,0,0.9-0.1c0,0,0,0,0,0c0,6-0.1,12-0.1,18c-2.8,1.3-5.5,2.5-8.3,3.8c-3-7-6-14-9-21.1
		C261.9,313.8,267.3,313.6,272.8,313.4z"/>
	<path class="st18" d="M238.5,296.9c1.4,0,2.9-0.3,4.3,0c4.7,1.1,9.4,2.4,14.1,3.5c1.3,0.3,2.7,0.2,4,0.3c2.7,2.8,5.5,5.6,8.2,8.4
		c-5.4-0.3-10.9-0.4-16.3-1c-2-0.2-4.2-1.2-5.7-2.5C244,302.9,241.3,299.8,238.5,296.9z"/>
	<path class="st41" d="M256.4,314c3,7,6,14,9,21.1c-0.5,0.7-1,1.5-1.5,2.2c-3.7-3.7-7.5-7.4-11.2-11.2c-1-1.1-2.1-2.2-3.1-3.3
		C250,318.5,251.9,315.2,256.4,314z"/>
	<path class="st44" d="M246,319.8c-0.6,1.2-1.1,3.4-1.9,3.5c-1.3,0.2-3.1-0.5-4.2-1.5c-3.7-3.4-7.4-7-10.8-10.8
		c-1-1-1.7-2.9-1.5-4.2c0.1-0.8,2.3-1.3,3.5-1.9C236.2,310,241.1,314.9,246,319.8z"/>
	<path class="st45" d="M252.7,326.1c3.7,3.7,7.5,7.4,11.2,11.2c1.5,1.5,3,3.1,4.5,4.6c1.3,1.6,2.7,3.2,3.9,4.7
		c-2.4,1.4-4.4,2.5-6.3,3.6c-4.7,0.5-9.4,1-14.1,1.4c-1.7-1.8-3.3-3.7-5.1-5.4c-1.2-1.1-2.7-1.8-4.1-2.7c-0.9,1.6-1.8,3.2-2.6,4.8
		c-0.3,0.5-0.1,1.2-0.2,1.8c-1,7.5,4.1,11.5,9,15.7c0,0.5,0,1,0,1.5c-2.7-0.7-5.5-1.5-8.2-2.2c-0.4-1.9-0.9-3.8-1.3-5.7
		c-1.3,0.9-2.6,1.8-3.9,2.7c-1.7-0.2-3.1-2.8-5.2-0.5c-3.4,3.7-7,7.3-10.5,10.9c-1.2,2.4-3.3,4.8-3.6,7.3
		c-0.8,6.7,3.2,12.8,9.6,15.9c-0.3,1.7-0.6,3.5-0.8,5.2c-0.7,0.7-1.5,1.5-2.2,2.2c-6.6-6.8-13.3-13.6-19.9-20.4
		c-0.3,0.2-0.7,0.5-1,0.7c0,2.6,0,5.2,0,7.7c-6,0-6,0-6-5.9c0-3.2,0-6.5,0.1-9.7c0.8,0.7,1.7,1.4,2.5,2.2c3.5,3.3,3.5,3.3,7-0.2
		c5-5,9.9-10.1,15-15c2.5-2.4,5.3-4.4,8-6.6c-0.3-0.4-0.6-0.8-1-1.2c-1.1-1.3-2.1-2.7-3.2-4c1.6-0.9,3.3-1.6,4.6-2.8
		c7.1-6.6,14-13.4,21-20.1C250.6,327.1,251.7,326.7,252.7,326.1z"/>
	<path class="st44" d="M187.5,352.3c5-5.2,10.1-10.3,15.1-15.5c1.1-1.1,1.9-2.6,2.8-3.9c1,0.7,1.9,1.4,2.9,2.1
		c2.8,2.8,5.6,5.5,8.3,8.3c0,0.5,0,1,0,1.5c0.1,2,0.2,4,0.3,6c1.9-0.5,3.8-1,5.7-1.5c0.3,0.2,0.5,0.5,0.8,0.7
		c-0.1,0.4-0.1,0.8-0.4,1c-5.9,6-11.7,12.2-18,17.9c-1.2,1.1-4.8,1.4-5.8,0.5c-4.5-4.2-8.4-8.9-12.6-13.4
		C187,354.8,187.3,353.6,187.5,352.3z"/>
	<path class="st20" d="M186.8,356.1c4.1,4.5,8.1,9.3,12.6,13.4c1,0.9,4.6,0.6,5.8-0.5c6.2-5.7,12-11.9,18-17.9
		c0.2-0.2,0.3-0.7,0.4-1c0.3,0.2,0.5,0.5,0.8,0.7c1.1,1.3,2.1,2.7,3.2,4c0.3,0.4,0.6,0.8,1,1.2c-2.7,2.2-5.5,4.2-8,6.6
		c-5.1,4.9-10,10-15,15c-3.5,3.5-3.5,3.5-7,0.2c-0.8-0.8-1.7-1.5-2.5-2.2c-3.1-3.5-6.8-6.6-7.1-11.8c0-0.7-1.3-1.3-1.9-1.9
		c-0.8,0.8-1.5,1.7-2.3,2.5c-1.2-0.8-2.5-1.6-3.7-2.3C182.8,360.1,184.8,358.1,186.8,356.1z"/>
	<path class="st44" d="M221.5,313.3c1,0.7,1.9,1.2,2.6,1.8c4,3.9,8,7.8,11.8,11.9c0.9,1,0.6,3,0.8,4.5c-1.6,0-3.7,0.8-4.6,0
		c-4.4-4.1-8.6-8.5-12.7-13c-0.7-0.7-0.8-2.4-0.5-3.4C219.2,314.5,220.5,314,221.5,313.3z"/>
	<path class="st44" d="M211.5,327.6c0-1.5,0-3,0-4.5c1.4,0.3,3.3,0.2,4.2,1c3.9,3.6,7.7,7.4,11.3,11.3c0.8,0.8,0.8,2.4,1.1,3.6
		c-1.4,0.3-2.8,1-4.1,0.8c-1.2-0.2-2.6-1.1-3.5-2C217.5,334.5,214.5,331,211.5,327.6z"/>
	<path class="st3" d="M216,307.3c0.1-4.1,3.1-8.3,5.1-7.8c0.9,0.2,2.1,1.5,2.1,2.4c0.2,3.3-2.7,7.8-4.9,7.4
		C217.4,309.1,216.5,307.7,216,307.3z"/>
	<path class="st3" d="M222.7,349.3c-1.9,0.5-3.8,1-5.7,1.5c-0.1-2-0.2-4-0.3-6c0-0.5,0-1,0-1.5c1.9-0.4,3.8-0.8,5.7-1.2
		c0.1,2,0.2,4.1,0.3,6.1C222.7,348.6,222.7,349,222.7,349.3z"/>
	<path class="st31" d="M208.4,335.1c-1-0.7-1.9-1.4-2.9-2.1c-2.3-2.5-4.5-5.1-6.8-7.6C201.9,328.6,205.2,331.8,208.4,335.1z"/>
	<path class="st8" d="M277.5,309.1c-3.3-3.5-6.7-7-10-10.5c-0.9-0.9-1.8-1.7-2.6-2.7c-2.9-3.2-3.1-7.5-0.5-10
		c2.5-2.4,6.8-2.2,9.7,0.6c3.2,3.1,6.3,6.3,9.5,9.5c1.1,1.1,2.4,2.2,3.6,3.3c-0.3,1.3-1.1,2.8-0.7,3.8c2.8,6.8,5.9,13.4,8.9,20.1
		c-1.2,3.2-2.5,6.5-3.7,9.7c-0.7-1-1.6-1.9-2.2-2.9c-3.2-5-6.5-10-9.7-15c0-0.5-0.1-1.1-0.1-1.6c0-1.2,0.2-2.5-0.1-3.7
		C279.4,309.3,278.2,309.2,277.5,309.1z"/>
	<path class="st16" d="M295.3,323.1c-3-6.7-6.1-13.4-8.9-20.1c-0.4-1,0.5-2.5,0.7-3.8c1.3-1.2,2.5-2.5,3.8-3.8
		c0.2,0.3,0.5,0.7,0.4,1c-0.2,4.6,2.4,5.5,6.3,5c6,0,6,0,6,6c0,4,0,8,0,11.9C300.8,320.6,298.1,321.8,295.3,323.1z"/>
	<path class="st46" d="M277.5,309.1c0.7,0.2,2,0.3,2,0.6c0.2,1.2,0.1,2.5,0.1,3.7c-1.9,0-3.9,0-5.8,0c0,0,0,0,0,0
		C274.9,311.9,276.2,310.5,277.5,309.1z"/>
	<path class="st16" d="M186.8,356.1c-2,2-4,4-6,6c-0.1,0.1-0.2,0.2-0.3,0.3c-1.9,0.7-3.8,1.3-5.7,2c0.7-2,1.5-4,2.2-6
		c2-1.8,3.8-3.9,6.1-5.4c1.1-0.8,3-0.5,4.5-0.6C187.3,353.6,187,354.8,186.8,356.1z"/>
	<path class="st47" d="M271.4,547.1c-1.5-2.6-3.1-5.1-4.6-7.7c0.7-1.2,1.4-2.4,2.1-3.7c1.7,0.2,3.4,0.5,5.2,0.6
		c11.9,0.7,23.7,0.5,35.4-1.9c1.2,5.3,3.5,6.7,11.3,6.7c-8,1.5-16,3.1-24.1,4.4c-3.6,0.6-7.4,0.6-11.1,0.9c-2.3,0.2-4.5,0.5-6.8,0.7
		C276.4,547,273.9,547,271.4,547.1z"/>
	<path class="st27" d="M352.2,541.1c1.3,1.7,2.5,3.5,3.8,5.2c-1,0.7-1.8,1.8-2.9,2c-6.5,1.4-13,2.7-19.6,4c-0.5,0.2-1,0.5-1.5,0.7
		c-8.2,0.5-16.5,1-24.7,1.5c-4.5-1.9-9-1.9-13.5,0c-0.6-0.5-1.2-1-1.8-1.5c0.7-0.5,1.5-1.4,2.3-1.4c6.9-0.6,13.9-1,20.8-1.6
		C327.8,548.8,340.3,546.1,352.2,541.1z"/>
	<path class="st47" d="M341.2,526c1.7,2.3,3.4,4.6,5,6.8c-7.5,2.5-15,5-22.5,7.5c4.2-3.6,4.5-4.6,2.3-8.2c0-0.3,0-0.5,0-0.8
		C331.1,529.5,336.1,527.7,341.2,526z"/>
	<path class="st48" d="M326,532.1c2.2,3.6,1.9,4.7-2.3,8.2c-1,0.2-2,0.5-2.9,0.7c-7.8,0-10.1-1.4-11.3-6.7c0.5-0.8,1-1.5,1.5-2.3
		C315.6,536.1,321.5,536.1,326,532.1z"/>
	<path class="st49" d="M311.1,560.5c4.7,1.4,9.5,2.7,14.2,4.2c1.5,0.5,2.9,1.4,5.5,2.7c-2.8,0.9-4.5,1.5-6.3,2.1
		c-5.9-1.8-11.7-3.5-17.9-5.4c1.1-1.3,2-2.5,3-3.7C310,560.5,310.6,560.5,311.1,560.5z"/>
	<path class="st50" d="M278.9,547c2.3-0.2,4.5-0.5,6.8-0.7c0.3,0.4,0.5,0.8,0.9,1.2c1,1,2,1.9,3,2.9c-1.3,0.8-2.6,1.9-4.1,2.2
		c-3.6,0.9-7,0.5-10.1-2.7C276.7,548.8,277.8,547.9,278.9,547z"/>
	<path class="st50" d="M332,553c0.5-0.2,1-0.5,1.5-0.7c2.5,0.6,5.1,1,7.6,1.8c0.9,0.3,1.5,1.4,2.3,2.1c-0.7,0.6-1.3,1.5-2.1,1.9
		c-4.1,2-8.5,1.2-11.7-2.1C330.4,554.9,331.2,554,332,553z"/>
	<path class="st50" d="M293.8,554.5c4.5-1.9,9-1.9,13.5,0c0.1,0.2,0.2,0.5,0.2,0.7c-1,4.1-4.6,3.7-7.4,3.6
		C297.5,558.7,293.8,559,293.8,554.5z"/>
	<path class="st49" d="M311.1,560.5c-0.5,0-1,0-1.5,0c-0.2-3,1.1-3.9,4.1-3.4c2,0.4,4.2,0.5,6.2,0.3c4.3-0.3,7.8,0.5,9.2,5.3
		C323,562,317,561.3,311.1,560.5z"/>
	<path class="st49" d="M284.1,562.8c-1.2-1.3-2.5-2.5-3.7-3.8c2-0.2,4-0.1,5.9-0.6c4.8-1.2,4.8-1.3,5.9,4.3
		C289.4,562.8,286.8,562.8,284.1,562.8z"/>
	<path class="st28" d="M352.2,563.5c-4.7,0.5-9.4,1-14.1,1.5c1.2-0.4,2.7-0.4,3.5-1.2C345.1,560.5,348.6,561.8,352.2,563.5z"/>
	<path class="st13" d="M388.9,498.4c-9.4-3-18.7-6.1-28.1-9.1c-1.3-0.4-2.7-0.5-4-0.7c-3.8-0.5-7.5-1-11.3-1.5
		c-0.8-0.7-1.5-1.5-2.3-2.2c-2.5-1.3-4.9-2.5-7.4-3.8c4.2-3.8,8.5-7.5,12.7-11.3c1.8,0.8,3.7,1.6,5.5,2.2
		c15.4,5.5,30.7,11,46.1,16.6c0,0.6,0.1,1.5-0.2,1.7C396.3,493.1,392.6,495.7,388.9,498.4z"/>
	<path class="st8" d="M399.7,523.1c-0.1,2.5-0.2,4.9-0.4,7.4c-9.5-3.7-18.9-7.6-28.5-11c-6.2-2.2-12.6-3.9-19-5.4
		c-8.4-1.9-12.6,0.4-16,8.1c-4.7,0.3-9.4,0.5-14.1,0.8c0.4-1.7,0.9-3.5,1.3-5.2c0.6-1.7,1.1-3.4,1.7-5.1c0.5-1.5,1-3,1.5-4.5
		c0.2-0.5,0.4-1.1,0.5-1.6c1.8-0.5,3.5-0.9,5.3-1.4c6.1,0.9,12.3,1.6,18.4,2.6c16,2.6,31.3,7.6,46.1,14.2
		C397.5,522.4,398.6,522.7,399.7,523.1z"/>
	<path class="st29" d="M332,505.2c-1.8,0.5-3.5,0.9-5.3,1.4c-13.4-0.2-26.9-0.5-40.3-0.7c1.3-2.2,2.5-4.5,3.8-6.7
		c11.8-0.3,23.6-0.4,35.3-0.8c4.4-0.2,8.8-0.9,13.2-1.5C336.5,499.6,334.3,502.4,332,505.2z"/>
	<path class="st27" d="M338.8,496.8c-4.4,0.5-8.8,1.3-13.2,1.5c-11.8,0.4-23.5,0.6-35.3,0.8c0.3-0.5,0.5-1,0.8-1.5
		c9.8-1,19.6-1.6,29.3-3.3c8.2-1.4,16.1-4.2,22.9-9.4c0.8,0.7,1.5,1.5,2.3,2.2C343.2,490.3,341,493.6,338.8,496.8z"/>
	<path class="st51" d="M348.5,469.9c-4.2,3.8-8.5,7.5-12.7,11.3c-0.6,0.3-1.1,0.5-1.7,0.9c-14,8.9-29.2,12.6-45.7,10.3
		c-1.4-0.2-2.9,0-4.3,0c-3.6-1.2-7.1-2.4-10.7-3.6c-5.9-3.3-11.8-6.6-17.8-9.9c-0.8-0.8-1.7-1.6-2.5-2.3c-2.2-2.4-4.4-4.9-6.6-7.3
		c-5.2-6.6-9.6-13.6-11.9-21.8c-0.7-2.3-1.5-4.5-2.2-6.8c-0.3-2.5-0.6-5-0.9-7.5c0-2.1,0-4.1,0-6.2c0-12.9,3.6-24.8,10.5-35.7
		c3.5-4.3,7.1-8.6,10.6-12.9c6.1-4,12.3-8,18.4-12c1.2-0.3,2.4-0.6,3.6-1c10.6-3.9,21.5-5.2,32.7-3.5c4.6,0.7,8.6-2.5,9.5-7.4
		c2.3-1.3,4.5-2.5,6.8-3.8c5.7-1.7,11.4-2.1,17.3-0.8c0.7,0.3,1.5,0.5,2.2,0.8c2,1.3,4.1,2.5,6.1,3.8c2.3,3.4,4.5,6.9,6.8,10.3
		c0.5,2.8,1,5.6,1.5,8.4c-0.3,2.4-0.7,4.8-1,7.2c-0.7,1.8-1.4,3.6-2.1,5.4c-0.7,1.4-2.4,3.2-2,4.1c1.5,3.3,3.8,6.2,5.7,9.3
		c0.8,2.4,1.5,4.7,2.4,7.6c0.6-1.2,0.9-1.7,1.2-2.3c0.1,1.5,0.2,2.9,0.2,4.4c0.2,1.1,0.5,2.2,0.7,3.3c0.2,3.2,0.5,6.4,0.7,9.6
		c0.1,1.5,0,2.9,0.1,4.4c-1.3-0.2-2.6-0.4-3.8-0.6c0.2-2.1,0.7-4.1,0.5-6.1c-1.2-10.2-4.7-19.6-10.7-28c-1.4-2-1.3-3.3,0.2-5.2
		c7.9-10,6-23.5-4.3-30.5c-10.1-7-23.6-3.8-29.9,7.3c-1.4,2.5-2.9,2.5-5.4,2.4c-7.3-0.4-14.8-1.4-21.9-0.4
		c-41.4,5.8-65.4,51.4-47.2,89c20.3,41.7,75,48.3,105.3,12.7c0.2,0,0.4,0,0.7-0.1c0.7,0.5,1.5,0.9,2.2,1.4
		C349,468.8,348.8,469.4,348.5,469.9z"/>
	<path class="st52" d="M255.7,478.9c5.9,3.3,11.9,6.6,17.8,9.9c-0.9,2.2-1.9,4.4-2.8,6.6c-10.8,18.4-21.6,36.9-32.4,55.3
		c-0.6,1.1-1.4,2.1-2,3.1c-5.3-3.7-5.3-3.7-8.1,2c-0.3,0.6-0.6,1.1-0.8,1.6c-2.5-1.1-4.8-2.4-7.4-3.3c-2.5-0.9-3.1-2.4-2.5-4.7
		c1-1.8,2.1-3.5,3.1-5.3c0.9,0.5,1.9,0.8,2.6,1.4c2.8,2.3,4.4,1.6,6.3-1.5c6.1-10,12.5-19.8,18.8-29.6c2.7-4.2,5.4-8.4,7.7-12.8
		c2.7-5.1,1.1-10.9-3.5-13.4c-2,3.4-4,6.8-6.1,10.2c-5.6,9.3-11.2,18.5-16.7,27.8c0.2-1,0.5-2.1,0.7-3.1c3.7-6.6,7.4-13.2,11.2-19.7
		C246.1,495.2,250.9,487,255.7,478.9z"/>
	<path class="st27" d="M321.6,523c4.7-0.3,9.4-0.5,14.1-0.8c1.5,0.6,3,1.1,4.5,1.7c0.3,0.7,0.7,1.4,1,2c-5.1,1.8-10.1,3.6-15.2,5.3
		c-5.1-2.6-10.2-3.7-15,0.8c-0.5,0.8-1,1.5-1.5,2.3c-11.7,2.4-23.6,2.6-35.4,1.9c-1.7-0.1-3.4-0.4-5.2-0.6c0.6-1,1.1-1.9,1.7-2.9
		c1.5,0,3,0,4.5,0c9.9,0.1,19.7-0.9,29.3-3.8C310.1,527,315.9,525,321.6,523z"/>
	<path class="st53" d="M324.7,512.7c-0.6,1.7-1.1,3.4-1.7,5.1c-4.7,1-9.4,2-14.1,3l-0.1,0c-4.7-5-11.9-5-16.5,0
		c-0.3,1.3-0.5,2.5-0.8,3.8c-1.8,0.1-3.7,0.4-5.5,0.4c-3.7,0.1-7.3,0.2-11,0.3c1.6-2.7,3.1-5.4,4.7-8.1c11.2-1.7,22.3-3.6,33.5-5.1
		C317,511.6,320.9,512.5,324.7,512.7z"/>
	<path class="st19" d="M284.1,492.4c1.5,0,2.9-0.2,4.3,0c16.5,2.2,31.7-1.4,45.7-10.3c0.5-0.3,1.1-0.6,1.7-0.9
		c2.5,1.3,4.9,2.5,7.4,3.8c-6.8,5.2-14.7,8-22.9,9.4c-9.7,1.7-19.5,2.2-29.3,3.3C288.7,495.9,286.4,494.1,284.1,492.4z"/>
	<path class="st27" d="M324.7,512.7c-3.8-0.2-7.7-1.1-11.4-0.6c-11.2,1.4-22.4,3.3-33.5,5.1c1.2-2,2.4-4,3.6-6.1c1-0.1,2,0,3-0.2
		c13.2-2.6,26.5-3.2,39.9-2.7C325.7,509.7,325.2,511.2,324.7,512.7z"/>
	<path class="st29" d="M275.1,525.2c3.7-0.1,7.3-0.1,11-0.3c1.8-0.1,3.7-0.3,5.5-0.4c3.1,4.7,7.9,4.7,12.7,4.5v0
		c-9.5,2.9-19.3,3.8-29.3,3.8c-1.5,0-3,0-4.5,0C272.1,530.3,273.6,527.7,275.1,525.2z"/>
	<path class="st54" d="M326.2,508.2c-13.4-0.5-26.7,0.1-39.9,2.7c-1,0.2-2,0.2-3,0.2c1-1.7,2-3.5,3.1-5.2
		c13.4,0.2,26.9,0.5,40.3,0.7C326.5,507.1,326.4,507.6,326.2,508.2z"/>
	<path class="st52" d="M234.7,447.5c2.3,8.2,6.7,15.2,11.9,21.8c-0.5,1-0.9,1.9-1.4,2.9c-1-0.6-1.9-1.1-2.9-1.8
		c-2-1.3-3.4-0.8-4.6,1.2c-1.7,3-3.5,6-5.2,9c-7.7,13.1-15.3,26.2-23,39.3c-0.2,0.4-0.7,0.7-1.1,1c2.2-5.1,4.5-10.1,6.7-15.2
		c0.8-1.9,1.8-3.7,2-6c-5.6,9.6-11.3,19.1-17.2,29c-2.5-1.3-4.8-2.5-7-3.6c0.5-1.4,0.8-2.9,1.5-4.1c9.9-17.1,19.9-34.3,29.9-51.4
		c2.2-3.8,3-7.6,1.4-11.7c-1-2-2-4-3.1-5.9c0.2-0.6,0.5-1.2,0.7-1.8c1.5-1.7,3-3.4,4.6-5.1C230.2,446,232.5,446.7,234.7,447.5z"/>
	<path class="st55" d="M220.4,544.1c-1,1.8-2.1,3.5-3.1,5.3c-0.7-0.3-1.4-0.6-2.1-0.9c5-8.5,10-17,15-25.4c-0.2,1-0.5,2.1-0.7,3.1
		c-2.6,4.6-5.2,9.2-7.8,13.9C221.2,541.3,220.9,542.7,220.4,544.1z"/>
	<path class="st56" d="M245.2,472.1c0.5-1,0.9-1.9,1.4-2.9c2.2,2.4,4.4,4.9,6.6,7.3C250.5,475.1,247.9,473.6,245.2,472.1z"/>
	<path class="st17" d="M387.4,451.9c0-0.2,0-0.5,0.1-0.7c14.9,0,29.9,0.1,44.8,0.1c-2.8,3.7-5.6,7.5-8.3,11.2
		C411.2,461.1,399.1,457.4,387.4,451.9z"/>
	<path class="st57" d="M227.3,557.4c0.3-0.5,0.6-1.1,0.8-1.6c2.8-5.7,2.8-5.7,8.1-2c-1.5,2.1-3,4.1-4.5,6.2
		C230.2,559.1,228.7,558.3,227.3,557.4z"/>
	<path class="st24" d="M348.5,469.9c0.3-0.5,0.5-1,0.8-1.6c1.8-2,3.5-4,5.3-5.9c5.7,4.4,12,7.1,19.4,6.8c7.8,3.2,15.5,6.6,23.4,9.6
		c11.4,4.3,22.9,8.2,34.4,12.3c-1.8,8.4-1.8,8.4-9.8,5.4c-7.2-2.6-14.5-5.2-21.8-7.8c-15.4-5.5-30.7-11-46.1-16.6
		C352.2,471.5,350.3,470.6,348.5,469.9z"/>
	<path class="st58" d="M431.7,491c-11.5-4.1-23-8-34.4-12.3c-7.9-2.9-15.6-6.4-23.4-9.6c1.5-1.5,3.1-3.1,4.6-4.6
		c18.1,8.4,37.1,13.9,57,15.8C434.3,483.9,433,487.5,431.7,491z"/>
	<path class="st20" d="M223.4,450.3c-0.2,0.6-0.5,1.2-0.7,1.8c-1.1,0.7-2.4,1.2-3.3,2.1c-4.9,4.8-9.8,9.7-14.7,14.7
		c-0.9,0.9-1.5,2.2-2.2,3.3c-2.5,2-5,4-7.5,6c-1-1.7-2-3.5-3.1-5.2c0.2-1.4,1-3.3,0.3-4.2c-1.7-2.5-3.8-5-6.2-6.9
		c-1.4-1.1-3.7-1.2-5.6-1.7c0.6,1.7,1.1,3.4,1.7,5.2c-2.5,1.5-3.5,3.1-1.9,6.3c2.2,4.4,2.1,9.2-1.3,13.3c-2,2.4-4.3,4.4-6.5,6.6
		c-1-4.7-2.1-9.4-3.1-14.2c2.1-2.3,4.2-4.6,6.4-6.7c1.5-1.5,1.9-2.8,0.2-4.4c-3.7-3.5-7.3-7.1-11-10.6c3-3,6-6,9-9
		c5.7,5.8,11.4,11.8,17.3,17.5c2.8,2.7,6.1,2.6,9-0.1c2.8-2.6,5.6-5.3,8.2-8.2c3-3.2,2.9-6.3-0.1-9.6c-2.2-2.4-4.4-4.7-6.7-7
		c0,0-0.1-0.2-0.1-0.2c2.7,0,5.5,0.1,8.2,0.1c3.3,3.4,6.5,6.8,9.9,10C220.6,450,222.2,449.9,223.4,450.3z"/>
	<path class="st52" d="M179.3,519.2c-2.5-2.4-5-4.9-7.5-7.3c0.4-1.4,0.5-3.1,1.4-4c6.5-6.8,13.1-13.4,19.7-20
		c1.9-1.8,3.9-3.5,5.6-5.4c2.4-2.6,4.6-5.3,6.9-8c1.5,0.2,3,0.4,4.4,0.6c-6.6,11.3-13.2,22.6-19.9,33.9
		C186.4,512.4,182.9,515.8,179.3,519.2z"/>
	<path class="st10" d="M172.6,491.6c2.2-2.2,4.6-4.2,6.5-6.6c3.3-4.1,3.5-8.9,1.3-13.3c-1.6-3.2-0.6-4.8,1.9-6.3
		c3.2,2.5,6.5,5,9.7,7.5c1,1.7,2,3.5,3.1,5.2c-2,2.2-4.1,4.4-6.1,6.6c-4.8,4.6-9.6,9.3-15.1,14.7C173.3,496.3,173,493.9,172.6,491.6
		z"/>
	<path class="st17" d="M188.9,484.7c2-2.2,4.1-4.4,6.1-6.6c2.5-2,5-4,7.5-6c1,0.8,1.9,1.5,2.9,2.3c-2.3,2.7-4.5,5.4-6.9,8
		c-1.8,1.9-3.7,3.6-5.6,5.4C191.5,486.8,190.2,485.8,188.9,484.7z"/>
	<path class="st8" d="M432.3,451.3c-14.9,0-29.9-0.1-44.8-0.1c-2-0.8-4-1.5-6-2.3c-0.3-1.5-0.5-3-0.8-4.5c9.2-1.5,18.4-2.9,27.6-4.6
		c1.2-0.2,2.1-2.2,3.1-3.3c1.1-1.3,2.1-2.7,3.1-4c0.9,0.3,1.9,0.6,2.8,0.8c1.1,8.1,5.3,11.8,13.5,11.9c5.5,0,10.9,0,16.4,0.1
		c0.2,5.9,0.2,5.9-5.6,5.9C438.5,451.2,435.4,451.3,432.3,451.3z"/>
	<path class="st24" d="M447.2,445.2c-5.5,0-10.9,0-16.4-0.1c-8.2-0.1-12.4-3.8-13.5-11.9c5-0.1,9.9-0.1,14.9-0.2c1.9,0,3.7,0,5.6,0
		C447.7,433.6,447.7,433.6,447.2,445.2z"/>
	<path class="st59" d="M437.8,433.1c-1.9,0-3.7,0-5.6,0c-2.2-1.3-4.4-2.6-6.7-3.9c-1.2-1.4-2.5-2.9-3.7-4.3c0.5-2.2,1.1-4.4,1.6-6.6
		c2,2.4,3.5,5.3,5.9,7c6.6,4.5,15.2,0.8,17.3-7c1.5,5-0.4,10.1-4.9,12.8C440.5,431.9,439.1,432.5,437.8,433.1z"/>
	<path class="st17" d="M448.1,414.4c-0.2-3-0.6-6-0.5-9c0-0.8,1.8-1.4,2.8-2.2C449.6,407,448.8,410.7,448.1,414.4z"/>
	<path class="st33" d="M380.7,444.5c0.3,1.5,0.5,3,0.8,4.5c0,0.5-0.1,1.1-0.1,1.6c-0.8,2.1-1.7,4.1-2.4,6.2c-1.9,5.3-5,7.2-10.6,6.1
		c-5.9-1.2-10.9-3.9-15.2-8.1c-7.4-7.1-15.1-13.6-25-17.2c-6.3-2.3-12.5-5-16.8-10.6c-0.3-0.4-1.1-0.4-1.6-0.5
		c1.2-4.6,4.9-5.3,8.8-5.4c3,0.3,6,0.6,8.9,0.9c5.2,1,10.4,2,15.6,3c5.5,0.3,11.1,0.5,16.6,0.8c1.3,0.2,2.6,0.4,3.8,0.6
		c0,0,0,0.1,0,0.1c1.6,0.9,3.3,1.8,4.8,2.8C373.9,433.1,377.4,438.7,380.7,444.5z M359.8,431.7c-0.5,0.1-2.1,0-3.3,0.8
		c-0.9,0.6-1.7,2.3-1.5,3.2c0.8,4.2,9.5,10.8,13.7,11c2.2,0.1,3.6-0.6,3.7-3.1C372.5,437.5,366.9,431.7,359.8,431.7z M319.1,428.6
		c4.5,4.5,13.7,5.9,16.7,2.7C332,428,323,426.4,319.1,428.6z M370.6,448.4c-1.2,1.7-2.3,3-2.2,3.3c1,1.4,2.3,2.5,3.5,3.8
		c0.7-0.7,2.1-1.7,1.9-2.1C373.2,451.9,372.1,450.6,370.6,448.4z"/>
	<path class="st60" d="M309.7,426.5c0.6,0.2,1.3,0.1,1.6,0.5c4.3,5.6,10.5,8.3,16.8,10.6c9.9,3.5,17.6,10.1,25,17.2
		c4.4,4.2,9.4,6.9,15.2,8.1c5.6,1.1,8.8-0.8,10.6-6.1c0.7-2.1,1.6-4.1,2.4-6.2c-0.9,4.7-1.9,9.4-2.8,14.1c-1.5,1.5-3.1,3.1-4.6,4.6
		c-7.4,0.3-13.7-2.5-19.4-6.8c-1-1-2-2-3-3c-5-4-10-7.9-15-11.9c-5-2.2-9.9-4.4-14.9-6.7c-3.7-3-7.5-6.1-11.2-9.1
		c-0.3-1.5-0.6-3-0.9-4.5C309.5,426.9,309.6,426.7,309.7,426.5z"/>
	<path class="st60" d="M174.1,446.7c-3,3-6,6-9,9c-0.5,0.3-1.1,0.6-1.6,0.9c-4.8-4.6-9.7-9.2-14.4-14c-0.8-0.8-0.9-2.2-1.3-3.4
		c6,0,12,0,18,0c5,0,10.1,0,15.1,0C178.6,441.7,176.4,444.2,174.1,446.7z"/>
	<path class="st33" d="M159.8,422.7c0-0.5,0-1-0.1-1.5c0-6,0-11.9,0-17.9c2,0,4,0,6,0c0,3.5-0.1,6.9,0.1,10.4
		c0.1,1.3,0.9,2.6,1.4,3.9C164.8,419.2,162.3,421,159.8,422.7z"/>
	<path class="st22" d="M189.9,508.9c6.6-11.3,13.2-22.6,19.9-33.9c5.3-5.7,10.6-11.4,16-17.1c1.7,4.2,0.8,8-1.4,11.7
		c-10,17.1-20,34.2-29.9,51.4c-0.7,1.2-1,2.7-1.5,4.1c-0.8-0.2-1.7-0.4-2.5-0.7c-2-1.7-4-3.5-6.3-5.4
		C186.1,515.8,188,512.4,189.9,508.9z"/>
	<path class="st55" d="M189.9,508.9c-1.9,3.4-3.9,6.9-5.7,10.2c2.3,2,4.3,3.7,6.3,5.4c-0.9,0.8-1.9,1.6-3.3,2.8
		c-2.7-2.7-5.3-5.4-7.9-8.1C182.9,515.8,186.4,512.4,189.9,508.9z"/>
	<path class="st55" d="M167.3,417.5c-0.5-1.3-1.4-2.6-1.4-3.9c-0.2-3.4-0.1-6.9-0.1-10.4c0-6,0-12,0-18c0,0,0,0,0,0c2,0,4,0,6,0
		c0,1.1,0,2.2,0,3.3c0,6.9,1.7,8.6,8.5,8.6c7.2,0,14.3,0,21.5,0c0,2,0,4,0,6c0,4.7-0.1,9.4,0.1,14.1c0,1.3,0.9,2.6,1.4,3.9
		c-1.4,1.8-3,3.6-4.2,5.5c-0.5,0.9-0.3,2.2-0.4,3.4c1,0.1,2,0.1,3.1,0.2c0,2.9,0,5.9,0,8.8c0,0,0.1,0.2,0.1,0.2
		c-7,0-13.9-0.1-20.9-0.1c-5,0-10.1,0-15.1,0c0-4.5,0-9,0-13.5c1-1.5,2.1-3,3-4.6C169.7,419.4,169.5,418,167.3,417.5z M171.8,416.6
		C171.8,416.6,171.8,416.6,171.8,416.6c0,3.2-0.1,6.5,0,9.7c0.1,4.6,2.1,6.7,6.6,6.8c3.6,0.1,7.2,0.1,10.9,0
		c4.2-0.1,6.3-2.2,6.4-6.2c0.1-6.7,0-13.5,0.1-20.2c0-2.6-1.2-3.5-3.7-3.5c-5.5,0.1-11,0.1-16.5,0c-3-0.1-4,1.2-3.9,4.1
		C171.9,410.4,171.8,413.5,171.8,416.6z"/>
	<path class="st16" d="M151.6,396.6c0-0.1-0.1-0.2-0.1-0.3c-0.7-2.4-2.7-5.2,0.2-6.9c0.8-0.5,3.4,2.2,5.2,3.5c0,0.5,0.2,1,0.1,1.5
		c-0.3,1.6-0.7,3.3-1,4.9C154.5,398.3,153,397.4,151.6,396.6z"/>
	<path class="st16" d="M167.3,417.5c2.2,0.5,2.4,1.9,1.4,3.6c-0.9,1.6-2,3.1-3,4.6c-1.9,1.4-3.6,3-5.6,4.1c-1.1,0.6-2.7,0.3-4.1,0.4
		c1.2-2.5,2.5-5,3.7-7.5C162.3,421,164.8,419.2,167.3,417.5z"/>
	<path class="st61" d="M171.8,385.3c-2,0-4,0-6,0c0-6,0-11.9,0-17.9c2,0,4,0,6,0C171.8,373.4,171.8,379.3,171.8,385.3z"/>
	<path class="st62" d="M380.7,444.5c-3.2-5.8-6.7-11.4-12.4-15.1c-1.5-1-3.2-1.9-4.8-2.8c4-0.5,8-1.1,12-1.6
		c4.1,10.7,7.3,11.8,22.6,7.9c-7.8-1.2-14.8-3.8-20.4-9.3c-0.7-3-1.4-5.9-2.1-8.9c0.7,1,1.4,2,2.1,2.9c5.8,6.5,13.5,8.8,21.7,9.5
		c7.6,0.7,15.2,0.5,22.5-2.1c1.2,1.4,2.5,2.9,3.7,4.3c-3.7,1.1-7.4,2.2-11,3.3c-1,1.3-2.1,2.7-3.1,4c-1,1.2-1.9,3.1-3.1,3.3
		C399.1,441.5,389.9,442.9,380.7,444.5z"/>
	<path class="st59" d="M379.2,396.6c-5.1,1.7-9.4,0-13.4-3c-0.3-0.8-0.6-1.5-0.8-2.3c-0.5-1.5-1-3.1-1.6-4.6
		c0.8-2.7,1.7-5.4,2.5-8.2c0.2-0.2,0.3-0.4,0.5-0.6c0.5-0.5,1-1,1.5-1.5c-0.1,2.2-0.5,4.4-0.3,6.6c0.7,6.9,7.2,12.6,16.8,9
		c-0.3,0.5-0.5,1-0.8,1.5C382.2,394.5,380.7,395.5,379.2,396.6z"/>
	<path class="st24" d="M377.6,423.5c5.6,5.5,12.6,8,20.4,9.3c-15.3,4-18.5,2.8-22.6-7.9C376.2,424.4,376.9,423.9,377.6,423.5z"/>
	<path class="st63" d="M379.2,396.6c1.5-1,3-2.1,4.4-3.1c3,3,6,6,9,9.1c-0.6,1.1-0.9,3.1-1.7,3.3c-1.2,0.3-3-0.3-3.9-1.2
		C384.3,402.1,381.8,399.3,379.2,396.6z"/>
	<path class="st4" d="M365,391.3c0.3,0.8,0.6,1.5,0.8,2.3c-1.3,3.7-2.7,7.4-4,11.2c-0.3,0.5-0.6,1.1-1.2,2.3
		c-0.9-2.9-1.7-5.2-2.4-7.6c1-2.7,2-5.5,3-8.2C362.4,391.3,363.7,391.3,365,391.3z"/>
	<path class="st50" d="M392.7,402.5c-3-3-6-6-9-9.1c0.3-0.5,0.5-1,0.8-1.5c1.2-0.7,2.5-1.5,3.7-2.2c2,1.5,4,2.9,6,4.4
		c0,1.8,0,3.5,0,5.3C393.6,400.5,393.2,401.5,392.7,402.5z"/>
	<path class="st22" d="M377.6,417.5c-0.7-1-1.4-2-2.1-2.9c1.6-5,4.5-6.3,11.8-4.6c-2.7,2.1-4.8,3.7-7,5.3
		C379.5,416,378.5,416.8,377.6,417.5z"/>
	<path class="st64" d="M362.8,412.4c-0.2-1.1-0.5-2.2-0.7-3.3c3.4-0.6,6.8-1.1,10.8-1.8C370.4,413,366.9,414.4,362.8,412.4z"/>
	<path class="st50" d="M405.4,406.2c2,1,4,2,6,3c-0.6,1.8-1,3.7-1.8,5.3c-0.1,0.3-2.3-0.5-3.5-0.8
		C405.9,411.3,405.6,408.8,405.4,406.2z"/>
	<path class="st22" d="M417.3,409.3c0-0.3,0-0.5,0-0.8c0-0.2,0-0.5,0-0.7c2,0.5,4,1,6,1.5c0,2,0,4,0,6
		C417.9,414.7,417.5,414.3,417.3,409.3z"/>
	<path class="st65" d="M388.2,410.8c1.7,0.6,3.4,1.1,5.1,1.7c-0.4,0.8-1,2.3-1.1,2.3c-1.6-0.5-3.2-1.2-4.8-1.9
		C387.6,412.1,387.9,411.5,388.2,410.8z"/>
	<path class="st64" d="M394.1,399.4c0-1.8,0-3.5,0-5.3c0.3-1,0.6-1.9,0.9-2.9c1,0.8,2,1.5,3,2.3
		C396.7,395.5,395.4,397.5,394.1,399.4z"/>
	<path class="st37" d="M434.6,404.7c5.6-2.2,6.7-1.4,6.7,4.7c0,1.9,0,3.7,0,5.6c0,6.1-1.1,6.9-6.7,4.7
		C434.6,414.7,434.6,409.7,434.6,404.7z"/>
	<path class="st64" d="M434.6,404.7c0,5,0,10,0,15c-3,1.9-4.9,1.3-5.1-1.9c-0.3-3.7-0.3-7.5,0-11.2
		C429.7,403.4,431.7,402.8,434.6,404.7z"/>
	<path class="st13" d="M423.4,409.3c-2-0.5-4-1-6-1.5c0.1-1.9-0.5-4.3,2.4-4.4c1.1,0,2.7,0.9,3.3,1.9
		C423.7,406.3,423.3,407.9,423.4,409.3z"/>
	<path class="st59" d="M415.9,358.4c0,0.7,0.3,1.5,0.1,2.1c-2.8,9.1,6,17.3,15.1,13.8c0.5-0.2,1-0.2,1.4-0.3
		c-6.3,7.1-13.3,7.1-19.7-0.1c-0.8-1.8-1.5-3.5-2.3-5.3c0.5-1.7,1.1-3.4,1.6-5.1c0.5-1,1-2,1.5-2.9
		C414.4,359.9,415.1,359.1,415.9,358.4z"/>
	<path class="st2" d="M410.5,368.7c0.8,1.8,1.5,3.5,2.3,5.3c-1.3,0.8-2.5,1.5-3.8,2.3c-1.2-2.3-2.4-4.5-3.6-6.8c0.2,0,0.5,0.1,0.7,0
		C407.6,369.3,409.1,369,410.5,368.7z"/>
	<path class="st34" d="M415.9,358.4c-0.8,0.7-1.5,1.5-2.3,2.2c-0.1-3-2.2-3.1-4.5-3.1c-0.6-1.4-1.1-2.8-1.7-4.1
		c-1.4,0.7-2.9,1.2-4.1,2.1c-1.9,1.5-3.7,3.3-5.5,5c-6.3-6.1-13.6-10.2-22.5-11.3c0-1.9,0-3.7,0-5.6c0-6.2-1-7-6.7-4.8
		c-3.2-2-4.9-1.2-5.3,2.7c-0.6,6.5,0.6,12.8,2.2,19c-2.8-2.1-5.5-4.2-8-6.1c-0.4,4.7,1.8,9.3,6.6,11.5c4.5,2.2,8.9,1.8,12.8-1.6
		c-0.1,1.2,0.2,2.8-0.5,3.6c-2.7,3-5.7,5.7-8.6,8.5c-0.5,0.5-1,1-1.5,1.5c-0.3-6.8-6.1-9.3-10.3-13c-2.3-3.4-4.5-6.9-6.8-10.3
		c1.4-0.9,2.6-2,4.1-2.5c3.6-1.3,4.7-3.7,3.9-7.3c0-1.8,0.3-3.7-0.1-5.5c-0.2-0.8-1.8-1.8-2.8-1.9c-1,0-2.3,0.9-2.9,1.8
		c-0.5,0.8-0.2,2.1-0.2,3.2c-3.3-2.5-6.5-5-9.8-7.5c5.9-6.6,13.8-8.5,22-9.6c1.1-0.1,2.2-0.1,3.4-0.2c2.8,0,5.6,0.1,8.5,0.1
		c1.7,0.3,3.4,0.7,5.2,1c0.3,2.7,0.5,5.4,0.8,8.2c-0.1,8.7,3.9,14.2,10.8,14.8c6.6,0.6,11.6-3.7,13.1-11.1c2.5,1.3,5,2.6,7.6,3.9
		c2,1.9,3.9,3.8,5.9,5.8c1.3,1.3,2.5,2.5,3.8,3.8C420.4,353.9,418.1,356.1,415.9,358.4z"/>
	<path class="st39" d="M368,376.4c2.9-2.8,5.9-5.5,8.6-8.5c0.7-0.7,0.3-2.3,0.5-3.6c-2.3-3.4-3.8-1.3-5.3,0.7
		c-0.7-3.7-1.5-7.5-2.2-11.2c2.1,0.1,4.3-0.3,6.2,0.3c15.7,4.9,26.1,15.3,31,31c0.6,1.9,0.2,4.1,0.2,6.2c-3.7-0.7-7.5-1.5-11.2-2.2
		c1.2-0.6,2.3-1.2,3.5-1.9c-0.3-0.6-0.6-1.1-0.8-1.7c-1.4-0.6-2.9-1.1-4.3-1.7c-2,2-3.9,4-5.9,6c-1.2,0.7-2.5,1.5-3.7,2.2
		c-9.6,3.6-16.1-2.2-16.8-9C367.5,380.8,367.9,378.6,368,376.4z M385.2,372.5c-1.5-1.9-3.2-1.6-4.7-0.1c-2.2,2.1-4.5,4.2-6.5,6.6
		c-0.9,1-1.8,2.8-1.4,3.8c0.4,0.9,2.4,1.2,3.6,1.7c0.7,1.3,1.3,2.7,2,4c1.2-0.6,2.7-1.1,3.7-1.9c1.8-1.5,3.4-3.3,5-4.9
		c3.4-3.4,3.3-3.4-0.1-6.7C386.1,374.4,385.7,373.4,385.2,372.5z"/>
	<path class="st50" d="M369.5,353.8c0.7,3.7,1.5,7.5,2.2,11.2c-2-1.5-4-3-6-4.5c-1.6-6.2-2.9-12.5-2.2-19c0.4-3.9,2-4.8,5.3-2.7
		c0.3,4.1,0.5,8.2,0.8,12.2C369.9,352,365.3,352.8,369.5,353.8z"/>
	<path class="st36" d="M369.5,351c-0.3-4.1-0.5-8.2-0.8-12.2c5.7-2.1,6.7-1.4,6.7,4.8c0,1.9,0,3.7,0,5.6
		C373.5,349.8,371.5,350.4,369.5,351z"/>
	<path class="st36" d="M409.2,357.6c2.2,0,4.3,0.1,4.5,3.1c-0.5,1-1,2-1.5,2.9c-2,2-4,4-6,6c-0.2,0-0.5,0-0.7,0c-1-1.5-2-3-3-4.4
		C404.7,362.6,406.9,360.1,409.2,357.6z"/>
	<path class="st66" d="M409.2,357.6c-2.3,2.5-4.5,5-6.8,7.5c-1.5-1.5-3-3-4.4-4.5c1.8-1.7,3.5-3.5,5.5-5c1.2-0.9,2.7-1.4,4.1-2.1
		C408.1,354.8,408.6,356.2,409.2,357.6z"/>
	<path class="st13" d="M388.1,389.8c2-2,3.9-4,5.9-6c0.3,1.7,0.6,3.5,0.9,5.2c0,0.8,0.1,1.5,0.1,2.3c-0.3,1-0.6,1.9-0.9,2.9
		C392.1,392.7,390.1,391.3,388.1,389.8z"/>
	<path class="st22" d="M394.9,389c-0.3-1.7-0.6-3.5-0.9-5.2c1.4,0.6,2.9,1.1,4.3,1.7c0.3,0.6,0.6,1.1,0.8,1.7
		c-1.2,0.6-2.3,1.2-3.5,1.9C395.4,389,395.2,389,394.9,389z"/>
	<path class="st37" d="M433.1,357.6c1.4,0.6,2.8,1.1,4.1,1.7c-0.6,1.3-1,2.7-1.9,3.8c-1.7,2-3.6,3.8-5.5,5.5c-1,0.9-2.5,1.4-3.7,2
		c-0.7-1.3-1.4-2.7-2-4C427.1,363.6,430.1,360.6,433.1,357.6z"/>
	<path class="st64" d="M433.1,357.6c-3,3-6,6-9,9c-1.3-0.7-2.7-1.3-4-2c0.6-1.3,1.1-2.7,2-3.7c1.7-2,3.6-3.9,5.6-5.5
		c1-0.9,2.5-1.3,3.8-1.9C432,354.8,432.6,356.2,433.1,357.6z"/>
	<path class="st67" d="M422.6,351.6c-1.3-1.3-2.5-2.5-3.8-3.8c0.1-0.2,0.1-0.4,0.1-0.6c1.1-1,2.3-1.9,3.4-2.8
		C427.2,347,427.2,347.9,422.6,351.6z"/>
	<path class="st68" d="M443.5,371.3c-1.8-0.7-3.5-1.5-5.3-2.2c0.3-0.4,0.5-0.9,0.9-1.2c1.4-0.9,3.5-2.7,4.2-2.3
		C445.5,367,445,369.3,443.5,371.3z"/>
	<path class="st69" d="M171.8,385.3c0-6,0.1-11.9,0.1-17.9c2.9,0,5.8-0.1,8.8-0.1c2.1,0,3.6-0.6,3.9-2.9c0.8-0.8,1.5-1.7,2.3-2.5
		c0.7,0.6,1.9,1.2,1.9,1.9c0.3,5.2,4,8.3,7.1,11.8c0,3.2-0.1,6.5-0.1,9.7c0,5.9,0,5.9,6,5.9c1.8,1,3.7,2,5.5,3c-1.8,1-3.6,2-5.5,3
		c-7.2,0-14.3,0-21.5,0c-6.8,0-8.4-1.7-8.5-8.6C171.8,387.5,171.8,386.4,171.8,385.3z"/>
	<path class="st70" d="M327.4,320.2c0-2.2,0.1-4.5,0.1-6.7c2-0.1,4-0.1,5.9-0.2c1,0.1,1.9,0.1,2.9,0.2c-2.2,2-4.5,3.9-6.7,5.9
		c-0.7,0.5-1.4,1-2.1,1.5C327.6,320.6,327.5,320.4,327.4,320.2z"/>
	<path class="st71" d="M323.8,350.8c-2.3,1.3-4.5,2.5-6.8,3.8c-1.1-0.7-2.1-1.3-3.2-2c0-0.5,0-1.1,0-1.6c1.5-1.1,3-2.2,4.5-3.3
		c2.8-2.7,5.7-5.4,8.5-8.1c2.8-1.3,5.5-2.5,8.3-3.8c1.5,0.3,3,0.5,4.4,0.8c0,0.5,0.1,1.1,0.1,1.6c0.6,3.8,3.1,5.1,6.6,5.2
		c0.3,1.5,0.6,2.9,0.8,4.4c-1.3,1-2.5,2-3.8,3.1c-0.7-0.3-1.5-0.5-2.2-0.8c0.2-3.3-0.1-6.4-3.7-7.8c-3.4-1.3-6,0.4-8.2,2.9
		C327.4,347,325.6,348.9,323.8,350.8z"/>
	<path class="st16" d="M326.8,339.6c-2.8,2.7-5.7,5.4-8.5,8.1c0.1-2.4,0.2-4.8,0.2-7.2c1-1.4,1.8-3,3-4.2c4.3-4.3,7.1-9.1,6.1-15.5
		c0.7-0.5,1.4-1,2.1-1.5c-1,4.9-2,9.9-2.8,14.9C326.6,335.9,326.8,337.8,326.8,339.6z"/>
	<path class="st22" d="M346.2,343.4c-3.5-0.1-6-1.4-6.6-5.2c0.7-1.1,1.4-2.1,2.1-3.2c3.3,2.5,6.5,5,9.8,7.5
		C349.7,342.8,347.9,343.1,346.2,343.4z"/>
	<path class="st21" d="M295.3,323.1c2.8-1.3,5.5-2.5,8.3-3.8c2.7,1.3,5.5,2.5,8.2,3.8c3.1,3.4,3.9,7.6,3.7,12c0,2.8,0,5.5,0,8.3
		c0,1.9,0,3.8,0,5.8c-2.4,0-4.2,0-6,0c0-5.6,0-11.2-0.1-16.8c-0.1-4.5-2.3-7-6-7c-3.7,0-5.9,2.5-6,7c-0.1,5.6,0,11.2-0.1,16.8
		c-2-0.1-4-0.3-6.1-0.4c0-2.1,0-4.1,0.1-6.2c0-3.3,0-6.5,0-9.8C292.8,329.6,294.1,326.3,295.3,323.1z"/>
	<path class="st18" d="M315.6,343.4c0-2.8,0-5.5,0-8.3c3.9-5,7.9-9.9,11.8-14.9c0.1,0.2,0.1,0.4,0.2,0.6c1.1,6.4-1.8,11.2-6.1,15.5
		c-1.2,1.2-2,2.8-3,4.2C317.5,341.4,316.6,342.4,315.6,343.4z"/>
	<path class="st59" d="M405.4,338.2c-1.4,7.4-6.5,11.7-13.1,11.1c-7-0.6-11-6.1-10.8-14.8c0.5,0.9,1,1.7,1.5,2.6
		c5.1,8.4,15.9,8.4,20.9-0.1c0.5-0.9,0.9-1.8,1.4-2.6C405.3,335.6,405.4,336.9,405.4,338.2z"/>
	<path class="st37" d="M392.7,320.8c5.6-2.2,6.7-1.4,6.7,4.7c0,1.9,0,3.7,0,5.6c0,6.1-1.1,6.9-6.7,4.7
		C392.7,330.9,392.7,325.9,392.7,320.8z"/>
	<path class="st64" d="M392.7,320.8c0,5,0,10,0,15c-3,1.9-4.9,1.3-5.1-1.9c-0.3-3.7-0.3-7.5,0-11.2
		C387.8,319.6,389.7,318.9,392.7,320.8z"/>
	<path class="st4" d="M380.7,326.3c-1.7-0.3-3.4-0.7-5.2-1c0-0.2-0.1-0.5-0.2-0.7c0.1-1.5,0.2-2.9,0.3-4.3
		C381.6,318.9,382.5,322.2,380.7,326.3z"/>
	<path class="st42" d="M268.4,341.9c-1.5-1.5-3-3.1-4.5-4.6c0.5-0.7,1-1.5,1.5-2.2c2.8-1.3,5.5-2.5,8.3-3.8c2.8,1.3,5.5,2.5,8.3,3.8
		c3.1,3.4,3.7,7.6,3.7,12c0,2.8,0,5.5,0,8.3c0,1.8,0,3.7,0,5.8c-2.3,0-4.1,0-6,0c0-6,0-12-0.1-18c-0.1-3.3-2-5.4-5.3-5.7
		C271.2,337.3,268.8,338.4,268.4,341.9z"/>
	<path class="st72" d="M281.9,335.1c-2.8-1.3-5.5-2.5-8.3-3.8c0-6,0.1-12,0.1-18c1.9,0,3.9,0,5.8,0c0,0.5,0.1,1.1,0.1,1.6
		c0,3.1,0.1,6.2-0.1,9.3c-0.2,3.6,0.1,6.9,3,9.4C282.4,334.1,282.1,334.6,281.9,335.1z"/>
	<path class="st73" d="M242.1,391.4c-6.9,10.9-10.5,22.8-10.5,35.7c-1.3-0.3-2.7-0.4-3.9-1c-2.2-1-4.3-2.3-6.4-3.4
		c0.7-2.3,1-4.8,2.2-6.8c2.3-4.1,5.1-7.9,7.3-11.4c-2.3-1.4-4.1-2.4-5.8-3.5c0.3-1.7,0.6-3.5,0.8-5.2c0.4-2.5,1-5,1.2-7.6
		c0.3-2.9,0.1-5.8,3.2-7.4c2.1-0.3,4.2-0.6,6.3-0.9c3.4-0.5,6.8-0.9,10.2-1.4c-4.2,3.9-8.3,7.9-12.5,11.8c0.2,0.4,0.4,0.7,0.6,1.1
		C237.3,391.4,239.7,391.4,242.1,391.4z"/>
	<path class="st40" d="M271.1,366.5c-6.1,4-12.3,8-18.4,12c-1-0.8-2-1.5-3-2.3c-1-0.7-2-1.4-3-2.1c0.7-2.2,1.5-4.5,2.2-6.7
		c0-0.5,0-1,0-1.5c1-4.7,2-9.5,3-14.2c4.7-0.5,9.4-1,14.1-1.4c1.4,1.8,3,3.5,4.3,5.4c1.3,1.9,2.3,3.9,3.4,5.9
		C272.8,363.1,272,364.8,271.1,366.5z"/>
	<path class="st61" d="M224.9,401c1.7,1,3.5,2.1,5.8,3.5c-2.3,3.5-5,7.3-7.3,11.4c-1.2,2-1.5,4.5-2.2,6.8c-3.5-0.5-7-1-10.5-1.5
		c1-3.1,0-4.1-3-3c0-5,0-9.9,0-14.9c5,0,9.9,0,14.9-0.1C223.4,402.5,224.2,401.8,224.9,401z"/>
	<path class="st61" d="M246.7,374c1,0.7,2,1.4,3,2.1c-1,0.8-2,1.6-3,2.3c-3.4,0.5-6.8,0.9-10.2,1.4c-2.1,0.3-4.2,0.6-6.3,0.9
		c-5.3-0.5-7.2-5.2-10.5-8.2c3.5-3.6,7.1-7.2,10.5-10.9c2.1-2.3,3.5,0.3,5.2,0.5c-0.5,1.4-1.1,2.7-1.3,4.2c-0.1,0.9,0.4,2.3,1.1,2.7
		c0.7,0.4,2-0.1,2.9-0.6c0.7-0.4,1.1-1.3,1.7-1.9C242.1,369,244.4,371.5,246.7,374z"/>
	<path class="st44" d="M273.7,361.4c-1.1-2-2.1-4-3.4-5.9c-1.3-1.9-2.9-3.6-4.3-5.4c2-1.1,3.9-2.2,6.3-3.6c-1.3-1.5-2.6-3.1-3.9-4.7
		c0.4-3.5,2.8-4.6,5.8-4.4c3.3,0.3,5.2,2.4,5.3,5.7c0.2,6,0.1,12,0.1,18C277.7,361.3,275.7,361.3,273.7,361.4z"/>
	<path class="st60" d="M222.7,403.2c-5,0-9.9,0-14.9,0.1c-2,0-4,0-6,0c0-2,0-4,0-6c1.8-1,3.6-2,5.5-3c-1.8-1-3.7-2-5.5-3
		c0-2.6,0-5.2,0-7.7c0.3-0.2,0.7-0.5,1-0.7C209.4,389.6,216.1,396.4,222.7,403.2z"/>
	<path class="st10" d="M219.7,372.5c3.3,3.1,5.2,7.8,10.5,8.2c-3.1,1.6-2.9,4.5-3.2,7.4c-0.2,2.5-0.8,5.1-1.2,7.6
		c-6.5-3.2-10.4-9.2-9.6-15.9C216.5,377.3,218.5,375,219.7,372.5z"/>
	<path class="st33" d="M251.9,351.6c-1,4.7-2,9.5-3,14.2c-4.8-4.2-9.9-8.2-9-15.7c0.1-0.6-0.1-1.3,0.2-1.8c0.8-1.6,1.7-3.2,2.6-4.8
		c1.4,0.9,2.9,1.6,4.1,2.7C248.7,347.9,250.2,349.8,251.9,351.6z"/>
	<path class="st3" d="M239.9,366.5c-0.5,0.7-1,1.5-1.7,1.9c-0.9,0.5-2.2,0.9-2.9,0.6c-0.7-0.4-1.2-1.8-1.1-2.7
		c0.1-1.4,0.8-2.8,1.3-4.2c1.3-0.9,2.6-1.8,3.9-2.7c0.4,1.9,0.9,3.8,1.3,5.7C240.4,365.5,240.2,366,239.9,366.5z"/>
	<path class="st74" d="M239.9,366.5c0.3-0.5,0.5-1,0.8-1.4c2.7,0.7,5.5,1.5,8.2,2.2c-0.7,2.2-1.5,4.5-2.2,6.7
		C244.4,371.5,242.1,369,239.9,366.5z"/>
	<path class="st18" d="M282.6,333.6c-2.9-2.5-3.2-5.9-3-9.4c0.2-3.1,0.1-6.2,0.1-9.3c3.2,5,6.4,10,9.7,15c0.7,1,1.5,2,2.2,2.9
		c0,3.3,0,6.5,0,9.8c-0.7-0.5-1.5-1-2.2-1.5C287.1,338.6,284.9,336.1,282.6,333.6z"/>
	<path class="st50" d="M311.1,532.1c4.8-4.5,9.8-3.3,15-0.8c0,0.3,0,0.5,0,0.8C321.5,536.1,315.6,536.1,311.1,532.1z"/>
	<path class="st29" d="M308.9,520.8c4.7-1,9.4-2,14.1-3c-0.4,1.7-0.9,3.5-1.3,5.2c-5.8,2-11.5,4-17.3,6c0,0,0,0,0,0
		C307.2,527,310.8,525.4,308.9,520.8z"/>
	<path class="st75" d="M359.7,425.9c-5.5-0.3-11.1-0.5-16.6-0.8c2.3-0.1,3.1-1.4,3.2-3.6c0.5-9.6-4.1-16-12.7-19.6
		c-10.5-4.4-19.2-11-25.2-20.8c-2.6-4.2-6.6-5.2-11.4-4.6c-3.5,0.4-7.2,0.4-10.8,0c-8.7-1-16,0.7-20.1,9.3
		c-3.1,6.6-8.7,10-15.1,12.7c-10.8,4.5-14.9,14.4-10.9,25.4c2.7,7.6,5,15.3,7.3,23.1c1.4,4.9,3.6,9.3,7.9,12.3
		c6.9,4.7,14.6,7.5,22.8,7.6c11.3,0.2,22.4,1.1,33.3,4.1c4.6,1.3,9.3,1.4,13.9-0.6c6.1-2.6,8.2-8,9.7-13.8c3.8,3.5,7.6,7,11.4,10.5
		c-30.4,35.6-85,29-105.3-12.7c-18.3-37.6,5.7-83.2,47.2-89c7.1-1,14.6,0,21.9,0.4c2.5,0.1,4,0.1,5.4-2.4
		c6.4-11.1,19.8-14.3,29.9-7.3c10.2,7.1,12.2,20.5,4.3,30.5c-1.5,1.9-1.6,3.2-0.2,5.2c5.9,8.4,9.4,17.8,10.7,28
		C360.4,421.7,359.8,423.8,359.7,425.9z M334.2,389c5.7,0.1,8.5-2.8,8.3-8.5c-0.3-8.1-8.3-15.3-16.2-14.7c-4,0.3-6.6,2.8-6.9,6.9
		C318.7,381,325.9,388.9,334.2,389z"/>
	<path class="st17" d="M273.7,361.4c2-0.1,4-0.1,6-0.2c1.8,0,3.7,0,6,0c0-2.2,0-4,0-5.8c2-2.2,3.9-4.4,5.9-6.6c2,0.1,4,0.3,6.1,0.4
		c4,0,8,0,12,0c1.8,0,3.6,0,6,0c0-2.1,0-4,0-5.8c1-1,2-1.9,2.9-2.9c-0.1,2.4-0.1,4.8-0.2,7.2c-1.5,1.1-3,2.2-4.5,3.3
		c0,0.5,0,1.1,0,1.6c1.1,0.7,2.1,1.3,3.2,2c-1,5-4.9,8.1-9.5,7.4c-11.2-1.7-22.1-0.5-32.7,3.5c-1.2,0.4-2.4,0.7-3.6,1
		C272,364.8,272.8,363.1,273.7,361.4z"/>
	<path class="st33" d="M210.8,421.2c3.5,0.5,7,1,10.5,1.5c2.1,1.2,4.2,2.4,6.4,3.4c1.2,0.5,2.6,0.7,3.9,1c0,2.1,0,4.1,0,6.2
		c-1,0.5-1.9,1-2.9,1.4c-2.8-0.5-5.6-1.3-8.4-1.4c-6-0.3-9.8-2.8-11.8-8.3C209.2,423.7,210,422.5,210.8,421.2z"/>
	<path class="st45" d="M228.7,434.7c1-0.5,1.9-1,2.9-1.4c0.3,2.5,0.6,5,0.9,7.5c-1.5,1.5-3,3-4.5,4.5c-1.5,1.7-3,3.4-4.6,5.1
		c-1.2-0.3-2.8-0.2-3.6-1c-3.4-3.2-6.6-6.7-9.9-10c6.9,0,13.8,0,21.5,0C230.2,437.1,229.5,435.9,228.7,434.7z"/>
	<path class="st22" d="M346.4,467c-3.8-3.5-7.6-7-11.4-10.5l0.1-0.1c0.5-3,1-5.9,1.4-8.9c5,4,10,7.9,15,11.9c-1.5,2.5-3,5-4.5,7.5
		C346.8,466.9,346.6,466.9,346.4,467z"/>
	<path class="st17" d="M246.7,378.5c1-0.8,2-1.6,3-2.3c1,0.8,2,1.5,3,2.3c-3.5,4.3-7.1,8.6-10.6,12.9c-2.4,0-4.8,0-7.3,0
		c-0.2-0.4-0.4-0.7-0.6-1.1C238.3,386.4,242.5,382.5,246.7,378.5z"/>
	<path class="st44" d="M323.8,350.8c1.8-1.9,3.6-3.8,5.4-5.7c2.2-2.4,4.9-4.1,8.2-2.9c3.6,1.4,3.8,4.5,3.7,7.8
		C335.2,348.7,329.5,349.1,323.8,350.8z"/>
	<path class="st4" d="M343.2,350.9c1.3-1,2.5-2,3.8-3.1c3.4-1,6.9-2,10.3-3c0.8,3.5-0.3,6-3.9,7.3c-1.5,0.5-2.8,1.7-4.1,2.5
		C347.3,353.4,345.3,352.1,343.2,350.9z"/>
	<path class="st66" d="M356.1,365c4.3,3.7,10,6.2,10.3,13c-0.2,0.2-0.3,0.4-0.5,0.6c-1.1,0-2.1,0-3.2,0c-1.7-1.7-3.4-3.4-5.1-5.2
		C357.1,370.6,356.6,367.8,356.1,365z"/>
	<path class="st70" d="M361.2,391.2c-1,2.7-2,5.5-3,8.2c-2-3.1-4.2-6-5.7-9.3c-0.4-0.8,1.3-2.7,2-4.1c0,0,0,0,0,0
		C356.7,387.7,358.9,389.5,361.2,391.2z"/>
	<path class="st34" d="M362.7,378.5c1.1,0,2.1,0,3.2,0c-0.8,2.7-1.7,5.4-2.5,8.2c-3-0.2-6-0.5-9-0.7c0,0,0,0,0,0
		c0.7-1.8,1.4-3.6,2.1-5.4C360.8,383.2,362,382.7,362.7,378.5z"/>
	<path class="st76" d="M362.7,378.5c-0.7,4.2-2,4.6-6.1,2.1c0.3-2.4,0.7-4.8,1-7.2C359.3,375.1,361,376.8,362.7,378.5z"/>
	<path class="st49" d="M228,445.2c1.5-1.5,3-3,4.5-4.5c0.7,2.3,1.5,4.5,2.2,6.8C232.5,446.7,230.2,446,228,445.2z"/>
	<path class="st77" d="M347,466.9c1.5-2.5,3-5,4.5-7.5c1,1,2,2,3,3c-1.8,2-3.5,4-5.3,5.9C348.5,467.9,347.8,467.4,347,466.9z"/>
	<path class="st22" d="M220.4,544.1c0.5-1.3,0.7-2.8,1.4-4c2.5-4.7,5.2-9.3,7.8-13.9c5.6-9.3,11.2-18.5,16.7-27.8
		c2-3.4,4-6.8,6.1-10.2c4.6,2.5,6.2,8.3,3.5,13.4c-2.3,4.4-5.1,8.6-7.7,12.8c-6.3,9.9-12.7,19.7-18.8,29.6c-1.9,3.1-3.5,3.8-6.3,1.5
		C222.3,544.9,221.3,544.6,220.4,544.1z"/>
	<path class="st48" d="M308.9,520.8c1.8,4.6-1.8,6.2-4.6,8.3c-4.9,0.2-9.6,0.2-12.7-4.5c0.3-1.3,0.5-2.5,0.8-3.8
		C297.8,523.6,303.3,523.6,308.9,520.8L308.9,520.8z"/>
	<path class="st50" d="M308.8,520.8c-5.5,2.8-11,2.8-16.5,0C297,515.8,304.2,515.8,308.8,520.8z"/>
	<path class="st55" d="M225.8,458c-5.3,5.7-10.6,11.4-16,17.1c-1.5-0.2-3-0.4-4.4-0.6c-1-0.8-1.9-1.5-2.9-2.3
		c0.7-1.1,1.3-2.4,2.2-3.3c4.8-4.9,9.7-9.8,14.7-14.7c0.9-0.9,2.2-1.4,3.3-2.1C223.7,454,224.7,456,225.8,458z"/>
	<path class="st78" d="M180.9,439.2c7,0,13.9,0.1,20.9,0.1c2.2,2.3,4.5,4.6,6.7,7c3,3.2,3,6.4,0.1,9.6c-2.6,2.8-5.4,5.6-8.2,8.2
		c-2.9,2.7-6.2,2.9-9,0.1c-5.9-5.7-11.5-11.7-17.3-17.5C176.4,444.2,178.6,441.7,180.9,439.2z"/>
	<path class="st60" d="M228.7,434.7c0.7,1.2,1.5,2.5,2.7,4.5c-7.7,0-14.6,0-21.5,0c-2.7,0-5.5-0.1-8.2-0.1c0-2.9,0-5.9,0-8.8
		c2.2-1.8,4.5-3.5,6.7-5.3c2,5.5,5.8,8,11.8,8.3C223.1,433.4,225.9,434.2,228.7,434.7z"/>
	<path class="st3" d="M192,472.9c-3.2-2.5-6.5-5-9.7-7.5c-0.6-1.7-1.1-3.4-1.7-5.2c1.9,0.5,4.2,0.6,5.6,1.7c2.4,1.9,4.4,4.3,6.2,6.9
		C192.9,469.7,192.1,471.5,192,472.9z"/>
	<path class="st75" d="M414.5,432.5c3.7-1.1,7.4-2.2,11-3.3c2.2,1.3,4.5,2.6,6.7,3.9c-5,0.1-9.9,0.1-14.9,0.2
		C416.4,433,415.4,432.8,414.5,432.5z"/>
	<path class="st79" d="M335,456.4c-1.5,5.8-3.5,11.2-9.7,13.8c-4.6,2-9.3,1.8-13.9,0.6c-10.9-3-22-3.9-33.3-4.1
		c-8.2-0.1-15.9-2.9-22.8-7.6c-4.3-3-6.5-7.4-7.9-12.3c-2.3-7.7-4.6-15.5-7.3-23.1c-3.9-10.9,0.2-20.9,10.9-25.4
		c6.4-2.7,11.9-6.1,15.1-12.7c4.1-8.6,11.4-10.3,20.1-9.3c3.5,0.4,7.2,0.4,10.8,0c4.8-0.6,8.8,0.4,11.4,4.6
		c6,9.9,14.7,16.4,25.2,20.8c8.6,3.6,13.1,10,12.7,19.6c-0.1,2.3-0.9,3.5-3.2,3.6c-5.2-1-10.4-2-15.6-3c-0.1-9-2.5-17.2-8.9-24
		c-12.6-16.7-40-16.9-54-0.3c-17.3,19.2-8,50.8,16.9,57.8c13.1,3.7,24.6,0.4,34.8-8.2C322.5,450.4,328.8,453.4,335,456.4L335,456.4z
		"/>
	<path class="st80" d="M264.6,397.8c13.9-16.6,41.3-16.5,54,0.3c4.1,7.7,3.3,15.4-0.1,23c-4,0.1-7.6,0.8-8.8,5.4
		c-0.1,0.2-0.1,0.4-0.2,0.7c-4.2,1.2-6.2,3.9-5.9,8.3c-2.1,1-4.2,2.2-6.4,2.8c-10.6,3.2-23.4-3.6-29.9-13
		C261.5,416.6,259.8,407.5,264.6,397.8z M298.4,397.3c-4.2-0.2-6.9,2.4-6.8,6.6c0.2,7.6,9.4,16.9,17.1,17.3c4.3,0.2,7-2.6,6.8-7
		C315,406.6,305.9,397.6,298.4,397.3z M279.6,404c0-5.2-1-6.7-4.6-6.7c-3.8,0-7.3,3-7.2,6.1c0.1,2.8,4.5,5.8,8.5,5.8
		C280.3,409.1,279.4,406,279.6,404z M282.6,421.8c0-4.2-3.8-8.1-7.4-8c-2.7,0-4.2,1.5-4.1,4.1c0,3.6,4,7.6,7.5,7.6
		C281.3,425.5,282.5,423.9,282.6,421.8z M287,424.8c-1.2,1.5-2.4,2.6-2.2,2.9c0.8,1.4,2,2.5,3.1,3.7c0.7-0.7,2.1-1.6,2-1.9
		C289.3,428,288.3,426.8,287,424.8z"/>
	<path class="st81" d="M359.8,431.7c7.1,0,12.7,5.8,12.6,11.9c-0.1,2.5-1.5,3.2-3.7,3.1c-4.3-0.1-12.9-6.8-13.7-11
		c-0.2-1,0.7-2.7,1.5-3.2C357.7,431.7,359.4,431.8,359.8,431.7z"/>
	<path class="st51" d="M318.5,421.1c3.3-7.7,4.2-15.3,0.1-23c6.4,6.7,8.8,14.9,8.9,24C324.5,421.7,321.5,421.4,318.5,421.1z"/>
	<path class="st41" d="M319.1,428.6c3.9-2.2,12.9-0.7,16.7,2.7C332.8,434.6,323.6,433.1,319.1,428.6z"/>
	<path class="st82" d="M370.6,448.4c1.5,2.1,2.6,3.5,3.3,5c0.1,0.3-1.2,1.4-1.9,2.1c-1.2-1.2-2.5-2.4-3.5-3.8
		C368.3,451.4,369.4,450.2,370.6,448.4z"/>
	<path class="st27" d="M335.1,456.4c-6.3-3-12.5-6-18.8-9c0-0.2,0.1-0.4,0.1-0.6c1.7-2,3.5-4,5.2-6c5,2.2,9.9,4.4,14.9,6.7
		C336,450.4,335.5,453.4,335.1,456.4z"/>
	<path class="st3" d="M321.6,440.8c-1.7,2-3.5,4-5.2,6c-5.5-2.3-10.6-4.8-12.1-11.3c2-1.3,4.1-2.5,6.1-3.8
		C314.1,434.7,317.9,437.8,321.6,440.8z"/>
	<path class="st83" d="M310.4,431.7c-2,1.3-4.1,2.5-6.1,3.8c-0.2,0-0.5,0-0.7,0c-0.3-4.4,1.7-7.1,5.9-8.3
		C309.8,428.7,310.1,430.2,310.4,431.7z"/>
	<path class="st30" d="M171.8,416.6c0-3.1,0.1-6.2,0-9.4c-0.1-2.8,0.9-4.1,3.9-4.1c5.5,0.1,11,0.1,16.5,0c2.5,0,3.7,0.9,3.7,3.5
		c-0.1,6.7,0.1,13.5-0.1,20.2c-0.1,4.1-2.2,6.1-6.4,6.2c-3.6,0.1-7.2,0.1-10.9,0c-4.5-0.1-6.5-2.2-6.6-6.8
		C171.8,423.1,171.8,419.9,171.8,416.6C171.8,416.6,171.8,416.6,171.8,416.6z"/>
	<path class="st74" d="M201.8,403.2c2,0,4,0,6,0c0,5,0,9.9,0,14.9c-1.5,1-3,2-4.5,3c-0.5-1.3-1.4-2.6-1.4-3.9
		C201.7,412.6,201.8,407.9,201.8,403.2z"/>
	<path class="st16" d="M203.3,421.2c1.5-1,3-2,4.5-3c3-1,4.1,0,3,3c-0.8,1.2-1.5,2.5-2.3,3.7c-2.2,1.8-4.5,3.5-6.7,5.3
		c-1-0.1-2-0.1-3.1-0.2c0.1-1.1-0.1-2.5,0.4-3.4C200.3,424.8,201.9,423,203.3,421.2z"/>
	<path class="st84" d="M354.5,386c3,0.2,6,0.5,9,0.7c0.5,1.5,1,3.1,1.6,4.6c-1.3,0-2.5,0-3.8-0.1C358.9,389.5,356.7,387.7,354.5,386
		z"/>
	<path class="st46" d="M406.1,369.5c2-2,4-4,6-6c-0.5,1.7-1.1,3.4-1.6,5.1C409.1,369,407.6,369.3,406.1,369.5z"/>
	<path class="st22" d="M365.7,360.5c2,1.5,4,3,6,4.5c1.5-2,3.1-4.1,5.3-0.7c-3.9,3.5-8.2,3.8-12.8,1.6c-4.7-2.3-7-6.8-6.6-11.5
		C360.2,356.3,362.9,358.4,365.7,360.5z"/>
	<path class="st85" d="M357.4,344.8c-3.4,1-6.9,2-10.3,3c-0.3-1.5-0.6-2.9-0.8-4.4c1.8-0.3,3.5-0.6,5.3-0.9c0-1.1-0.3-2.4,0.2-3.2
		c0.6-0.9,1.9-1.8,2.9-1.8c1,0,2.6,1,2.8,1.9C357.7,341.1,357.4,343,357.4,344.8z"/>
	<path class="st37" d="M385.2,372.5c0.5,0.8,0.9,1.8,1.6,2.5c3.5,3.3,3.5,3.3,0.1,6.7c-1.6,1.7-3.2,3.4-5,4.9
		c-1,0.9-2.5,1.3-3.7,1.9c-0.7-1.3-1.3-2.7-2-4c2.1-2.2,4.3-4.3,6.2-6.7C383.6,376.3,384.3,374.3,385.2,372.5z"/>
	<path class="st64" d="M385.2,372.5c-0.9,1.8-1.6,3.8-2.8,5.3c-1.9,2.4-4.1,4.5-6.2,6.7c-1.3-0.6-3.3-0.8-3.6-1.7
		c-0.4-0.9,0.5-2.8,1.4-3.8c2-2.3,4.3-4.4,6.5-6.6C382,370.9,383.6,370.6,385.2,372.5z"/>
	<path class="st8" d="M309.6,349.2c-4,0-8,0-12,0c0-5.6,0-11.2,0.1-16.8c0.1-4.5,2.3-7,6-7c3.7,0,5.9,2.5,6,7
		C309.6,338,309.6,343.6,309.6,349.2z"/>
	<path class="st16" d="M291.5,348.8c-2,2.2-3.9,4.4-5.9,6.6c0-2.8,0-5.5,0-8.3c1.2-2,2.5-4,3.7-6c0.7,0.5,1.5,1,2.2,1.5
		C291.5,344.7,291.5,346.7,291.5,348.8z"/>
	<path class="st41" d="M289.4,341.1c-1.2,2-2.5,4-3.7,6c-0.1-4.4-0.7-8.6-3.7-12c0.2-0.5,0.5-1,0.7-1.4
		C284.9,336.1,287.1,338.6,289.4,341.1z"/>
	<path class="st86" d="M334.2,389c-8.3-0.1-15.5-8-14.9-16.3c0.3-4.1,2.9-6.6,6.9-6.9c8-0.5,15.9,6.7,16.2,14.7
		C342.7,386.2,339.9,389.1,334.2,389z"/>
	<path class="st51" d="M303.6,435.4c0.2,0,0.5,0,0.7,0c1.5,6.5,6.6,9.1,12.1,11.3c0,0.2-0.1,0.4-0.1,0.6
		c-10.2,8.6-21.7,11.9-34.8,8.2c-24.9-7-34.2-38.6-16.9-57.8c-4.9,9.7-3.1,18.8,2.7,27.4c6.5,9.5,19.3,16.3,29.9,13
		C299.4,437.6,301.5,436.4,303.6,435.4z"/>
	<path class="st87" d="M298.4,397.3c7.5,0.3,16.6,9.3,17.1,16.9c0.3,4.3-2.4,7.1-6.8,7c-7.6-0.3-16.9-9.7-17.1-17.3
		C291.5,399.7,294.2,397.1,298.4,397.3z"/>
	<path class="st63" d="M279.6,404c-0.3,2,0.7,5.1-3.2,5.1c-4,0.1-8.4-2.9-8.5-5.8c-0.1-3.1,3.5-6.1,7.2-6.1
		C278.6,397.3,279.6,398.8,279.6,404z"/>
	<path class="st86" d="M282.6,421.8c-0.1,2.1-1.3,3.7-4.1,3.7c-3.5,0-7.4-4-7.5-7.6c0-2.7,1.5-4.1,4.1-4.1
		C278.8,413.7,282.6,417.6,282.6,421.8z"/>
	<path class="st88" d="M287,424.8c1.3,2,2.3,3.3,2.8,4.7c0.1,0.3-1.3,1.3-2,1.9c-1.1-1.2-2.3-2.3-3.1-3.7
		C284.6,427.4,285.8,426.3,287,424.8z"/>
</g>
</svg>
